<?xml version="1.0" encoding="UTF-8" standalone="no"?><svg xmlns="http://www.w3.org/2000/svg" xmlns:xlink="http://www.w3.org/1999/xlink" clip-rule="evenodd" stroke-miterlimit="10" viewBox="0 0 1024 768"><desc>SVG generated by Keynote</desc><defs></defs><g transform="matrix(1.00, 0.00, -0.00, -1.00, 0.0, 768.0)"><g><clipPath id="clip0x7fe3a10cc350"><path d="M 0.0 768.0 L 1024.0 768.0 L 1024.0 0.0 L 0.0 0.0 Z M 0.0 768.0 "></path></clipPath><g clip-path="url(#clip0x7fe3a10cc350)"><image xlink:href="../../BE03AB4A-F5E0-4685-80C7-20DCBC62631F/assets/574DCE55A4CF432400CBDDDE1DFDFC9B.jpeg" width="2048.00" height="1536.00" transform="matrix(0.50, 0.00, -0.00, -0.50, 0.0, 768.0)"></image></g></g><text xml:space="preserve" font-family="GillSans-Light,Gill Sans" font-size="55.0" fill="#525252" transform="matrix(1.00, 0.00, -0.00, -1.00, 113.8, 481.4)">J</text><text xml:space="preserve" font-family="GillSans-Light,Gill Sans" font-size="55.0" fill="#525252" transform="matrix(1.00, 0.00, -0.00, -1.00, 125.2, 481.4)"> </text><text xml:space="preserve" font-family="GillSans-Light,Gill Sans" font-size="55.0" fill="#525252" transform="matrix(1.00, 0.00, -0.00, -1.00, 140.5, 481.4)">:</text><text xml:space="preserve" font-family="GillSans-Light,Gill Sans" font-size="55.0" fill="#525252" transform="matrix(1.00, 0.00, -0.00, -1.00, 145.8, 481.4)"> </text><text xml:space="preserve" font-family="GillSans-Light,Gill Sans" font-size="55.0" fill="#525252" transform="matrix(1.00, 0.00, -0.00, -1.00, 161.0, 481.4)">P</text><text xml:space="preserve" font-family="GillSans-Light,Gill Sans" font-size="55.0" fill="#525252" transform="matrix(1.00, 0.00, -0.00, -1.00, 188.0, 481.4)">a</text><text xml:space="preserve" font-family="GillSans-Light,Gill Sans" font-size="55.0" fill="#525252" transform="matrix(1.00, 0.00, -0.00, -1.00, 211.4, 481.4)">r</text><text xml:space="preserve" font-family="GillSans-Light,Gill Sans" font-size="55.0" fill="#525252" transform="matrix(1.00, 0.00, -0.00, -1.00, 229.7, 481.4)"> </text><text xml:space="preserve" font-family="GillSans-Light,Gill Sans" font-size="55.0" fill="#525252" transform="matrix(1.00, 0.00, -0.00, -1.00, 245.0, 481.4)">c</text><text xml:space="preserve" font-family="GillSans-Light,Gill Sans" font-size="55.0" fill="#525252" transform="matrix(1.00, 0.00, -0.00, -1.00, 267.9, 481.4)">i</text><text xml:space="preserve" font-family="GillSans-Light,Gill Sans" font-size="55.0" fill="#525252" transform="matrix(1.00, 0.00, -0.00, -1.00, 278.3, 481.4)">k</text><text xml:space="preserve" font-family="GillSans-Light,Gill Sans" font-size="55.0" fill="#525252" transform="matrix(1.00, 0.00, -0.00, -1.00, 301.7, 481.4)"> </text><text xml:space="preserve" font-family="GillSans-Light,Gill Sans" font-size="55.0" fill="#525252" transform="matrix(1.00, 0.00, -0.00, -1.00, 317.0, 481.4)">k</text><text xml:space="preserve" font-family="GillSans-Light,Gill Sans" font-size="55.0" fill="#525252" transform="matrix(1.00, 0.00, -0.00, -1.00, 339.9, 481.4)">o</text><text xml:space="preserve" font-family="GillSans-Light,Gill Sans" font-size="55.0" fill="#525252" transform="matrix(1.00, 0.00, -0.00, -1.00, 369.7, 481.4)">d</text><text xml:space="preserve" font-family="GillSans-Light,Gill Sans" font-size="55.0" fill="#525252" transform="matrix(1.00, 0.00, -0.00, -1.00, 397.8, 481.4)">a</text><text xml:space="preserve" font-family="GillSans-Light,Gill Sans" font-size="55.0" fill="#525252" transform="matrix(1.00, 0.00, -0.00, -1.00, 421.2, 481.4)"> </text><text xml:space="preserve" font-family="GillSans-Light,Gill Sans" font-size="55.0" fill="#525252" transform="matrix(1.00, 0.00, -0.00, -1.00, 436.5, 481.4)">r</text><text xml:space="preserve" font-family="GillSans-Light,Gill Sans" font-size="55.0" fill="#525252" transform="matrix(1.00, 0.00, -0.00, -1.00, 456.2, 481.4)">i</text><text xml:space="preserve" font-family="GillSans-Light,Gill Sans" font-size="55.0" fill="#525252" transform="matrix(1.00, 0.00, -0.00, -1.00, 466.5, 481.4)">n</text><text xml:space="preserve" font-family="GillSans-Light,Gill Sans" font-size="55.0" fill="#525252" transform="matrix(1.00, 0.00, -0.00, -1.00, 493.5, 481.4)">d</text><text xml:space="preserve" font-family="GillSans-Light,Gill Sans" font-size="55.0" fill="#525252" transform="matrix(1.00, 0.00, -0.00, -1.00, 521.5, 481.4)">ā</text><text xml:space="preserve" font-family="GillSans-Light,Gill Sans" font-size="55.0" fill="#525252" transform="matrix(1.00, 0.00, -0.00, -1.00, 545.0, 481.4)">m</text><text xml:space="preserve" font-family="GillSans-Light,Gill Sans" font-size="55.0" fill="#525252" transform="matrix(1.00, 0.00, -0.00, -1.00, 587.4, 481.4)"> </text><text xml:space="preserve" font-family="GillSans-Light,Gill Sans" font-size="55.0" fill="#525252" transform="matrix(1.00, 0.00, -0.00, -1.00, 602.7, 481.4)">i</text><text xml:space="preserve" font-family="GillSans-Light,Gill Sans" font-size="55.0" fill="#525252" transform="matrix(1.00, 0.00, -0.00, -1.00, 613.0, 481.4)">z</text><text xml:space="preserve" font-family="GillSans-Light,Gill Sans" font-size="55.0" fill="#525252" transform="matrix(1.00, 0.00, -0.00, -1.00, 634.8, 481.4)">a</text><text xml:space="preserve" font-family="GillSans-Light,Gill Sans" font-size="55.0" fill="#525252" transform="matrix(1.00, 0.00, -0.00, -1.00, 658.2, 481.4)">u</text><text xml:space="preserve" font-family="GillSans-Light,Gill Sans" font-size="55.0" fill="#525252" transform="matrix(1.00, 0.00, -0.00, -1.00, 685.2, 481.4)">g</text><text xml:space="preserve" font-family="GillSans-Light,Gill Sans" font-size="55.0" fill="#525252" transform="matrix(1.00, 0.00, -0.00, -1.00, 708.7, 481.4)">a</text><text xml:space="preserve" font-family="GillSans-Light,Gill Sans" font-size="55.0" fill="#525252" transform="matrix(1.00, 0.00, -0.00, -1.00, 732.1, 481.4)"> </text><text xml:space="preserve" font-family="GillSans-Light,Gill Sans" font-size="55.0" fill="#525252" transform="matrix(1.00, 0.00, -0.00, -1.00, 747.4, 481.4)">K</text><text xml:space="preserve" font-family="GillSans-Light,Gill Sans" font-size="55.0" fill="#525252" transform="matrix(1.00, 0.00, -0.00, -1.00, 776.6, 481.4)">a</text><text xml:space="preserve" font-family="GillSans-Light,Gill Sans" font-size="55.0" fill="#525252" transform="matrix(1.00, 0.00, -0.00, -1.00, 800.0, 481.4)">s</text><text xml:space="preserve" font-family="GillSans-Light,Gill Sans" font-size="55.0" fill="#525252" transform="matrix(1.00, 0.00, -0.00, -1.00, 819.5, 481.4)">t</text><text xml:space="preserve" font-family="GillSans-Light,Gill Sans" font-size="55.0" fill="#525252" transform="matrix(1.00, 0.00, -0.00, -1.00, 836.1, 481.4)">a</text><text xml:space="preserve" font-family="GillSans-Light,Gill Sans" font-size="55.0" fill="#525252" transform="matrix(1.00, 0.00, -0.00, -1.00, 859.6, 481.4)">ņ</text><text xml:space="preserve" font-family="GillSans-Light,Gill Sans" font-size="55.0" fill="#525252" transform="matrix(1.00, 0.00, -0.00, -1.00, 886.5, 481.4)">a</text><text xml:space="preserve" font-family="GillSans-Light,Gill Sans" font-size="55.0" fill="#525252" transform="matrix(1.00, 0.00, -0.00, -1.00, 95.6, 419.4)">d</text><text xml:space="preserve" font-family="GillSans-Light,Gill Sans" font-size="55.0" fill="#525252" transform="matrix(1.00, 0.00, -0.00, -1.00, 123.7, 419.4)">a</text><text xml:space="preserve" font-family="GillSans-Light,Gill Sans" font-size="55.0" fill="#525252" transform="matrix(1.00, 0.00, -0.00, -1.00, 147.1, 419.4)">t</text><text xml:space="preserve" font-family="GillSans-Light,Gill Sans" font-size="55.0" fill="#525252" transform="matrix(1.00, 0.00, -0.00, -1.00, 163.7, 419.4)">u</text><text xml:space="preserve" font-family="GillSans-Light,Gill Sans" font-size="55.0" fill="#525252" transform="matrix(1.00, 0.00, -0.00, -1.00, 190.7, 419.4)">b</text><text xml:space="preserve" font-family="GillSans-Light,Gill Sans" font-size="55.0" fill="#525252" transform="matrix(1.00, 0.00, -0.00, -1.00, 218.7, 419.4)">ā</text><text xml:space="preserve" font-family="GillSans-Light,Gill Sans" font-size="55.0" fill="#525252" transform="matrix(1.00, 0.00, -0.00, -1.00, 242.2, 419.4)">z</text><text xml:space="preserve" font-family="GillSans-Light,Gill Sans" font-size="55.0" fill="#525252" transform="matrix(1.00, 0.00, -0.00, -1.00, 263.2, 419.4)">e</text><text xml:space="preserve" font-family="GillSans-Light,Gill Sans" font-size="55.0" fill="#525252" transform="matrix(1.00, 0.00, -0.00, -1.00, 289.5, 419.4)"> </text><text xml:space="preserve" font-family="GillSans-Light,Gill Sans" font-size="55.0" fill="#525252" transform="matrix(1.00, 0.00, -0.00, -1.00, 304.8, 419.4)">s</text><text xml:space="preserve" font-family="GillSans-Light,Gill Sans" font-size="55.0" fill="#525252" transform="matrix(1.00, 0.00, -0.00, -1.00, 324.3, 419.4)">t</text><text xml:space="preserve" font-family="GillSans-Light,Gill Sans" font-size="55.0" fill="#525252" transform="matrix(1.00, 0.00, -0.00, -1.00, 340.8, 419.4)">a</text><text xml:space="preserve" font-family="GillSans-Light,Gill Sans" font-size="55.0" fill="#525252" transform="matrix(1.00, 0.00, -0.00, -1.00, 364.3, 419.4)">r</text><text xml:space="preserve" font-family="GillSans-Light,Gill Sans" font-size="55.0" fill="#525252" transform="matrix(1.00, 0.00, -0.00, -1.00, 384.0, 419.4)">p</text><text xml:space="preserve" font-family="GillSans-Light,Gill Sans" font-size="55.0" fill="#525252" transform="matrix(1.00, 0.00, -0.00, -1.00, 412.0, 419.4)"> </text><text xml:space="preserve" font-family="GillSans-Light,Gill Sans" font-size="55.0" fill="#525252" transform="matrix(1.00, 0.00, -0.00, -1.00, 427.3, 419.4)">2</text><text xml:space="preserve" font-family="GillSans-Light,Gill Sans" font-size="55.0" fill="#525252" transform="matrix(1.00, 0.00, -0.00, -1.00, 454.8, 419.4)">0</text><text xml:space="preserve" font-family="GillSans-Light,Gill Sans" font-size="55.0" fill="#525252" transform="matrix(1.00, 0.00, -0.00, -1.00, 482.3, 419.4)">1</text><text xml:space="preserve" font-family="GillSans-Light,Gill Sans" font-size="55.0" fill="#525252" transform="matrix(1.00, 0.00, -0.00, -1.00, 509.8, 419.4)">0</text><text xml:space="preserve" font-family="GillSans-Light,Gill Sans" font-size="55.0" fill="#525252" transform="matrix(1.00, 0.00, -0.00, -1.00, 537.3, 419.4)">.</text><text xml:space="preserve" font-family="GillSans-Light,Gill Sans" font-size="55.0" fill="#525252" transform="matrix(1.00, 0.00, -0.00, -1.00, 547.0, 419.4)">0</text><text xml:space="preserve" font-family="GillSans-Light,Gill Sans" font-size="55.0" fill="#525252" transform="matrix(1.00, 0.00, -0.00, -1.00, 574.5, 419.4)">1</text><text xml:space="preserve" font-family="GillSans-Light,Gill Sans" font-size="55.0" fill="#525252" transform="matrix(1.00, 0.00, -0.00, -1.00, 602.0, 419.4)">.</text><text xml:space="preserve" font-family="GillSans-Light,Gill Sans" font-size="55.0" fill="#525252" transform="matrix(1.00, 0.00, -0.00, -1.00, 611.7, 419.4)">0</text><text xml:space="preserve" font-family="GillSans-Light,Gill Sans" font-size="55.0" fill="#525252" transform="matrix(1.00, 0.00, -0.00, -1.00, 639.2, 419.4)">1</text><text xml:space="preserve" font-family="GillSans-Light,Gill Sans" font-size="55.0" fill="#525252" transform="matrix(1.00, 0.00, -0.00, -1.00, 666.7, 419.4)">.</text><text xml:space="preserve" font-family="GillSans-Light,Gill Sans" font-size="55.0" fill="#525252" transform="matrix(1.00, 0.00, -0.00, -1.00, 672.0, 419.4)"> </text><text xml:space="preserve" font-family="GillSans-Light,Gill Sans" font-size="55.0" fill="#525252" transform="matrix(1.00, 0.00, -0.00, -1.00, 687.3, 419.4)">u</text><text xml:space="preserve" font-family="GillSans-Light,Gill Sans" font-size="55.0" fill="#525252" transform="matrix(1.00, 0.00, -0.00, -1.00, 714.3, 419.4)">n</text><text xml:space="preserve" font-family="GillSans-Light,Gill Sans" font-size="55.0" fill="#525252" transform="matrix(1.00, 0.00, -0.00, -1.00, 741.2, 419.4)"> </text><text xml:space="preserve" font-family="GillSans-Light,Gill Sans" font-size="55.0" fill="#525252" transform="matrix(1.00, 0.00, -0.00, -1.00, 756.5, 419.4)">s</text><text xml:space="preserve" font-family="GillSans-Light,Gill Sans" font-size="55.0" fill="#525252" transform="matrix(1.00, 0.00, -0.00, -1.00, 776.0, 419.4)">y</text><text xml:space="preserve" font-family="GillSans-Light,Gill Sans" font-size="55.0" fill="#525252" transform="matrix(1.00, 0.00, -0.00, -1.00, 798.9, 419.4)">s</text><text xml:space="preserve" font-family="GillSans-Light,Gill Sans" font-size="55.0" fill="#525252" transform="matrix(1.00, 0.00, -0.00, -1.00, 818.4, 419.4)">d</text><text xml:space="preserve" font-family="GillSans-Light,Gill Sans" font-size="55.0" fill="#525252" transform="matrix(1.00, 0.00, -0.00, -1.00, 846.4, 419.4)">a</text><text xml:space="preserve" font-family="GillSans-Light,Gill Sans" font-size="55.0" fill="#525252" transform="matrix(1.00, 0.00, -0.00, -1.00, 869.9, 419.4)">t</text><text xml:space="preserve" font-family="GillSans-Light,Gill Sans" font-size="55.0" fill="#525252" transform="matrix(1.00, 0.00, -0.00, -1.00, 886.4, 419.4)">e</text><text xml:space="preserve" font-family="GillSans-Light,Gill Sans" font-size="55.0" fill="#525252" transform="matrix(1.00, 0.00, -0.00, -1.00, 912.8, 419.4)">?</text></g></svg>