<?xml version="1.0" encoding="UTF-8" standalone="no"?><svg xmlns="http://www.w3.org/2000/svg" xmlns:xlink="http://www.w3.org/1999/xlink" clip-rule="evenodd" stroke-miterlimit="10" viewBox="0 0 1024 768"><desc>SVG generated by Keynote</desc><defs></defs><g transform="matrix(1.00, 0.00, -0.00, -1.00, 0.0, 768.0)"><g><clipPath id="clip0x7fe3a1195b50"><path d="M 0.0 768.0 L 1024.0 768.0 L 1024.0 0.0 L 0.0 0.0 Z M 0.0 768.0 "></path></clipPath><g clip-path="url(#clip0x7fe3a1195b50)"><image xlink:href="../../BE03AB4A-F5E0-4685-80C7-20DCBC62631F/assets/574DCE55A4CF432400CBDDDE1DFDFC9B.jpeg" width="2048.00" height="1536.00" transform="matrix(0.50, 0.00, -0.00, -0.50, 0.0, 768.0)"></image></g></g><text xml:space="preserve" font-family="GillSans-Light,Gill Sans" font-size="55.0" fill="#525252" transform="matrix(1.00, 0.00, -0.00, -1.00, 32.1, 501.4)">J</text><text xml:space="preserve" font-family="GillSans-Light,Gill Sans" font-size="55.0" fill="#525252" transform="matrix(1.00, 0.00, -0.00, -1.00, 43.5, 501.4)"> </text><text xml:space="preserve" font-family="GillSans-Light,Gill Sans" font-size="55.0" fill="#525252" transform="matrix(1.00, 0.00, -0.00, -1.00, 58.8, 501.4)">:</text><text xml:space="preserve" font-family="GillSans-Light,Gill Sans" font-size="55.0" fill="#525252" transform="matrix(1.00, 0.00, -0.00, -1.00, 64.1, 501.4)"> </text><text xml:space="preserve" font-family="GillSans-Light,Gill Sans" font-size="55.0" fill="#525252" transform="matrix(1.00, 0.00, -0.00, -1.00, 71.7, 501.4)">V</text><text xml:space="preserve" font-family="GillSans-Light,Gill Sans" font-size="55.0" fill="#525252" transform="matrix(1.00, 0.00, -0.00, -1.00, 104.4, 501.4)">i</text><text xml:space="preserve" font-family="GillSans-Light,Gill Sans" font-size="55.0" fill="#525252" transform="matrix(1.00, 0.00, -0.00, -1.00, 114.7, 501.4)">s</text><text xml:space="preserve" font-family="GillSans-Light,Gill Sans" font-size="55.0" fill="#525252" transform="matrix(1.00, 0.00, -0.00, -1.00, 134.2, 501.4)">v</text><text xml:space="preserve" font-family="GillSans-Light,Gill Sans" font-size="55.0" fill="#525252" transform="matrix(1.00, 0.00, -0.00, -1.00, 157.6, 501.4)">a</text><text xml:space="preserve" font-family="GillSans-Light,Gill Sans" font-size="55.0" fill="#525252" transform="matrix(1.00, 0.00, -0.00, -1.00, 181.1, 501.4)">i</text><text xml:space="preserve" font-family="GillSans-Light,Gill Sans" font-size="55.0" fill="#525252" transform="matrix(1.00, 0.00, -0.00, -1.00, 191.4, 501.4)">r</text><text xml:space="preserve" font-family="GillSans-Light,Gill Sans" font-size="55.0" fill="#525252" transform="matrix(1.00, 0.00, -0.00, -1.00, 209.7, 501.4)">ā</text><text xml:space="preserve" font-family="GillSans-Light,Gill Sans" font-size="55.0" fill="#525252" transform="matrix(1.00, 0.00, -0.00, -1.00, 233.2, 501.4)">k</text><text xml:space="preserve" font-family="GillSans-Light,Gill Sans" font-size="55.0" fill="#525252" transform="matrix(1.00, 0.00, -0.00, -1.00, 256.7, 501.4)"> </text><text xml:space="preserve" font-family="GillSans-Light,Gill Sans" font-size="55.0" fill="#525252" transform="matrix(1.00, 0.00, -0.00, -1.00, 271.9, 501.4)">k</text><text xml:space="preserve" font-family="GillSans-Light,Gill Sans" font-size="55.0" fill="#525252" transform="matrix(1.00, 0.00, -0.00, -1.00, 295.4, 501.4)">ļ</text><text xml:space="preserve" font-family="GillSans-Light,Gill Sans" font-size="55.0" fill="#525252" transform="matrix(1.00, 0.00, -0.00, -1.00, 305.7, 501.4)">ū</text><text xml:space="preserve" font-family="GillSans-Light,Gill Sans" font-size="55.0" fill="#525252" transform="matrix(1.00, 0.00, -0.00, -1.00, 332.7, 501.4)">d</text><text xml:space="preserve" font-family="GillSans-Light,Gill Sans" font-size="55.0" fill="#525252" transform="matrix(1.00, 0.00, -0.00, -1.00, 360.7, 501.4)">a</text><text xml:space="preserve" font-family="GillSans-Light,Gill Sans" font-size="55.0" fill="#525252" transform="matrix(1.00, 0.00, -0.00, -1.00, 384.2, 501.4)">s</text><text xml:space="preserve" font-family="GillSans-Light,Gill Sans" font-size="55.0" fill="#525252" transform="matrix(1.00, 0.00, -0.00, -1.00, 403.7, 501.4)"> </text><text xml:space="preserve" font-family="GillSans-Light,Gill Sans" font-size="55.0" fill="#525252" transform="matrix(1.00, 0.00, -0.00, -1.00, 418.9, 501.4)">u</text><text xml:space="preserve" font-family="GillSans-Light,Gill Sans" font-size="55.0" fill="#525252" transform="matrix(1.00, 0.00, -0.00, -1.00, 445.9, 501.4)">z</text><text xml:space="preserve" font-family="GillSans-Light,Gill Sans" font-size="55.0" fill="#525252" transform="matrix(1.00, 0.00, -0.00, -1.00, 467.7, 501.4)">t</text><text xml:space="preserve" font-family="GillSans-Light,Gill Sans" font-size="55.0" fill="#525252" transform="matrix(1.00, 0.00, -0.00, -1.00, 484.3, 501.4)">u</text><text xml:space="preserve" font-family="GillSans-Light,Gill Sans" font-size="55.0" fill="#525252" transform="matrix(1.00, 0.00, -0.00, -1.00, 511.2, 501.4)">r</text><text xml:space="preserve" font-family="GillSans-Light,Gill Sans" font-size="55.0" fill="#525252" transform="matrix(1.00, 0.00, -0.00, -1.00, 529.6, 501.4)">ē</text><text xml:space="preserve" font-family="GillSans-Light,Gill Sans" font-size="55.0" fill="#525252" transform="matrix(1.00, 0.00, -0.00, -1.00, 555.9, 501.4)">t</text><text xml:space="preserve" font-family="GillSans-Light,Gill Sans" font-size="55.0" fill="#525252" transform="matrix(1.00, 0.00, -0.00, -1.00, 572.5, 501.4)">ā</text><text xml:space="preserve" font-family="GillSans-Light,Gill Sans" font-size="55.0" fill="#525252" transform="matrix(1.00, 0.00, -0.00, -1.00, 596.0, 501.4)">j</text><text xml:space="preserve" font-family="GillSans-Light,Gill Sans" font-size="55.0" fill="#525252" transform="matrix(1.00, 0.00, -0.00, -1.00, 606.3, 501.4)">i</text><text xml:space="preserve" font-family="GillSans-Light,Gill Sans" font-size="55.0" fill="#525252" transform="matrix(1.00, 0.00, -0.00, -1.00, 616.6, 501.4)">e</text><text xml:space="preserve" font-family="GillSans-Light,Gill Sans" font-size="55.0" fill="#525252" transform="matrix(1.00, 0.00, -0.00, -1.00, 643.0, 501.4)">m</text><text xml:space="preserve" font-family="GillSans-Light,Gill Sans" font-size="55.0" fill="#525252" transform="matrix(1.00, 0.00, -0.00, -1.00, 685.4, 501.4)">/</text><text xml:space="preserve" font-family="GillSans-Light,Gill Sans" font-size="55.0" fill="#525252" transform="matrix(1.00, 0.00, -0.00, -1.00, 700.8, 501.4)">i</text><text xml:space="preserve" font-family="GillSans-Light,Gill Sans" font-size="55.0" fill="#525252" transform="matrix(1.00, 0.00, -0.00, -1.00, 711.1, 501.4)">z</text><text xml:space="preserve" font-family="GillSans-Light,Gill Sans" font-size="55.0" fill="#525252" transform="matrix(1.00, 0.00, -0.00, -1.00, 732.9, 501.4)">s</text><text xml:space="preserve" font-family="GillSans-Light,Gill Sans" font-size="55.0" fill="#525252" transform="matrix(1.00, 0.00, -0.00, -1.00, 752.4, 501.4)">t</text><text xml:space="preserve" font-family="GillSans-Light,Gill Sans" font-size="55.0" fill="#525252" transform="matrix(1.00, 0.00, -0.00, -1.00, 769.0, 501.4)">r</text><text xml:space="preserve" font-family="GillSans-Light,Gill Sans" font-size="55.0" fill="#525252" transform="matrix(1.00, 0.00, -0.00, -1.00, 787.3, 501.4)">ā</text><text xml:space="preserve" font-family="GillSans-Light,Gill Sans" font-size="55.0" fill="#525252" transform="matrix(1.00, 0.00, -0.00, -1.00, 810.8, 501.4)">d</text><text xml:space="preserve" font-family="GillSans-Light,Gill Sans" font-size="55.0" fill="#525252" transform="matrix(1.00, 0.00, -0.00, -1.00, 838.8, 501.4)">ā</text><text xml:space="preserve" font-family="GillSans-Light,Gill Sans" font-size="55.0" fill="#525252" transform="matrix(1.00, 0.00, -0.00, -1.00, 862.2, 501.4)">t</text><text xml:space="preserve" font-family="GillSans-Light,Gill Sans" font-size="55.0" fill="#525252" transform="matrix(1.00, 0.00, -0.00, -1.00, 878.8, 501.4)">ā</text><text xml:space="preserve" font-family="GillSans-Light,Gill Sans" font-size="55.0" fill="#525252" transform="matrix(1.00, 0.00, -0.00, -1.00, 902.3, 501.4)">j</text><text xml:space="preserve" font-family="GillSans-Light,Gill Sans" font-size="55.0" fill="#525252" transform="matrix(1.00, 0.00, -0.00, -1.00, 912.6, 501.4)">i</text><text xml:space="preserve" font-family="GillSans-Light,Gill Sans" font-size="55.0" fill="#525252" transform="matrix(1.00, 0.00, -0.00, -1.00, 923.0, 501.4)">e</text><text xml:space="preserve" font-family="GillSans-Light,Gill Sans" font-size="55.0" fill="#525252" transform="matrix(1.00, 0.00, -0.00, -1.00, 949.3, 501.4)">m</text><text xml:space="preserve" font-family="GillSans-Light,Gill Sans" font-size="55.0" fill="#525252" transform="matrix(1.00, 0.00, -0.00, -1.00, 991.7, 501.4)"> </text><text xml:space="preserve" font-family="GillSans-Light,Gill Sans" font-size="55.0" fill="#525252" transform="matrix(1.00, 0.00, -0.00, -1.00, 133.4, 439.4)">p</text><text xml:space="preserve" font-family="GillSans-Light,Gill Sans" font-size="55.0" fill="#525252" transform="matrix(1.00, 0.00, -0.00, -1.00, 161.4, 439.4)">i</text><text xml:space="preserve" font-family="GillSans-Light,Gill Sans" font-size="55.0" fill="#525252" transform="matrix(1.00, 0.00, -0.00, -1.00, 171.8, 439.4)">e</text><text xml:space="preserve" font-family="GillSans-Light,Gill Sans" font-size="55.0" fill="#525252" transform="matrix(1.00, 0.00, -0.00, -1.00, 198.1, 439.4)">s</text><text xml:space="preserve" font-family="GillSans-Light,Gill Sans" font-size="55.0" fill="#525252" transform="matrix(1.00, 0.00, -0.00, -1.00, 217.6, 439.4)">a</text><text xml:space="preserve" font-family="GillSans-Light,Gill Sans" font-size="55.0" fill="#525252" transform="matrix(1.00, 0.00, -0.00, -1.00, 241.0, 439.4)">k</text><text xml:space="preserve" font-family="GillSans-Light,Gill Sans" font-size="55.0" fill="#525252" transform="matrix(1.00, 0.00, -0.00, -1.00, 264.5, 439.4)">a</text><text xml:space="preserve" font-family="GillSans-Light,Gill Sans" font-size="55.0" fill="#525252" transform="matrix(1.00, 0.00, -0.00, -1.00, 288.0, 439.4)"> </text><text xml:space="preserve" font-family="GillSans-Light,Gill Sans" font-size="55.0" fill="#525252" transform="matrix(1.00, 0.00, -0.00, -1.00, 299.9, 439.4)">A</text><text xml:space="preserve" font-family="GillSans-Light,Gill Sans" font-size="55.0" fill="#525252" transform="matrix(1.00, 0.00, -0.00, -1.00, 336.6, 439.4)">i</text><text xml:space="preserve" font-family="GillSans-Light,Gill Sans" font-size="55.0" fill="#525252" transform="matrix(1.00, 0.00, -0.00, -1.00, 347.0, 439.4)">j</text><text xml:space="preserve" font-family="GillSans-Light,Gill Sans" font-size="55.0" fill="#525252" transform="matrix(1.00, 0.00, -0.00, -1.00, 357.3, 439.4)">a</text><text xml:space="preserve" font-family="GillSans-Light,Gill Sans" font-size="55.0" fill="#525252" transform="matrix(1.00, 0.00, -0.00, -1.00, 380.8, 439.4)">.</text><text xml:space="preserve" font-family="GillSans-Light,Gill Sans" font-size="55.0" fill="#525252" transform="matrix(1.00, 0.00, -0.00, -1.00, 386.1, 439.4)"> </text><text xml:space="preserve" font-family="GillSans-Light,Gill Sans" font-size="55.0" fill="#525252" transform="matrix(1.00, 0.00, -0.00, -1.00, 401.3, 439.4)">B</text><text xml:space="preserve" font-family="GillSans-Light,Gill Sans" font-size="55.0" fill="#525252" transform="matrix(1.00, 0.00, -0.00, -1.00, 430.5, 439.4)">e</text><text xml:space="preserve" font-family="GillSans-Light,Gill Sans" font-size="55.0" fill="#525252" transform="matrix(1.00, 0.00, -0.00, -1.00, 456.9, 439.4)">t</text><text xml:space="preserve" font-family="GillSans-Light,Gill Sans" font-size="55.0" fill="#525252" transform="matrix(1.00, 0.00, -0.00, -1.00, 473.4, 439.4)"> </text><text xml:space="preserve" font-family="GillSans-Light,Gill Sans" font-size="55.0" fill="#525252" transform="matrix(1.00, 0.00, -0.00, -1.00, 488.7, 439.4)">k</text><text xml:space="preserve" font-family="GillSans-Light,Gill Sans" font-size="55.0" fill="#525252" transform="matrix(1.00, 0.00, -0.00, -1.00, 512.2, 439.4)">u</text><text xml:space="preserve" font-family="GillSans-Light,Gill Sans" font-size="55.0" fill="#525252" transform="matrix(1.00, 0.00, -0.00, -1.00, 539.2, 439.4)">r</text><text xml:space="preserve" font-family="GillSans-Light,Gill Sans" font-size="55.0" fill="#525252" transform="matrix(1.00, 0.00, -0.00, -1.00, 557.5, 439.4)">š</text><text xml:space="preserve" font-family="GillSans-Light,Gill Sans" font-size="55.0" fill="#525252" transform="matrix(1.00, 0.00, -0.00, -1.00, 576.9, 439.4)"> </text><text xml:space="preserve" font-family="GillSans-Light,Gill Sans" font-size="55.0" fill="#525252" transform="matrix(1.00, 0.00, -0.00, -1.00, 592.2, 439.4)">i</text><text xml:space="preserve" font-family="GillSans-Light,Gill Sans" font-size="55.0" fill="#525252" transform="matrix(1.00, 0.00, -0.00, -1.00, 602.5, 439.4)">r</text><text xml:space="preserve" font-family="GillSans-Light,Gill Sans" font-size="55.0" fill="#525252" transform="matrix(1.00, 0.00, -0.00, -1.00, 620.9, 439.4)"> </text><text xml:space="preserve" font-family="GillSans-Light,Gill Sans" font-size="55.0" fill="#525252" transform="matrix(1.00, 0.00, -0.00, -1.00, 636.1, 439.4)">o</text><text xml:space="preserve" font-family="GillSans-Light,Gill Sans" font-size="55.0" fill="#525252" transform="matrix(1.00, 0.00, -0.00, -1.00, 665.9, 439.4)">t</text><text xml:space="preserve" font-family="GillSans-Light,Gill Sans" font-size="55.0" fill="#525252" transform="matrix(1.00, 0.00, -0.00, -1.00, 682.5, 439.4)">r</text><text xml:space="preserve" font-family="GillSans-Light,Gill Sans" font-size="55.0" fill="#525252" transform="matrix(1.00, 0.00, -0.00, -1.00, 702.2, 439.4)">a</text><text xml:space="preserve" font-family="GillSans-Light,Gill Sans" font-size="55.0" fill="#525252" transform="matrix(1.00, 0.00, -0.00, -1.00, 725.7, 439.4)">j</text><text xml:space="preserve" font-family="GillSans-Light,Gill Sans" font-size="55.0" fill="#525252" transform="matrix(1.00, 0.00, -0.00, -1.00, 736.0, 439.4)">ā</text><text xml:space="preserve" font-family="GillSans-Light,Gill Sans" font-size="55.0" fill="#525252" transform="matrix(1.00, 0.00, -0.00, -1.00, 759.5, 439.4)"> </text><text xml:space="preserve" font-family="GillSans-Light,Gill Sans" font-size="55.0" fill="#525252" transform="matrix(1.00, 0.00, -0.00, -1.00, 774.7, 439.4)">v</text><text xml:space="preserve" font-family="GillSans-Light,Gill Sans" font-size="55.0" fill="#525252" transform="matrix(1.00, 0.00, -0.00, -1.00, 798.2, 439.4)">i</text><text xml:space="preserve" font-family="GillSans-Light,Gill Sans" font-size="55.0" fill="#525252" transform="matrix(1.00, 0.00, -0.00, -1.00, 808.5, 439.4)">e</text><text xml:space="preserve" font-family="GillSans-Light,Gill Sans" font-size="55.0" fill="#525252" transform="matrix(1.00, 0.00, -0.00, -1.00, 834.9, 439.4)">t</text><text xml:space="preserve" font-family="GillSans-Light,Gill Sans" font-size="55.0" fill="#525252" transform="matrix(1.00, 0.00, -0.00, -1.00, 851.5, 439.4)">ā</text><text xml:space="preserve" font-family="GillSans-Light,Gill Sans" font-size="55.0" fill="#525252" transform="matrix(1.00, 0.00, -0.00, -1.00, 875.2, 439.4)">?</text><text xml:space="preserve" font-family="GillSans-SemiBold,Gill Sans" font-weight="bold" font-size="55.0" fill="#525252" transform="matrix(1.00, 0.00, -0.00, -1.00, 237.3, 296.0)">A</text><text xml:space="preserve" font-family="GillSans-SemiBold,Gill Sans" font-weight="bold" font-size="55.0" fill="#525252" transform="matrix(1.00, 0.00, -0.00, -1.00, 292.6, 296.0)">:</text><text xml:space="preserve" font-family="GillSans-SemiBold,Gill Sans" font-weight="bold" font-size="55.0" fill="#525252" transform="matrix(1.00, 0.00, -0.00, -1.00, 318.1, 296.0)">A</text><text xml:space="preserve" font-family="GillSans-SemiBold,Gill Sans" font-weight="bold" font-size="55.0" fill="#525252" transform="matrix(1.00, 0.00, -0.00, -1.00, 358.1, 296.0)">n</text><text xml:space="preserve" font-family="GillSans-SemiBold,Gill Sans" font-weight="bold" font-size="55.0" fill="#525252" transform="matrix(1.00, 0.00, -0.00, -1.00, 387.8, 296.0)">d</text><text xml:space="preserve" font-family="GillSans-SemiBold,Gill Sans" font-weight="bold" font-size="55.0" fill="#525252" transform="matrix(1.00, 0.00, -0.00, -1.00, 418.0, 296.0)">r</text><text xml:space="preserve" font-family="GillSans-SemiBold,Gill Sans" font-weight="bold" font-size="55.0" fill="#525252" transform="matrix(1.00, 0.00, -0.00, -1.00, 440.9, 296.0)">i</text><text xml:space="preserve" font-family="GillSans-SemiBold,Gill Sans" font-weight="bold" font-size="55.0" fill="#525252" transform="matrix(1.00, 0.00, -0.00, -1.00, 454.6, 296.0)">s</text><text xml:space="preserve" font-family="GillSans-SemiBold,Gill Sans" font-weight="bold" font-size="55.0" fill="#525252" transform="matrix(1.00, 0.00, -0.00, -1.00, 492.1, 296.0)">B</text><text xml:space="preserve" font-family="GillSans-SemiBold,Gill Sans" font-weight="bold" font-size="55.0" fill="#525252" transform="matrix(1.00, 0.00, -0.00, -1.00, 526.6, 296.0)">u</text><text xml:space="preserve" font-family="GillSans-SemiBold,Gill Sans" font-weight="bold" font-size="55.0" fill="#525252" transform="matrix(1.00, 0.00, -0.00, -1.00, 556.3, 296.0)">h</text><text xml:space="preserve" font-family="GillSans-SemiBold,Gill Sans" font-weight="bold" font-size="55.0" fill="#525252" transform="matrix(1.00, 0.00, -0.00, -1.00, 586.1, 296.0)">a</text><text xml:space="preserve" font-family="GillSans-SemiBold,Gill Sans" font-weight="bold" font-size="55.0" fill="#525252" transform="matrix(1.00, 0.00, -0.00, -1.00, 612.6, 296.0)">n</text><text xml:space="preserve" font-family="GillSans-SemiBold,Gill Sans" font-weight="bold" font-size="55.0" fill="#525252" transform="matrix(1.00, 0.00, -0.00, -1.00, 642.4, 296.0)">o</text><text xml:space="preserve" font-family="GillSans-SemiBold,Gill Sans" font-weight="bold" font-size="55.0" fill="#525252" transform="matrix(1.00, 0.00, -0.00, -1.00, 673.9, 296.0)">v</text><text xml:space="preserve" font-family="GillSans-SemiBold,Gill Sans" font-weight="bold" font-size="55.0" fill="#525252" transform="matrix(1.00, 0.00, -0.00, -1.00, 700.1, 296.0)">s</text><text xml:space="preserve" font-family="GillSans-SemiBold,Gill Sans" font-weight="bold" font-size="55.0" fill="#525252" transform="matrix(1.00, 0.00, -0.00, -1.00, 722.4, 296.0)">k</text><text xml:space="preserve" font-family="GillSans-SemiBold,Gill Sans" font-weight="bold" font-size="55.0" fill="#525252" transform="matrix(1.00, 0.00, -0.00, -1.00, 750.9, 296.0)">i</text><text xml:space="preserve" font-family="GillSans-SemiBold,Gill Sans" font-weight="bold" font-size="55.0" fill="#525252" transform="matrix(1.00, 0.00, -0.00, -1.00, 764.5, 296.0)">s</text><text xml:space="preserve" font-family="GillSans-SemiBold,Gill Sans" font-weight="bold" font-size="55.0" fill="#525252" transform="matrix(1.00, 0.00, -0.00, -1.00, 162.8, 228.9)">(</text><text xml:space="preserve" font-family="GillSans-SemiBold,Gill Sans" font-weight="bold" font-size="55.0" fill="#525252" transform="matrix(1.00, 0.00, -0.00, -1.00, 182.5, 228.9)">~</text><text xml:space="preserve" font-family="GillSans-SemiBold,Gill Sans" font-weight="bold" font-size="55.0" fill="#525252" transform="matrix(1.00, 0.00, -0.00, -1.00, 214.6, 228.9)">2</text><text xml:space="preserve" font-family="GillSans-SemiBold,Gill Sans" font-weight="bold" font-size="55.0" fill="#525252" transform="matrix(1.00, 0.00, -0.00, -1.00, 243.6, 228.9)">9</text><text xml:space="preserve" font-family="GillSans-SemiBold,Gill Sans" font-weight="bold" font-size="55.0" fill="#525252" transform="matrix(1.00, 0.00, -0.00, -1.00, 272.6, 228.9)">%</text><text xml:space="preserve" font-family="GillSans-SemiBold,Gill Sans" font-weight="bold" font-size="55.0" fill="#525252" transform="matrix(1.00, 0.00, -0.00, -1.00, 326.4, 228.9)">n</text><text xml:space="preserve" font-family="GillSans-SemiBold,Gill Sans" font-weight="bold" font-size="55.0" fill="#525252" transform="matrix(1.00, 0.00, -0.00, -1.00, 356.2, 228.9)">o</text><text xml:space="preserve" font-family="GillSans-SemiBold,Gill Sans" font-weight="bold" font-size="55.0" fill="#525252" transform="matrix(1.00, 0.00, -0.00, -1.00, 403.0, 228.9)">t</text><text xml:space="preserve" font-family="LucidaGrande-Bold,Lucida Grande" font-weight="bold" font-size="55.0" fill="#525252" transform="matrix(1.00, 0.00, -0.00, -1.00, 423.3, 228.9)">ā</text><text xml:space="preserve" font-family="GillSans-SemiBold,Gill Sans" font-weight="bold" font-size="55.0" fill="#525252" transform="matrix(1.00, 0.00, -0.00, -1.00, 455.6, 228.9)">,</text><text xml:space="preserve" font-family="GillSans-SemiBold,Gill Sans" font-weight="bold" font-size="55.0" fill="#525252" transform="matrix(1.00, 0.00, -0.00, -1.00, 484.4, 228.9)">k</text><text xml:space="preserve" font-family="GillSans-SemiBold,Gill Sans" font-weight="bold" font-size="55.0" fill="#525252" transform="matrix(1.00, 0.00, -0.00, -1.00, 512.9, 228.9)">o</text><text xml:space="preserve" font-family="GillSans-SemiBold,Gill Sans" font-weight="bold" font-size="55.0" fill="#525252" transform="matrix(1.00, 0.00, -0.00, -1.00, 559.7, 228.9)">p</text><text xml:space="preserve" font-family="GillSans-SemiBold,Gill Sans" font-weight="bold" font-size="55.0" fill="#525252" transform="matrix(1.00, 0.00, -0.00, -1.00, 589.9, 228.9)">i</text><text xml:space="preserve" font-family="GillSans-SemiBold,Gill Sans" font-weight="bold" font-size="55.0" fill="#525252" transform="matrix(1.00, 0.00, -0.00, -1.00, 603.5, 228.9)">e</text><text xml:space="preserve" font-family="GillSans-SemiBold,Gill Sans" font-weight="bold" font-size="55.0" fill="#525252" transform="matrix(1.00, 0.00, -0.00, -1.00, 631.9, 228.9)">s</text><text xml:space="preserve" font-family="GillSans-SemiBold,Gill Sans" font-weight="bold" font-size="55.0" fill="#525252" transform="matrix(1.00, 0.00, -0.00, -1.00, 654.1, 228.9)">a</text><text xml:space="preserve" font-family="GillSans-SemiBold,Gill Sans" font-weight="bold" font-size="55.0" fill="#525252" transform="matrix(1.00, 0.00, -0.00, -1.00, 680.7, 228.9)">k</text><text xml:space="preserve" font-family="GillSans-SemiBold,Gill Sans" font-weight="bold" font-size="55.0" fill="#525252" transform="matrix(1.00, 0.00, -0.00, -1.00, 709.2, 228.9)">a</text><text xml:space="preserve" font-family="GillSans-SemiBold,Gill Sans" font-weight="bold" font-size="55.0" fill="#525252" transform="matrix(1.00, 0.00, -0.00, -1.00, 747.7, 228.9)">A</text><text xml:space="preserve" font-family="GillSans-SemiBold,Gill Sans" font-weight="bold" font-size="55.0" fill="#525252" transform="matrix(1.00, 0.00, -0.00, -1.00, 787.7, 228.9)">i</text><text xml:space="preserve" font-family="GillSans-SemiBold,Gill Sans" font-weight="bold" font-size="55.0" fill="#525252" transform="matrix(1.00, 0.00, -0.00, -1.00, 801.3, 228.9)">j</text><text xml:space="preserve" font-family="GillSans-SemiBold,Gill Sans" font-weight="bold" font-size="55.0" fill="#525252" transform="matrix(1.00, 0.00, -0.00, -1.00, 815.0, 228.9)">a</text><text xml:space="preserve" font-family="GillSans-SemiBold,Gill Sans" font-weight="bold" font-size="55.0" fill="#525252" transform="matrix(1.00, 0.00, -0.00, -1.00, 841.5, 228.9)">)</text></g></svg>