<?xml version="1.0" encoding="UTF-8" standalone="no"?><svg xmlns="http://www.w3.org/2000/svg" xmlns:xlink="http://www.w3.org/1999/xlink" clip-rule="evenodd" stroke-miterlimit="10" viewBox="0 0 966 117"><desc>SVG generated by Keynote</desc><defs></defs><g transform="matrix(1.00, 0.00, -0.00, -1.00, 0.0, 117.0)"><text xml:space="preserve" font-family="GillSans-Light,Gill Sans" font-size="55.0" fill="#525252" transform="matrix(1.00, 0.00, -0.00, -1.00, 5.1, 76.4)">J</text><text xml:space="preserve" font-family="GillSans-Light,Gill Sans" font-size="55.0" fill="#525252" transform="matrix(1.00, 0.00, -0.00, -1.00, 16.5, 76.4)"> </text><text xml:space="preserve" font-family="GillSans-Light,Gill Sans" font-size="55.0" fill="#525252" transform="matrix(1.00, 0.00, -0.00, -1.00, 31.8, 76.4)">:</text><text xml:space="preserve" font-family="GillSans-Light,Gill Sans" font-size="55.0" fill="#525252" transform="matrix(1.00, 0.00, -0.00, -1.00, 37.1, 76.4)"> </text><text xml:space="preserve" font-family="GillSans-Light,Gill Sans" font-size="55.0" fill="#525252" transform="matrix(1.00, 0.00, -0.00, -1.00, 44.7, 76.4)">V</text><text xml:space="preserve" font-family="GillSans-Light,Gill Sans" font-size="55.0" fill="#525252" transform="matrix(1.00, 0.00, -0.00, -1.00, 77.4, 76.4)">i</text><text xml:space="preserve" font-family="GillSans-Light,Gill Sans" font-size="55.0" fill="#525252" transform="matrix(1.00, 0.00, -0.00, -1.00, 87.7, 76.4)">s</text><text xml:space="preserve" font-family="GillSans-Light,Gill Sans" font-size="55.0" fill="#525252" transform="matrix(1.00, 0.00, -0.00, -1.00, 107.2, 76.4)">v</text><text xml:space="preserve" font-family="GillSans-Light,Gill Sans" font-size="55.0" fill="#525252" transform="matrix(1.00, 0.00, -0.00, -1.00, 130.6, 76.4)">a</text><text xml:space="preserve" font-family="GillSans-Light,Gill Sans" font-size="55.0" fill="#525252" transform="matrix(1.00, 0.00, -0.00, -1.00, 154.1, 76.4)">i</text><text xml:space="preserve" font-family="GillSans-Light,Gill Sans" font-size="55.0" fill="#525252" transform="matrix(1.00, 0.00, -0.00, -1.00, 164.4, 76.4)">r</text><text xml:space="preserve" font-family="GillSans-Light,Gill Sans" font-size="55.0" fill="#525252" transform="matrix(1.00, 0.00, -0.00, -1.00, 182.7, 76.4)">ā</text><text xml:space="preserve" font-family="GillSans-Light,Gill Sans" font-size="55.0" fill="#525252" transform="matrix(1.00, 0.00, -0.00, -1.00, 206.2, 76.4)">k</text><text xml:space="preserve" font-family="GillSans-Light,Gill Sans" font-size="55.0" fill="#525252" transform="matrix(1.00, 0.00, -0.00, -1.00, 229.7, 76.4)"> </text><text xml:space="preserve" font-family="GillSans-Light,Gill Sans" font-size="55.0" fill="#525252" transform="matrix(1.00, 0.00, -0.00, -1.00, 244.9, 76.4)">k</text><text xml:space="preserve" font-family="GillSans-Light,Gill Sans" font-size="55.0" fill="#525252" transform="matrix(1.00, 0.00, -0.00, -1.00, 268.4, 76.4)">ļ</text><text xml:space="preserve" font-family="GillSans-Light,Gill Sans" font-size="55.0" fill="#525252" transform="matrix(1.00, 0.00, -0.00, -1.00, 278.7, 76.4)">ū</text><text xml:space="preserve" font-family="GillSans-Light,Gill Sans" font-size="55.0" fill="#525252" transform="matrix(1.00, 0.00, -0.00, -1.00, 305.7, 76.4)">d</text><text xml:space="preserve" font-family="GillSans-Light,Gill Sans" font-size="55.0" fill="#525252" transform="matrix(1.00, 0.00, -0.00, -1.00, 333.7, 76.4)">a</text><text xml:space="preserve" font-family="GillSans-Light,Gill Sans" font-size="55.0" fill="#525252" transform="matrix(1.00, 0.00, -0.00, -1.00, 357.2, 76.4)">s</text><text xml:space="preserve" font-family="GillSans-Light,Gill Sans" font-size="55.0" fill="#525252" transform="matrix(1.00, 0.00, -0.00, -1.00, 376.7, 76.4)"> </text><text xml:space="preserve" font-family="GillSans-Light,Gill Sans" font-size="55.0" fill="#525252" transform="matrix(1.00, 0.00, -0.00, -1.00, 391.9, 76.4)">u</text><text xml:space="preserve" font-family="GillSans-Light,Gill Sans" font-size="55.0" fill="#525252" transform="matrix(1.00, 0.00, -0.00, -1.00, 418.9, 76.4)">z</text><text xml:space="preserve" font-family="GillSans-Light,Gill Sans" font-size="55.0" fill="#525252" transform="matrix(1.00, 0.00, -0.00, -1.00, 440.7, 76.4)">t</text><text xml:space="preserve" font-family="GillSans-Light,Gill Sans" font-size="55.0" fill="#525252" transform="matrix(1.00, 0.00, -0.00, -1.00, 457.3, 76.4)">u</text><text xml:space="preserve" font-family="GillSans-Light,Gill Sans" font-size="55.0" fill="#525252" transform="matrix(1.00, 0.00, -0.00, -1.00, 484.2, 76.4)">r</text><text xml:space="preserve" font-family="GillSans-Light,Gill Sans" font-size="55.0" fill="#525252" transform="matrix(1.00, 0.00, -0.00, -1.00, 502.6, 76.4)">ē</text><text xml:space="preserve" font-family="GillSans-Light,Gill Sans" font-size="55.0" fill="#525252" transform="matrix(1.00, 0.00, -0.00, -1.00, 528.9, 76.4)">t</text><text xml:space="preserve" font-family="GillSans-Light,Gill Sans" font-size="55.0" fill="#525252" transform="matrix(1.00, 0.00, -0.00, -1.00, 545.5, 76.4)">ā</text><text xml:space="preserve" font-family="GillSans-Light,Gill Sans" font-size="55.0" fill="#525252" transform="matrix(1.00, 0.00, -0.00, -1.00, 569.0, 76.4)">j</text><text xml:space="preserve" font-family="GillSans-Light,Gill Sans" font-size="55.0" fill="#525252" transform="matrix(1.00, 0.00, -0.00, -1.00, 579.3, 76.4)">i</text><text xml:space="preserve" font-family="GillSans-Light,Gill Sans" font-size="55.0" fill="#525252" transform="matrix(1.00, 0.00, -0.00, -1.00, 589.6, 76.4)">e</text><text xml:space="preserve" font-family="GillSans-Light,Gill Sans" font-size="55.0" fill="#525252" transform="matrix(1.00, 0.00, -0.00, -1.00, 616.0, 76.4)">m</text><text xml:space="preserve" font-family="GillSans-Light,Gill Sans" font-size="55.0" fill="#525252" transform="matrix(1.00, 0.00, -0.00, -1.00, 658.4, 76.4)">/</text><text xml:space="preserve" font-family="GillSans-Light,Gill Sans" font-size="55.0" fill="#525252" transform="matrix(1.00, 0.00, -0.00, -1.00, 673.8, 76.4)">i</text><text xml:space="preserve" font-family="GillSans-Light,Gill Sans" font-size="55.0" fill="#525252" transform="matrix(1.00, 0.00, -0.00, -1.00, 684.1, 76.4)">z</text><text xml:space="preserve" font-family="GillSans-Light,Gill Sans" font-size="55.0" fill="#525252" transform="matrix(1.00, 0.00, -0.00, -1.00, 705.9, 76.4)">s</text><text xml:space="preserve" font-family="GillSans-Light,Gill Sans" font-size="55.0" fill="#525252" transform="matrix(1.00, 0.00, -0.00, -1.00, 725.4, 76.4)">t</text><text xml:space="preserve" font-family="GillSans-Light,Gill Sans" font-size="55.0" fill="#525252" transform="matrix(1.00, 0.00, -0.00, -1.00, 742.0, 76.4)">r</text><text xml:space="preserve" font-family="GillSans-Light,Gill Sans" font-size="55.0" fill="#525252" transform="matrix(1.00, 0.00, -0.00, -1.00, 760.3, 76.4)">ā</text><text xml:space="preserve" font-family="GillSans-Light,Gill Sans" font-size="55.0" fill="#525252" transform="matrix(1.00, 0.00, -0.00, -1.00, 783.8, 76.4)">d</text><text xml:space="preserve" font-family="GillSans-Light,Gill Sans" font-size="55.0" fill="#525252" transform="matrix(1.00, 0.00, -0.00, -1.00, 811.8, 76.4)">ā</text><text xml:space="preserve" font-family="GillSans-Light,Gill Sans" font-size="55.0" fill="#525252" transform="matrix(1.00, 0.00, -0.00, -1.00, 835.2, 76.4)">t</text><text xml:space="preserve" font-family="GillSans-Light,Gill Sans" font-size="55.0" fill="#525252" transform="matrix(1.00, 0.00, -0.00, -1.00, 851.8, 76.4)">ā</text><text xml:space="preserve" font-family="GillSans-Light,Gill Sans" font-size="55.0" fill="#525252" transform="matrix(1.00, 0.00, -0.00, -1.00, 875.3, 76.4)">j</text><text xml:space="preserve" font-family="GillSans-Light,Gill Sans" font-size="55.0" fill="#525252" transform="matrix(1.00, 0.00, -0.00, -1.00, 885.6, 76.4)">i</text><text xml:space="preserve" font-family="GillSans-Light,Gill Sans" font-size="55.0" fill="#525252" transform="matrix(1.00, 0.00, -0.00, -1.00, 896.0, 76.4)">e</text><text xml:space="preserve" font-family="GillSans-Light,Gill Sans" font-size="55.0" fill="#525252" transform="matrix(1.00, 0.00, -0.00, -1.00, 922.3, 76.4)">m</text><text xml:space="preserve" font-family="GillSans-Light,Gill Sans" font-size="55.0" fill="#525252" transform="matrix(1.00, 0.00, -0.00, -1.00, 964.7, 76.4)"> </text><text xml:space="preserve" font-family="GillSans-Light,Gill Sans" font-size="55.0" fill="#525252" transform="matrix(1.00, 0.00, -0.00, -1.00, 106.4, 14.4)">p</text><text xml:space="preserve" font-family="GillSans-Light,Gill Sans" font-size="55.0" fill="#525252" transform="matrix(1.00, 0.00, -0.00, -1.00, 134.4, 14.4)">i</text><text xml:space="preserve" font-family="GillSans-Light,Gill Sans" font-size="55.0" fill="#525252" transform="matrix(1.00, 0.00, -0.00, -1.00, 144.8, 14.4)">e</text><text xml:space="preserve" font-family="GillSans-Light,Gill Sans" font-size="55.0" fill="#525252" transform="matrix(1.00, 0.00, -0.00, -1.00, 171.1, 14.4)">s</text><text xml:space="preserve" font-family="GillSans-Light,Gill Sans" font-size="55.0" fill="#525252" transform="matrix(1.00, 0.00, -0.00, -1.00, 190.6, 14.4)">a</text><text xml:space="preserve" font-family="GillSans-Light,Gill Sans" font-size="55.0" fill="#525252" transform="matrix(1.00, 0.00, -0.00, -1.00, 214.0, 14.4)">k</text><text xml:space="preserve" font-family="GillSans-Light,Gill Sans" font-size="55.0" fill="#525252" transform="matrix(1.00, 0.00, -0.00, -1.00, 237.5, 14.4)">a</text><text xml:space="preserve" font-family="GillSans-Light,Gill Sans" font-size="55.0" fill="#525252" transform="matrix(1.00, 0.00, -0.00, -1.00, 261.0, 14.4)"> </text><text xml:space="preserve" font-family="GillSans-Light,Gill Sans" font-size="55.0" fill="#525252" transform="matrix(1.00, 0.00, -0.00, -1.00, 272.9, 14.4)">A</text><text xml:space="preserve" font-family="GillSans-Light,Gill Sans" font-size="55.0" fill="#525252" transform="matrix(1.00, 0.00, -0.00, -1.00, 309.6, 14.4)">i</text><text xml:space="preserve" font-family="GillSans-Light,Gill Sans" font-size="55.0" fill="#525252" transform="matrix(1.00, 0.00, -0.00, -1.00, 320.0, 14.4)">j</text><text xml:space="preserve" font-family="GillSans-Light,Gill Sans" font-size="55.0" fill="#525252" transform="matrix(1.00, 0.00, -0.00, -1.00, 330.3, 14.4)">a</text><text xml:space="preserve" font-family="GillSans-Light,Gill Sans" font-size="55.0" fill="#525252" transform="matrix(1.00, 0.00, -0.00, -1.00, 353.8, 14.4)">.</text><text xml:space="preserve" font-family="GillSans-Light,Gill Sans" font-size="55.0" fill="#525252" transform="matrix(1.00, 0.00, -0.00, -1.00, 359.1, 14.4)"> </text><text xml:space="preserve" font-family="GillSans-Light,Gill Sans" font-size="55.0" fill="#525252" transform="matrix(1.00, 0.00, -0.00, -1.00, 374.3, 14.4)">B</text><text xml:space="preserve" font-family="GillSans-Light,Gill Sans" font-size="55.0" fill="#525252" transform="matrix(1.00, 0.00, -0.00, -1.00, 403.5, 14.4)">e</text><text xml:space="preserve" font-family="GillSans-Light,Gill Sans" font-size="55.0" fill="#525252" transform="matrix(1.00, 0.00, -0.00, -1.00, 429.9, 14.4)">t</text><text xml:space="preserve" font-family="GillSans-Light,Gill Sans" font-size="55.0" fill="#525252" transform="matrix(1.00, 0.00, -0.00, -1.00, 446.4, 14.4)"> </text><text xml:space="preserve" font-family="GillSans-Light,Gill Sans" font-size="55.0" fill="#525252" transform="matrix(1.00, 0.00, -0.00, -1.00, 461.7, 14.4)">k</text><text xml:space="preserve" font-family="GillSans-Light,Gill Sans" font-size="55.0" fill="#525252" transform="matrix(1.00, 0.00, -0.00, -1.00, 485.2, 14.4)">u</text><text xml:space="preserve" font-family="GillSans-Light,Gill Sans" font-size="55.0" fill="#525252" transform="matrix(1.00, 0.00, -0.00, -1.00, 512.2, 14.4)">r</text><text xml:space="preserve" font-family="GillSans-Light,Gill Sans" font-size="55.0" fill="#525252" transform="matrix(1.00, 0.00, -0.00, -1.00, 530.5, 14.4)">š</text><text xml:space="preserve" font-family="GillSans-Light,Gill Sans" font-size="55.0" fill="#525252" transform="matrix(1.00, 0.00, -0.00, -1.00, 549.9, 14.4)"> </text><text xml:space="preserve" font-family="GillSans-Light,Gill Sans" font-size="55.0" fill="#525252" transform="matrix(1.00, 0.00, -0.00, -1.00, 565.2, 14.4)">i</text><text xml:space="preserve" font-family="GillSans-Light,Gill Sans" font-size="55.0" fill="#525252" transform="matrix(1.00, 0.00, -0.00, -1.00, 575.5, 14.4)">r</text><text xml:space="preserve" font-family="GillSans-Light,Gill Sans" font-size="55.0" fill="#525252" transform="matrix(1.00, 0.00, -0.00, -1.00, 593.9, 14.4)"> </text><text xml:space="preserve" font-family="GillSans-Light,Gill Sans" font-size="55.0" fill="#525252" transform="matrix(1.00, 0.00, -0.00, -1.00, 609.1, 14.4)">o</text><text xml:space="preserve" font-family="GillSans-Light,Gill Sans" font-size="55.0" fill="#525252" transform="matrix(1.00, 0.00, -0.00, -1.00, 638.9, 14.4)">t</text><text xml:space="preserve" font-family="GillSans-Light,Gill Sans" font-size="55.0" fill="#525252" transform="matrix(1.00, 0.00, -0.00, -1.00, 655.5, 14.4)">r</text><text xml:space="preserve" font-family="GillSans-Light,Gill Sans" font-size="55.0" fill="#525252" transform="matrix(1.00, 0.00, -0.00, -1.00, 675.2, 14.4)">a</text><text xml:space="preserve" font-family="GillSans-Light,Gill Sans" font-size="55.0" fill="#525252" transform="matrix(1.00, 0.00, -0.00, -1.00, 698.7, 14.4)">j</text><text xml:space="preserve" font-family="GillSans-Light,Gill Sans" font-size="55.0" fill="#525252" transform="matrix(1.00, 0.00, -0.00, -1.00, 709.0, 14.4)">ā</text><text xml:space="preserve" font-family="GillSans-Light,Gill Sans" font-size="55.0" fill="#525252" transform="matrix(1.00, 0.00, -0.00, -1.00, 732.5, 14.4)"> </text><text xml:space="preserve" font-family="GillSans-Light,Gill Sans" font-size="55.0" fill="#525252" transform="matrix(1.00, 0.00, -0.00, -1.00, 747.7, 14.4)">v</text><text xml:space="preserve" font-family="GillSans-Light,Gill Sans" font-size="55.0" fill="#525252" transform="matrix(1.00, 0.00, -0.00, -1.00, 771.2, 14.4)">i</text><text xml:space="preserve" font-family="GillSans-Light,Gill Sans" font-size="55.0" fill="#525252" transform="matrix(1.00, 0.00, -0.00, -1.00, 781.5, 14.4)">e</text><text xml:space="preserve" font-family="GillSans-Light,Gill Sans" font-size="55.0" fill="#525252" transform="matrix(1.00, 0.00, -0.00, -1.00, 807.9, 14.4)">t</text><text xml:space="preserve" font-family="GillSans-Light,Gill Sans" font-size="55.0" fill="#525252" transform="matrix(1.00, 0.00, -0.00, -1.00, 824.5, 14.4)">ā</text><text xml:space="preserve" font-family="GillSans-Light,Gill Sans" font-size="55.0" fill="#525252" transform="matrix(1.00, 0.00, -0.00, -1.00, 848.2, 14.4)">?</text></g></svg>