<?xml version="1.0" encoding="UTF-8" standalone="no"?><svg xmlns="http://www.w3.org/2000/svg" xmlns:xlink="http://www.w3.org/1999/xlink" clip-rule="evenodd" stroke-miterlimit="10" viewBox="0 0 1024 768"><desc>SVG generated by Keynote</desc><defs></defs><g transform="matrix(1.00, 0.00, -0.00, -1.00, 0.0, 768.0)"><g><clipPath id="clip0x7fe3a1f3c890"><path d="M 0.0 768.0 L 1024.0 768.0 L 1024.0 0.0 L 0.0 0.0 Z M 0.0 768.0 "></path></clipPath><g clip-path="url(#clip0x7fe3a1f3c890)"><image xlink:href="../../BE03AB4A-F5E0-4685-80C7-20DCBC62631F/assets/574DCE55A4CF432400CBDDDE1DFDFC9B.jpeg" width="2048.00" height="1536.00" transform="matrix(0.50, 0.00, -0.00, -0.50, 0.0, 768.0)"></image></g></g><text xml:space="preserve" font-family="HelveticaNeue-Thin,Helvetica Neue" font-size="55.0" fill="#525252" transform="matrix(1.00, 0.00, -0.00, -1.00, 264.6, 363.0)">S</text><text xml:space="preserve" font-family="HelveticaNeue-Thin,Helvetica Neue" font-size="55.0" fill="#525252" transform="matrix(1.00, 0.00, -0.00, -1.00, 299.3, 363.0)">p</text><text xml:space="preserve" font-family="HelveticaNeue-Thin,Helvetica Neue" font-size="55.0" fill="#525252" transform="matrix(1.00, 0.00, -0.00, -1.00, 329.9, 363.0)">ē</text><text xml:space="preserve" font-family="HelveticaNeue-Thin,Helvetica Neue" font-size="55.0" fill="#525252" transform="matrix(1.00, 0.00, -0.00, -1.00, 358.4, 363.0)">j</text><text xml:space="preserve" font-family="HelveticaNeue-Thin,Helvetica Neue" font-size="55.0" fill="#525252" transform="matrix(1.00, 0.00, -0.00, -1.00, 367.7, 363.0)">a</text><text xml:space="preserve" font-family="HelveticaNeue-Thin,Helvetica Neue" font-size="55.0" fill="#525252" transform="matrix(1.00, 0.00, -0.00, -1.00, 395.2, 363.0)"> </text><text xml:space="preserve" font-family="HelveticaNeue-Thin,Helvetica Neue" font-size="55.0" fill="#525252" transform="matrix(1.00, 0.00, -0.00, -1.00, 410.4, 363.0)">b</text><text xml:space="preserve" font-family="HelveticaNeue-Thin,Helvetica Neue" font-size="55.0" fill="#525252" transform="matrix(1.00, 0.00, -0.00, -1.00, 441.0, 363.0)">ū</text><text xml:space="preserve" font-family="HelveticaNeue-Thin,Helvetica Neue" font-size="55.0" fill="#525252" transform="matrix(1.00, 0.00, -0.00, -1.00, 469.6, 363.0)">t</text><text xml:space="preserve" font-family="HelveticaNeue-Thin,Helvetica Neue" font-size="55.0" fill="#525252" transform="matrix(1.00, 0.00, -0.00, -1.00, 483.8, 363.0)"> </text><text xml:space="preserve" font-family="HelveticaNeue-Thin,Helvetica Neue" font-size="55.0" fill="#525252" transform="matrix(1.00, 0.00, -0.00, -1.00, 499.1, 363.0)">s</text><text xml:space="preserve" font-family="HelveticaNeue-Thin,Helvetica Neue" font-size="55.0" fill="#525252" transform="matrix(1.00, 0.00, -0.00, -1.00, 525.6, 363.0)">p</text><text xml:space="preserve" font-family="HelveticaNeue-Thin,Helvetica Neue" font-size="55.0" fill="#525252" transform="matrix(1.00, 0.00, -0.00, -1.00, 556.1, 363.0)">o</text><text xml:space="preserve" font-family="HelveticaNeue-Thin,Helvetica Neue" font-size="55.0" fill="#525252" transform="matrix(1.00, 0.00, -0.00, -1.00, 585.7, 363.0)">r</text><text xml:space="preserve" font-family="HelveticaNeue-Thin,Helvetica Neue" font-size="55.0" fill="#525252" transform="matrix(1.00, 0.00, -0.00, -1.00, 602.4, 363.0)">t</text><text xml:space="preserve" font-family="HelveticaNeue-Thin,Helvetica Neue" font-size="55.0" fill="#525252" transform="matrix(1.00, 0.00, -0.00, -1.00, 616.6, 363.0)">i</text><text xml:space="preserve" font-family="HelveticaNeue-Thin,Helvetica Neue" font-size="55.0" fill="#525252" transform="matrix(1.00, 0.00, -0.00, -1.00, 625.9, 363.0)">s</text><text xml:space="preserve" font-family="HelveticaNeue-Thin,Helvetica Neue" font-size="55.0" fill="#525252" transform="matrix(1.00, 0.00, -0.00, -1.00, 652.3, 363.0)">k</text><text xml:space="preserve" font-family="HelveticaNeue-Thin,Helvetica Neue" font-size="55.0" fill="#525252" transform="matrix(1.00, 0.00, -0.00, -1.00, 677.8, 363.0)">i</text><text xml:space="preserve" font-family="HelveticaNeue-Thin,Helvetica Neue" font-size="55.0" fill="#525252" transform="matrix(1.00, 0.00, -0.00, -1.00, 687.0, 363.0)">e</text><text xml:space="preserve" font-family="HelveticaNeue-Thin,Helvetica Neue" font-size="55.0" fill="#525252" transform="matrix(1.00, 0.00, -0.00, -1.00, 715.6, 363.0)">m</text><g><clipPath id="clip0x7fe384115920"><path d="M 23.0 225.0 L 715.0 225.0 L 715.0 744.0 L 23.0 744.0 Z M 23.0 225.0 "></path></clipPath><g clip-path="url(#clip0x7fe384115920)"><path d="M 23.0 744.0 L 715.0 744.0 L 715.0 225.0 L 23.0 225.0 Z M 23.0 744.0 " fill="#FEFFFF" fill-opacity="0.00"></path></g></g><g><clipPath id="clip0x7fe384116af0"><path d="M 23.0 225.0 L 715.0 225.0 L 715.0 744.0 L 23.0 744.0 Z M 23.0 225.0 "></path></clipPath><g clip-path="url(#clip0x7fe384116af0)"><image xlink:href="../../4928C1FD-40D1-45DA-87F8-47311A953BFB/assets/525F9E0A102D8450BCFF34C8B452B377.png" width="692.00" height="519.00" transform="matrix(1.00, 0.00, -0.00, -1.00, 23.0, 744.0)"></image></g></g><image xlink:href="../../2198CBDD-C4ED-4CEE-9D69-3F4F05B91592/assets/FE80839DC002D4D6BC614D23FD80B140.png" width="706.00" height="538.00" transform="matrix(1.00, 0.00, -0.00, 1.00, 16.0, 210.0)"></image><g><clipPath id="clip0x7fe384118b70"><path d="M 77.0 64.0 L 769.0 64.0 L 769.0 583.0 L 77.0 583.0 Z M 77.0 64.0 "></path></clipPath><g clip-path="url(#clip0x7fe384118b70)"><path d="M 77.0 583.0 L 769.0 583.0 L 769.0 64.0 L 77.0 64.0 Z M 77.0 583.0 " fill="#FEFFFF" fill-opacity="0.00"></path></g></g><g><clipPath id="clip0x7fe3841193d0"><path d="M 77.0 64.0 L 769.0 64.0 L 769.0 583.0 L 77.0 583.0 Z M 77.0 64.0 "></path></clipPath><g clip-path="url(#clip0x7fe3841193d0)"><image xlink:href="../../4928C1FD-40D1-45DA-87F8-47311A953BFB/assets/BDAB16A002E09FF984FBABE663EF0803.png" width="692.00" height="519.00" transform="matrix(1.00, 0.00, -0.00, -1.00, 77.0, 583.0)"></image></g></g><image xlink:href="../../2198CBDD-C4ED-4CEE-9D69-3F4F05B91592/assets/FE80839DC002D4D6BC614D23FD80B140.png" width="706.00" height="538.00" transform="matrix(1.00, 0.00, -0.00, 1.00, 70.0, 49.0)"></image><g><clipPath id="clip0x7fe38411b4c0"><path d="M 278.0 244.0 L 970.0 244.0 L 970.0 704.0 L 278.0 704.0 Z M 278.0 244.0 "></path></clipPath><g clip-path="url(#clip0x7fe38411b4c0)"><path d="M 278.0 704.0 L 970.0 704.0 L 970.0 244.0 L 278.0 244.0 Z M 278.0 704.0 " fill="#FEFFFF" fill-opacity="0.00"></path></g></g><g><clipPath id="clip0x7fe38411bd30"><path d="M 278.0 244.0 L 970.0 244.0 L 970.0 704.0 L 278.0 704.0 Z M 278.0 244.0 "></path></clipPath><g clip-path="url(#clip0x7fe38411bd30)"><image xlink:href="../../4928C1FD-40D1-45DA-87F8-47311A953BFB/assets/D5F79C011E9BA4288B1502BC26025FF8.png" width="692.00" height="460.00" transform="matrix(1.00, 0.00, -0.00, -1.00, 278.0, 704.0)"></image></g></g><image xlink:href="../../4928C1FD-40D1-45DA-87F8-47311A953BFB/assets/2BFB8BBFABE40843290388FAAAB9395B.png" width="706.00" height="479.00" transform="matrix(1.00, 0.00, -0.00, 1.00, 271.0, 229.0)"></image><g><clipPath id="clip0x7fe3a1f3e700"><path d="M 307.0 29.0 L 999.0 29.0 L 999.0 548.0 L 307.0 548.0 Z M 307.0 29.0 "></path></clipPath><g clip-path="url(#clip0x7fe3a1f3e700)"><path d="M 307.0 548.0 L 999.0 548.0 L 999.0 29.0 L 307.0 29.0 Z M 307.0 548.0 " fill="#FEFFFF" fill-opacity="0.00"></path></g></g><g><clipPath id="clip0x7fe3a1f3f7c0"><path d="M 307.0 29.0 L 999.0 29.0 L 999.0 548.0 L 307.0 548.0 Z M 307.0 29.0 "></path></clipPath><g clip-path="url(#clip0x7fe3a1f3f7c0)"><image xlink:href="../../4928C1FD-40D1-45DA-87F8-47311A953BFB/assets/89B0E0BB502997D3E994A63BA7FB733B.png" width="692.00" height="519.00" transform="matrix(1.00, 0.00, -0.00, -1.00, 307.0, 548.0)"></image></g></g><image xlink:href="../../2198CBDD-C4ED-4CEE-9D69-3F4F05B91592/assets/FE80839DC002D4D6BC614D23FD80B140.png" width="706.00" height="538.00" transform="matrix(1.00, 0.00, -0.00, 1.00, 300.0, 14.0)"></image></g></svg>