<?xml version="1.0" encoding="UTF-8" standalone="no"?><svg xmlns="http://www.w3.org/2000/svg" xmlns:xlink="http://www.w3.org/1999/xlink" clip-rule="evenodd" stroke-miterlimit="10" viewBox="0 0 1024 768"><desc>SVG generated by Keynote</desc><defs></defs><g transform="matrix(1.00, 0.00, -0.00, -1.00, 0.0, 768.0)"><g><clipPath id="clip0x7fe3a1da4430"><path d="M 0.0 768.0 L 1024.0 768.0 L 1024.0 0.0 L 0.0 0.0 Z M 0.0 768.0 "></path></clipPath><g clip-path="url(#clip0x7fe3a1da4430)"><image xlink:href="../../BE03AB4A-F5E0-4685-80C7-20DCBC62631F/assets/574DCE55A4CF432400CBDDDE1DFDFC9B.jpeg" width="2048.00" height="1536.00" transform="matrix(0.50, 0.00, -0.00, -0.50, 0.0, 768.0)"></image></g></g><text xml:space="preserve" font-family="HelveticaNeue-Thin,Helvetica Neue" font-size="55.0" fill="#525252" transform="matrix(1.00, 0.00, -0.00, -1.00, 277.5, 363.0)">S</text><text xml:space="preserve" font-family="HelveticaNeue-Thin,Helvetica Neue" font-size="55.0" fill="#525252" transform="matrix(1.00, 0.00, -0.00, -1.00, 312.2, 363.0)">p</text><text xml:space="preserve" font-family="HelveticaNeue-Thin,Helvetica Neue" font-size="55.0" fill="#525252" transform="matrix(1.00, 0.00, -0.00, -1.00, 342.8, 363.0)">ē</text><text xml:space="preserve" font-family="HelveticaNeue-Thin,Helvetica Neue" font-size="55.0" fill="#525252" transform="matrix(1.00, 0.00, -0.00, -1.00, 371.3, 363.0)">j</text><text xml:space="preserve" font-family="HelveticaNeue-Thin,Helvetica Neue" font-size="55.0" fill="#525252" transform="matrix(1.00, 0.00, -0.00, -1.00, 380.6, 363.0)">a</text><text xml:space="preserve" font-family="HelveticaNeue-Thin,Helvetica Neue" font-size="55.0" fill="#525252" transform="matrix(1.00, 0.00, -0.00, -1.00, 408.1, 363.0)"> </text><text xml:space="preserve" font-family="HelveticaNeue-Thin,Helvetica Neue" font-size="55.0" fill="#525252" transform="matrix(1.00, 0.00, -0.00, -1.00, 423.3, 363.0)">b</text><text xml:space="preserve" font-family="HelveticaNeue-Thin,Helvetica Neue" font-size="55.0" fill="#525252" transform="matrix(1.00, 0.00, -0.00, -1.00, 453.9, 363.0)">ū</text><text xml:space="preserve" font-family="HelveticaNeue-Thin,Helvetica Neue" font-size="55.0" fill="#525252" transform="matrix(1.00, 0.00, -0.00, -1.00, 482.5, 363.0)">t</text><text xml:space="preserve" font-family="HelveticaNeue-Thin,Helvetica Neue" font-size="55.0" fill="#525252" transform="matrix(1.00, 0.00, -0.00, -1.00, 496.7, 363.0)"> </text><text xml:space="preserve" font-family="HelveticaNeue-Thin,Helvetica Neue" font-size="55.0" fill="#525252" transform="matrix(1.00, 0.00, -0.00, -1.00, 512.0, 363.0)">s</text><text xml:space="preserve" font-family="HelveticaNeue-Thin,Helvetica Neue" font-size="55.0" fill="#525252" transform="matrix(1.00, 0.00, -0.00, -1.00, 538.5, 363.0)">p</text><text xml:space="preserve" font-family="HelveticaNeue-Thin,Helvetica Neue" font-size="55.0" fill="#525252" transform="matrix(1.00, 0.00, -0.00, -1.00, 569.0, 363.0)">ē</text><text xml:space="preserve" font-family="HelveticaNeue-Thin,Helvetica Neue" font-size="55.0" fill="#525252" transform="matrix(1.00, 0.00, -0.00, -1.00, 597.6, 363.0)">c</text><text xml:space="preserve" font-family="HelveticaNeue-Thin,Helvetica Neue" font-size="55.0" fill="#525252" transform="matrix(1.00, 0.00, -0.00, -1.00, 626.1, 363.0)">ī</text><text xml:space="preserve" font-family="HelveticaNeue-Thin,Helvetica Neue" font-size="55.0" fill="#525252" transform="matrix(1.00, 0.00, -0.00, -1.00, 635.4, 363.0)">g</text><text xml:space="preserve" font-family="HelveticaNeue-Thin,Helvetica Neue" font-size="55.0" fill="#525252" transform="matrix(1.00, 0.00, -0.00, -1.00, 664.9, 363.0)">i</text><text xml:space="preserve" font-family="HelveticaNeue-Thin,Helvetica Neue" font-size="55.0" fill="#525252" transform="matrix(1.00, 0.00, -0.00, -1.00, 674.1, 363.0)">e</text><text xml:space="preserve" font-family="HelveticaNeue-Thin,Helvetica Neue" font-size="55.0" fill="#525252" transform="matrix(1.00, 0.00, -0.00, -1.00, 702.7, 363.0)">m</text></g></svg>