<?xml version="1.0" encoding="UTF-8" standalone="no"?><svg xmlns="http://www.w3.org/2000/svg" xmlns:xlink="http://www.w3.org/1999/xlink" clip-rule="evenodd" stroke-miterlimit="10" viewBox="0 0 463 55"><desc>SVG generated by Keynote</desc><defs></defs><g transform="matrix(1.00, 0.00, -0.00, -1.00, 0.0, 55.0)"><text xml:space="preserve" font-family="GillSans-Light,Gill Sans" font-size="55.0" fill="#525252" transform="matrix(1.00, 0.00, -0.00, -1.00, -0.6, 15.1)">S</text><text xml:space="preserve" font-family="GillSans-Light,Gill Sans" font-size="55.0" fill="#525252" transform="matrix(1.00, 0.00, -0.00, -1.00, 25.2, 15.1)">p</text><text xml:space="preserve" font-family="GillSans-Light,Gill Sans" font-size="55.0" fill="#525252" transform="matrix(1.00, 0.00, -0.00, -1.00, 53.3, 15.1)">ē</text><text xml:space="preserve" font-family="GillSans-Light,Gill Sans" font-size="55.0" fill="#525252" transform="matrix(1.00, 0.00, -0.00, -1.00, 79.6, 15.1)">j</text><text xml:space="preserve" font-family="GillSans-Light,Gill Sans" font-size="55.0" fill="#525252" transform="matrix(1.00, 0.00, -0.00, -1.00, 89.9, 15.1)">a</text><text xml:space="preserve" font-family="GillSans-Light,Gill Sans" font-size="55.0" fill="#525252" transform="matrix(1.00, 0.00, -0.00, -1.00, 113.4, 15.1)"> </text><text xml:space="preserve" font-family="GillSans-Light,Gill Sans" font-size="55.0" fill="#525252" transform="matrix(1.00, 0.00, -0.00, -1.00, 128.7, 15.1)">b</text><text xml:space="preserve" font-family="GillSans-Light,Gill Sans" font-size="55.0" fill="#525252" transform="matrix(1.00, 0.00, -0.00, -1.00, 156.7, 15.1)">ū</text><text xml:space="preserve" font-family="GillSans-Light,Gill Sans" font-size="55.0" fill="#525252" transform="matrix(1.00, 0.00, -0.00, -1.00, 183.7, 15.1)">t</text><text xml:space="preserve" font-family="GillSans-Light,Gill Sans" font-size="55.0" fill="#525252" transform="matrix(1.00, 0.00, -0.00, -1.00, 200.3, 15.1)"> </text><text xml:space="preserve" font-family="GillSans-Light,Gill Sans" font-size="55.0" fill="#525252" transform="matrix(1.00, 0.00, -0.00, -1.00, 215.6, 15.1)">s</text><text xml:space="preserve" font-family="GillSans-Light,Gill Sans" font-size="55.0" fill="#525252" transform="matrix(1.00, 0.00, -0.00, -1.00, 235.0, 15.1)">p</text><text xml:space="preserve" font-family="GillSans-Light,Gill Sans" font-size="55.0" fill="#525252" transform="matrix(1.00, 0.00, -0.00, -1.00, 263.1, 15.1)">o</text><text xml:space="preserve" font-family="GillSans-Light,Gill Sans" font-size="55.0" fill="#525252" transform="matrix(1.00, 0.00, -0.00, -1.00, 292.9, 15.1)">r</text><text xml:space="preserve" font-family="GillSans-Light,Gill Sans" font-size="55.0" fill="#525252" transform="matrix(1.00, 0.00, -0.00, -1.00, 315.6, 15.1)">t</text><text xml:space="preserve" font-family="GillSans-Light,Gill Sans" font-size="55.0" fill="#525252" transform="matrix(1.00, 0.00, -0.00, -1.00, 332.2, 15.1)">i</text><text xml:space="preserve" font-family="GillSans-Light,Gill Sans" font-size="55.0" fill="#525252" transform="matrix(1.00, 0.00, -0.00, -1.00, 342.5, 15.1)">s</text><text xml:space="preserve" font-family="GillSans-Light,Gill Sans" font-size="55.0" fill="#525252" transform="matrix(1.00, 0.00, -0.00, -1.00, 362.0, 15.1)">k</text><text xml:space="preserve" font-family="GillSans-Light,Gill Sans" font-size="55.0" fill="#525252" transform="matrix(1.00, 0.00, -0.00, -1.00, 385.4, 15.1)">i</text><text xml:space="preserve" font-family="GillSans-Light,Gill Sans" font-size="55.0" fill="#525252" transform="matrix(1.00, 0.00, -0.00, -1.00, 395.8, 15.1)">e</text><text xml:space="preserve" font-family="GillSans-Light,Gill Sans" font-size="55.0" fill="#525252" transform="matrix(1.00, 0.00, -0.00, -1.00, 422.1, 15.1)">m</text></g></svg>