<?xml version="1.0" encoding="UTF-8" standalone="no"?><svg xmlns="http://www.w3.org/2000/svg" xmlns:xlink="http://www.w3.org/1999/xlink" clip-rule="evenodd" stroke-miterlimit="10" viewBox="0 0 1024 768"><desc>SVG generated by Keynote</desc><defs></defs><g transform="matrix(1.00, 0.00, -0.00, -1.00, 0.0, 768.0)"><g><clipPath id="clip0x7fe3a09d9260"><path d="M 0.0 768.0 L 1024.0 768.0 L 1024.0 0.0 L 0.0 0.0 Z M 0.0 768.0 "></path></clipPath><g clip-path="url(#clip0x7fe3a09d9260)"><image xlink:href="../../BE03AB4A-F5E0-4685-80C7-20DCBC62631F/assets/574DCE55A4CF432400CBDDDE1DFDFC9B.jpeg" width="2048.00" height="1536.00" transform="matrix(0.50, 0.00, -0.00, -0.50, 0.0, 768.0)"></image></g></g><text xml:space="preserve" font-family="GillSans-Light,Gill Sans" font-size="36.0" fill="#525252" transform="matrix(1.00, 0.00, -0.00, -1.00, 130.9, 443.5)">M</text><text xml:space="preserve" font-family="GillSans-Light,Gill Sans" font-size="36.0" fill="#525252" transform="matrix(1.00, 0.00, -0.00, -1.00, 159.0, 443.5)">i</text><text xml:space="preserve" font-family="GillSans-Light,Gill Sans" font-size="36.0" fill="#525252" transform="matrix(1.00, 0.00, -0.00, -1.00, 165.8, 443.5)">k</text><text xml:space="preserve" font-family="GillSans-Light,Gill Sans" font-size="36.0" fill="#525252" transform="matrix(1.00, 0.00, -0.00, -1.00, 181.1, 443.5)">s</text><g><clipPath id="clip0x7fe3a0af3d80"><path d="M 300.0 497.0 L 549.0 497.0 L 549.0 731.0 L 300.0 731.0 Z M 300.0 497.0 "></path></clipPath><g clip-path="url(#clip0x7fe3a0af3d80)"><path d="M 300.0 731.0 L 549.0 731.0 L 549.0 497.0 L 300.0 497.0 Z M 300.0 731.0 " fill="#FEFFFF" fill-opacity="0.00"></path></g></g><g><clipPath id="clip0x7fe3a0af4fb0"><path d="M 300.0 497.0 L 549.0 497.0 L 549.0 731.0 L 300.0 731.0 Z M 300.0 497.0 "></path></clipPath><g clip-path="url(#clip0x7fe3a0af4fb0)"><image xlink:href="320CACA25612BB976EA7326FDD5C4016.png" width="380.00" height="358.00" transform="matrix(0.66, 0.00, -0.00, -0.65, 300.0, 731.0)"></image></g></g><image xlink:href="7F5EC7D583D1C30F0E234C1D077D2B32.png" width="263.00" height="253.00" transform="matrix(1.00, 0.00, -0.00, 1.00, 293.0, 482.0)"></image><text xml:space="preserve" font-family="GillSans-Light,Gill Sans" font-size="36.0" fill="#525252" transform="matrix(1.00, 0.00, -0.00, -1.00, 360.5, 443.5)">V</text><text xml:space="preserve" font-family="GillSans-Light,Gill Sans" font-size="36.0" fill="#525252" transform="matrix(1.00, 0.00, -0.00, -1.00, 380.1, 443.5)">a</text><text xml:space="preserve" font-family="GillSans-Light,Gill Sans" font-size="36.0" fill="#525252" transform="matrix(1.00, 0.00, -0.00, -1.00, 395.4, 443.5)">l</text><text xml:space="preserve" font-family="GillSans-Light,Gill Sans" font-size="36.0" fill="#525252" transform="matrix(1.00, 0.00, -0.00, -1.00, 402.2, 443.5)">e</text><text xml:space="preserve" font-family="GillSans-Light,Gill Sans" font-size="36.0" fill="#525252" transform="matrix(1.00, 0.00, -0.00, -1.00, 419.5, 443.5)">n</text><text xml:space="preserve" font-family="GillSans-Light,Gill Sans" font-size="36.0" fill="#525252" transform="matrix(1.00, 0.00, -0.00, -1.00, 437.1, 443.5)">t</text><text xml:space="preserve" font-family="GillSans-Light,Gill Sans" font-size="36.0" fill="#525252" transform="matrix(1.00, 0.00, -0.00, -1.00, 448.0, 443.5)">ī</text><text xml:space="preserve" font-family="GillSans-Light,Gill Sans" font-size="36.0" fill="#525252" transform="matrix(1.00, 0.00, -0.00, -1.00, 454.7, 443.5)">n</text><text xml:space="preserve" font-family="GillSans-Light,Gill Sans" font-size="36.0" fill="#525252" transform="matrix(1.00, 0.00, -0.00, -1.00, 472.4, 443.5)">a</text><text xml:space="preserve" font-family="GillSans-Light,Gill Sans" font-size="20.0" fill="#525252" transform="matrix(1.00, 0.00, -0.00, -1.00, 96.8, 408.3)">#</text><text xml:space="preserve" font-family="GillSans-Light,Gill Sans" font-size="20.0" fill="#525252" transform="matrix(1.00, 0.00, -0.00, -1.00, 110.0, 408.3)">p</text><text xml:space="preserve" font-family="GillSans-Light,Gill Sans" font-size="20.0" fill="#525252" transform="matrix(1.00, 0.00, -0.00, -1.00, 120.2, 408.3)">r</text><text xml:space="preserve" font-family="GillSans-Light,Gill Sans" font-size="20.0" fill="#525252" transform="matrix(1.00, 0.00, -0.00, -1.00, 127.3, 408.3)">i</text><text xml:space="preserve" font-family="GillSans-Light,Gill Sans" font-size="20.0" fill="#525252" transform="matrix(1.00, 0.00, -0.00, -1.00, 131.1, 408.3)">e</text><text xml:space="preserve" font-family="GillSans-Light,Gill Sans" font-size="20.0" fill="#525252" transform="matrix(1.00, 0.00, -0.00, -1.00, 140.7, 408.3)">k</text><text xml:space="preserve" font-family="GillSans-Light,Gill Sans" font-size="20.0" fill="#525252" transform="matrix(1.00, 0.00, -0.00, -1.00, 149.2, 408.3)">s</text><text xml:space="preserve" font-family="GillSans-Light,Gill Sans" font-size="20.0" fill="#525252" transform="matrix(1.00, 0.00, -0.00, -1.00, 156.3, 408.3)">h</text><text xml:space="preserve" font-family="GillSans-Light,Gill Sans" font-size="20.0" fill="#525252" transform="matrix(1.00, 0.00, -0.00, -1.00, 166.1, 408.3)">n</text><text xml:space="preserve" font-family="GillSans-Light,Gill Sans" font-size="20.0" fill="#525252" transform="matrix(1.00, 0.00, -0.00, -1.00, 175.9, 408.3)">i</text><text xml:space="preserve" font-family="GillSans-Light,Gill Sans" font-size="20.0" fill="#525252" transform="matrix(1.00, 0.00, -0.00, -1.00, 179.6, 408.3)">e</text><text xml:space="preserve" font-family="GillSans-Light,Gill Sans" font-size="20.0" fill="#525252" transform="matrix(1.00, 0.00, -0.00, -1.00, 189.2, 408.3)">c</text><text xml:space="preserve" font-family="GillSans-Light,Gill Sans" font-size="20.0" fill="#525252" transform="matrix(1.00, 0.00, -0.00, -1.00, 197.6, 408.3)">i</text><text xml:space="preserve" font-family="GillSans-Light,Gill Sans" font-size="20.0" fill="#525252" transform="matrix(1.00, 0.00, -0.00, -1.00, 201.3, 408.3)">n</text><text xml:space="preserve" font-family="GillSans-Light,Gill Sans" font-size="20.0" fill="#525252" transform="matrix(1.00, 0.00, -0.00, -1.00, 211.1, 408.3)">s</text><text xml:space="preserve" font-family="GillSans-Light,Gill Sans" font-size="20.0" fill="#525252" transform="matrix(1.00, 0.00, -0.00, -1.00, 218.2, 408.3)">h</text><text xml:space="preserve" font-family="GillSans-Light,Gill Sans" font-size="20.0" fill="#525252" transform="matrix(1.00, 0.00, -0.00, -1.00, 364.0, 408.3)">#</text><text xml:space="preserve" font-family="GillSans-Light,Gill Sans" font-size="20.0" fill="#525252" transform="matrix(1.00, 0.00, -0.00, -1.00, 377.2, 408.3)">p</text><text xml:space="preserve" font-family="GillSans-Light,Gill Sans" font-size="20.0" fill="#525252" transform="matrix(1.00, 0.00, -0.00, -1.00, 387.4, 408.3)">r</text><text xml:space="preserve" font-family="GillSans-Light,Gill Sans" font-size="20.0" fill="#525252" transform="matrix(1.00, 0.00, -0.00, -1.00, 394.6, 408.3)">i</text><text xml:space="preserve" font-family="GillSans-Light,Gill Sans" font-size="20.0" fill="#525252" transform="matrix(1.00, 0.00, -0.00, -1.00, 398.3, 408.3)">e</text><text xml:space="preserve" font-family="GillSans-Light,Gill Sans" font-size="20.0" fill="#525252" transform="matrix(1.00, 0.00, -0.00, -1.00, 407.9, 408.3)">k</text><text xml:space="preserve" font-family="GillSans-Light,Gill Sans" font-size="20.0" fill="#525252" transform="matrix(1.00, 0.00, -0.00, -1.00, 416.5, 408.3)">s</text><text xml:space="preserve" font-family="GillSans-Light,Gill Sans" font-size="20.0" fill="#525252" transform="matrix(1.00, 0.00, -0.00, -1.00, 423.5, 408.3)">h</text><text xml:space="preserve" font-family="GillSans-Light,Gill Sans" font-size="20.0" fill="#525252" transform="matrix(1.00, 0.00, -0.00, -1.00, 433.3, 408.3)">n</text><text xml:space="preserve" font-family="GillSans-Light,Gill Sans" font-size="20.0" fill="#525252" transform="matrix(1.00, 0.00, -0.00, -1.00, 443.1, 408.3)">i</text><text xml:space="preserve" font-family="GillSans-Light,Gill Sans" font-size="20.0" fill="#525252" transform="matrix(1.00, 0.00, -0.00, -1.00, 446.9, 408.3)">e</text><text xml:space="preserve" font-family="GillSans-Light,Gill Sans" font-size="20.0" fill="#525252" transform="matrix(1.00, 0.00, -0.00, -1.00, 456.5, 408.3)">c</text><text xml:space="preserve" font-family="GillSans-Light,Gill Sans" font-size="20.0" fill="#525252" transform="matrix(1.00, 0.00, -0.00, -1.00, 464.8, 408.3)">i</text><text xml:space="preserve" font-family="GillSans-Light,Gill Sans" font-size="20.0" fill="#525252" transform="matrix(1.00, 0.00, -0.00, -1.00, 468.6, 408.3)">t</text><text xml:space="preserve" font-family="GillSans-Light,Gill Sans" font-size="20.0" fill="#525252" transform="matrix(1.00, 0.00, -0.00, -1.00, 474.6, 408.3)">e</text><g><clipPath id="clip0x7fe3a0c0c730"><path d="M 585.0 496.0 L 723.0 496.0 L 723.0 732.0 L 585.0 732.0 Z M 585.0 496.0 "></path></clipPath><g clip-path="url(#clip0x7fe3a0c0c730)"><path d="M 585.0 732.0 L 723.0 732.0 L 723.0 496.0 L 585.0 496.0 Z M 585.0 732.0 " fill="#FEFFFF" fill-opacity="0.00"></path></g></g><g><clipPath id="clip0x7fe3a0c0d540"><path d="M 585.0 496.0 L 723.0 496.0 L 723.0 732.0 L 585.0 732.0 Z M 585.0 496.0 "></path></clipPath><g clip-path="url(#clip0x7fe3a0c0d540)"><image xlink:href="9665A4EDE8FBBED7A553489BC563992A.png" width="157.00" height="269.00" transform="matrix(0.88, 0.00, -0.00, -0.88, 585.0, 732.0)"></image></g></g><image xlink:href="8F68407B3B67F0EA204BEF8F44FC443F.png" width="152.00" height="255.00" transform="matrix(1.00, 0.00, -0.00, 1.00, 578.0, 481.0)"></image><text xml:space="preserve" font-family="GillSans-Light,Gill Sans" font-size="36.0" fill="#525252" transform="matrix(1.00, 0.00, -0.00, -1.00, 610.2, 443.5)">A</text><text xml:space="preserve" font-family="GillSans-Light,Gill Sans" font-size="36.0" fill="#525252" transform="matrix(1.00, 0.00, -0.00, -1.00, 634.2, 443.5)">i</text><text xml:space="preserve" font-family="GillSans-Light,Gill Sans" font-size="36.0" fill="#525252" transform="matrix(1.00, 0.00, -0.00, -1.00, 641.0, 443.5)">g</text><text xml:space="preserve" font-family="GillSans-Light,Gill Sans" font-size="36.0" fill="#525252" transform="matrix(1.00, 0.00, -0.00, -1.00, 656.3, 443.5)">a</text><text xml:space="preserve" font-family="GillSans-Light,Gill Sans" font-size="36.0" fill="#525252" transform="matrix(1.00, 0.00, -0.00, -1.00, 671.7, 443.5)">r</text><text xml:space="preserve" font-family="GillSans-Light,Gill Sans" font-size="36.0" fill="#525252" transform="matrix(1.00, 0.00, -0.00, -1.00, 685.1, 443.5)">s</text><text xml:space="preserve" font-family="GillSans-Light,Gill Sans" font-size="20.0" fill="#525252" transform="matrix(1.00, 0.00, -0.00, -1.00, 569.5, 403.7)">#</text><text xml:space="preserve" font-family="GillSans-Light,Gill Sans" font-size="20.0" fill="#525252" transform="matrix(1.00, 0.00, -0.00, -1.00, 582.7, 403.7)">t</text><text xml:space="preserve" font-family="GillSans-Light,Gill Sans" font-size="20.0" fill="#525252" transform="matrix(1.00, 0.00, -0.00, -1.00, 588.7, 403.7)">a</text><text xml:space="preserve" font-family="GillSans-Light,Gill Sans" font-size="20.0" fill="#525252" transform="matrix(1.00, 0.00, -0.00, -1.00, 597.2, 403.7)">r</text><text xml:space="preserve" font-family="GillSans-Light,Gill Sans" font-size="20.0" fill="#525252" transform="matrix(1.00, 0.00, -0.00, -1.00, 604.4, 403.7)">i</text><text xml:space="preserve" font-family="GillSans-Light,Gill Sans" font-size="20.0" fill="#525252" transform="matrix(1.00, 0.00, -0.00, -1.00, 608.1, 403.7)">ﬁ</text><text xml:space="preserve" font-family="GillSans-Light,Gill Sans" font-size="20.0" fill="#525252" transform="matrix(1.00, 0.00, -0.00, -1.00, 617.7, 403.7)">k</text><text xml:space="preserve" font-family="GillSans-Light,Gill Sans" font-size="20.0" fill="#525252" transform="matrix(1.00, 0.00, -0.00, -1.00, 626.3, 403.7)">a</text><text xml:space="preserve" font-family="GillSans-Light,Gill Sans" font-size="20.0" fill="#525252" transform="matrix(1.00, 0.00, -0.00, -1.00, 634.8, 403.7)">c</text><text xml:space="preserve" font-family="GillSans-Light,Gill Sans" font-size="20.0" fill="#525252" transform="matrix(1.00, 0.00, -0.00, -1.00, 643.1, 403.7)">i</text><text xml:space="preserve" font-family="GillSans-Light,Gill Sans" font-size="20.0" fill="#525252" transform="matrix(1.00, 0.00, -0.00, -1.00, 646.9, 403.7)">j</text><text xml:space="preserve" font-family="GillSans-Light,Gill Sans" font-size="20.0" fill="#525252" transform="matrix(1.00, 0.00, -0.00, -1.00, 650.7, 403.7)">a</text><text xml:space="preserve" font-family="GillSans-Light,Gill Sans" font-size="20.0" fill="#525252" transform="matrix(1.00, 0.00, -0.00, -1.00, 659.2, 403.7)">s</text><text xml:space="preserve" font-family="GillSans-Light,Gill Sans" font-size="20.0" fill="#525252" transform="matrix(1.00, 0.00, -0.00, -1.00, 666.3, 403.7)">_</text><text xml:space="preserve" font-family="GillSans-Light,Gill Sans" font-size="20.0" fill="#525252" transform="matrix(1.00, 0.00, -0.00, -1.00, 676.3, 403.7)">m</text><text xml:space="preserve" font-family="GillSans-Light,Gill Sans" font-size="20.0" fill="#525252" transform="matrix(1.00, 0.00, -0.00, -1.00, 691.7, 403.7)">a</text><text xml:space="preserve" font-family="GillSans-Light,Gill Sans" font-size="20.0" fill="#525252" transform="matrix(1.00, 0.00, -0.00, -1.00, 700.2, 403.7)">s</text><text xml:space="preserve" font-family="GillSans-Light,Gill Sans" font-size="20.0" fill="#525252" transform="matrix(1.00, 0.00, -0.00, -1.00, 707.3, 403.7)">t</text><text xml:space="preserve" font-family="GillSans-Light,Gill Sans" font-size="20.0" fill="#525252" transform="matrix(1.00, 0.00, -0.00, -1.00, 713.3, 403.7)">e</text><text xml:space="preserve" font-family="GillSans-Light,Gill Sans" font-size="20.0" fill="#525252" transform="matrix(1.00, 0.00, -0.00, -1.00, 722.9, 403.7)">r</text><text xml:space="preserve" font-family="GillSans-Light,Gill Sans" font-size="20.0" fill="#525252" transform="matrix(1.00, 0.00, -0.00, -1.00, 730.4, 403.7)">s</text><g><clipPath id="clip0x7fe3a0c147c0"><path d="M 759.0 496.0 L 962.0 496.0 L 962.0 732.0 L 759.0 732.0 Z M 759.0 496.0 "></path></clipPath><g clip-path="url(#clip0x7fe3a0c147c0)"><path d="M 759.0 732.0 L 962.0 732.0 L 962.0 496.0 L 759.0 496.0 Z M 759.0 732.0 " fill="#FEFFFF" fill-opacity="0.00"></path></g></g><g><clipPath id="clip0x7fe3a0c15600"><path d="M 759.0 496.0 L 962.0 496.0 L 962.0 732.0 L 759.0 732.0 Z M 759.0 496.0 "></path></clipPath><g clip-path="url(#clip0x7fe3a0c15600)"><image xlink:href="56F980F67FDA20B11A93ED8CB6DE491B.png" width="280.00" height="326.00" transform="matrix(0.72, 0.00, -0.00, -0.72, 759.0, 732.0)"></image></g></g><image xlink:href="6F664BB7B700C4232C3D77482DC5CD40.png" width="217.00" height="255.00" transform="matrix(1.00, 0.00, -0.00, 1.00, 752.0, 481.0)"></image><text xml:space="preserve" font-family="GillSans-Light,Gill Sans" font-size="36.0" fill="#525252" transform="matrix(1.00, 0.00, -0.00, -1.00, 814.6, 443.5)">A</text><text xml:space="preserve" font-family="GillSans-Light,Gill Sans" font-size="36.0" fill="#525252" transform="matrix(1.00, 0.00, -0.00, -1.00, 838.6, 443.5)">n</text><text xml:space="preserve" font-family="GillSans-Light,Gill Sans" font-size="36.0" fill="#525252" transform="matrix(1.00, 0.00, -0.00, -1.00, 856.2, 443.5)">d</text><text xml:space="preserve" font-family="GillSans-Light,Gill Sans" font-size="36.0" fill="#525252" transform="matrix(1.00, 0.00, -0.00, -1.00, 874.6, 443.5)">r</text><text xml:space="preserve" font-family="GillSans-Light,Gill Sans" font-size="36.0" fill="#525252" transform="matrix(1.00, 0.00, -0.00, -1.00, 887.5, 443.5)">i</text><text xml:space="preserve" font-family="GillSans-Light,Gill Sans" font-size="36.0" fill="#525252" transform="matrix(1.00, 0.00, -0.00, -1.00, 894.2, 443.5)">s</text><text xml:space="preserve" font-family="GillSans-Light,Gill Sans" font-size="20.0" fill="#525252" transform="matrix(1.00, 0.00, -0.00, -1.00, 776.8, 403.7)">#</text><text xml:space="preserve" font-family="GillSans-Light,Gill Sans" font-size="20.0" fill="#525252" transform="matrix(1.00, 0.00, -0.00, -1.00, 790.0, 403.7)">t</text><text xml:space="preserve" font-family="GillSans-Light,Gill Sans" font-size="20.0" fill="#525252" transform="matrix(1.00, 0.00, -0.00, -1.00, 796.0, 403.7)">a</text><text xml:space="preserve" font-family="GillSans-Light,Gill Sans" font-size="20.0" fill="#525252" transform="matrix(1.00, 0.00, -0.00, -1.00, 804.5, 403.7)">r</text><text xml:space="preserve" font-family="GillSans-Light,Gill Sans" font-size="20.0" fill="#525252" transform="matrix(1.00, 0.00, -0.00, -1.00, 811.7, 403.7)">i</text><text xml:space="preserve" font-family="GillSans-Light,Gill Sans" font-size="20.0" fill="#525252" transform="matrix(1.00, 0.00, -0.00, -1.00, 815.4, 403.7)">ﬁ</text><text xml:space="preserve" font-family="GillSans-Light,Gill Sans" font-size="20.0" fill="#525252" transform="matrix(1.00, 0.00, -0.00, -1.00, 825.0, 403.7)">k</text><text xml:space="preserve" font-family="GillSans-Light,Gill Sans" font-size="20.0" fill="#525252" transform="matrix(1.00, 0.00, -0.00, -1.00, 833.6, 403.7)">a</text><text xml:space="preserve" font-family="GillSans-Light,Gill Sans" font-size="20.0" fill="#525252" transform="matrix(1.00, 0.00, -0.00, -1.00, 842.1, 403.7)">c</text><text xml:space="preserve" font-family="GillSans-Light,Gill Sans" font-size="20.0" fill="#525252" transform="matrix(1.00, 0.00, -0.00, -1.00, 850.4, 403.7)">i</text><text xml:space="preserve" font-family="GillSans-Light,Gill Sans" font-size="20.0" fill="#525252" transform="matrix(1.00, 0.00, -0.00, -1.00, 854.2, 403.7)">j</text><text xml:space="preserve" font-family="GillSans-Light,Gill Sans" font-size="20.0" fill="#525252" transform="matrix(1.00, 0.00, -0.00, -1.00, 857.9, 403.7)">a</text><text xml:space="preserve" font-family="GillSans-Light,Gill Sans" font-size="20.0" fill="#525252" transform="matrix(1.00, 0.00, -0.00, -1.00, 866.5, 403.7)">s</text><text xml:space="preserve" font-family="GillSans-Light,Gill Sans" font-size="20.0" fill="#525252" transform="matrix(1.00, 0.00, -0.00, -1.00, 873.6, 403.7)">_</text><text xml:space="preserve" font-family="GillSans-Light,Gill Sans" font-size="20.0" fill="#525252" transform="matrix(1.00, 0.00, -0.00, -1.00, 883.6, 403.7)">m</text><text xml:space="preserve" font-family="GillSans-Light,Gill Sans" font-size="20.0" fill="#525252" transform="matrix(1.00, 0.00, -0.00, -1.00, 899.0, 403.7)">a</text><text xml:space="preserve" font-family="GillSans-Light,Gill Sans" font-size="20.0" fill="#525252" transform="matrix(1.00, 0.00, -0.00, -1.00, 907.5, 403.7)">s</text><text xml:space="preserve" font-family="GillSans-Light,Gill Sans" font-size="20.0" fill="#525252" transform="matrix(1.00, 0.00, -0.00, -1.00, 914.6, 403.7)">t</text><text xml:space="preserve" font-family="GillSans-Light,Gill Sans" font-size="20.0" fill="#525252" transform="matrix(1.00, 0.00, -0.00, -1.00, 920.6, 403.7)">e</text><text xml:space="preserve" font-family="GillSans-Light,Gill Sans" font-size="20.0" fill="#525252" transform="matrix(1.00, 0.00, -0.00, -1.00, 930.2, 403.7)">r</text><text xml:space="preserve" font-family="GillSans-Light,Gill Sans" font-size="20.0" fill="#525252" transform="matrix(1.00, 0.00, -0.00, -1.00, 937.7, 403.7)">s</text><image xlink:href="1C666868F600567D9355C74C8FCD310D.jpeg" width="203.00" height="162.00" transform="matrix(1.00, 0.00, -0.00, -1.00, 61.0, 695.0)"></image><image xlink:href="B88AFE12ADEA9E61E6C71E475FF2376C.png" width="217.00" height="181.00" transform="matrix(1.00, 0.00, -0.00, 1.00, 54.0, 518.0)"></image><g><clipPath id="clip0x7fe3a0b2d330"><path d="M 38.0 116.0 L 287.0 116.0 L 287.0 346.0 L 38.0 346.0 Z M 38.0 116.0 "></path></clipPath><g clip-path="url(#clip0x7fe3a0b2d330)"><path d="M 38.0 346.0 L 287.0 346.0 L 287.0 116.0 L 38.0 116.0 Z M 38.0 346.0 " fill="#FEFFFF" fill-opacity="0.00"></path></g></g><g><clipPath id="clip0x7fe3a0b2bfa0"><path d="M 38.0 116.0 L 287.0 116.0 L 287.0 346.0 L 38.0 346.0 Z M 38.0 116.0 "></path></clipPath><g clip-path="url(#clip0x7fe3a0b2bfa0)"><image xlink:href="3198E22ADC589CB83E00613C49A6F151.png" width="311.00" height="286.00" transform="matrix(0.80, 0.00, -0.00, -0.80, 38.0, 346.0)"></image></g></g><image xlink:href="C0CDA46F7682F0BF8341823A8E847919.png" width="263.00" height="249.00" transform="matrix(1.00, 0.00, -0.00, 1.00, 31.0, 101.0)"></image><text xml:space="preserve" font-family="GillSans-Light,Gill Sans" font-size="36.0" fill="#525252" transform="matrix(1.00, 0.00, -0.00, -1.00, 134.5, 63.1)">I</text><text xml:space="preserve" font-family="GillSans-Light,Gill Sans" font-size="36.0" fill="#525252" transform="matrix(1.00, 0.00, -0.00, -1.00, 141.9, 63.1)">n</text><text xml:space="preserve" font-family="GillSans-Light,Gill Sans" font-size="36.0" fill="#525252" transform="matrix(1.00, 0.00, -0.00, -1.00, 159.6, 63.1)">g</text><text xml:space="preserve" font-family="GillSans-Light,Gill Sans" font-size="36.0" fill="#525252" transform="matrix(1.00, 0.00, -0.00, -1.00, 175.0, 63.1)">a</text><text xml:space="preserve" font-family="GillSans-Light,Gill Sans" font-size="20.0" fill="#525252" transform="matrix(1.00, 0.00, -0.00, -1.00, 89.9, 27.8)">#</text><text xml:space="preserve" font-family="GillSans-Light,Gill Sans" font-size="20.0" fill="#525252" transform="matrix(1.00, 0.00, -0.00, -1.00, 103.1, 27.8)">t</text><text xml:space="preserve" font-family="GillSans-Light,Gill Sans" font-size="20.0" fill="#525252" transform="matrix(1.00, 0.00, -0.00, -1.00, 109.1, 27.8)">e</text><text xml:space="preserve" font-family="GillSans-Light,Gill Sans" font-size="20.0" fill="#525252" transform="matrix(1.00, 0.00, -0.00, -1.00, 118.7, 27.8)">s</text><text xml:space="preserve" font-family="GillSans-Light,Gill Sans" font-size="20.0" fill="#525252" transform="matrix(1.00, 0.00, -0.00, -1.00, 125.8, 27.8)">t</text><text xml:space="preserve" font-family="GillSans-Light,Gill Sans" font-size="20.0" fill="#525252" transform="matrix(1.00, 0.00, -0.00, -1.00, 131.8, 27.8)">e</text><text xml:space="preserve" font-family="GillSans-Light,Gill Sans" font-size="20.0" fill="#525252" transform="matrix(1.00, 0.00, -0.00, -1.00, 141.4, 27.8)">s</text><text xml:space="preserve" font-family="GillSans-Light,Gill Sans" font-size="20.0" fill="#525252" transform="matrix(1.00, 0.00, -0.00, -1.00, 148.5, 27.8)">a</text><text xml:space="preserve" font-family="GillSans-Light,Gill Sans" font-size="20.0" fill="#525252" transform="matrix(1.00, 0.00, -0.00, -1.00, 157.0, 27.8)">n</text><text xml:space="preserve" font-family="GillSans-Light,Gill Sans" font-size="20.0" fill="#525252" transform="matrix(1.00, 0.00, -0.00, -1.00, 166.8, 27.8)">a</text><text xml:space="preserve" font-family="GillSans-Light,Gill Sans" font-size="20.0" fill="#525252" transform="matrix(1.00, 0.00, -0.00, -1.00, 175.3, 27.8)">s</text><text xml:space="preserve" font-family="GillSans-Light,Gill Sans" font-size="20.0" fill="#525252" transform="matrix(1.00, 0.00, -0.00, -1.00, 182.4, 27.8)">_</text><text xml:space="preserve" font-family="GillSans-Light,Gill Sans" font-size="20.0" fill="#525252" transform="matrix(1.00, 0.00, -0.00, -1.00, 192.4, 27.8)">s</text><text xml:space="preserve" font-family="GillSans-Light,Gill Sans" font-size="20.0" fill="#525252" transform="matrix(1.00, 0.00, -0.00, -1.00, 199.5, 27.8)">p</text><text xml:space="preserve" font-family="GillSans-Light,Gill Sans" font-size="20.0" fill="#525252" transform="matrix(1.00, 0.00, -0.00, -1.00, 209.7, 27.8)">e</text><text xml:space="preserve" font-family="GillSans-Light,Gill Sans" font-size="20.0" fill="#525252" transform="matrix(1.00, 0.00, -0.00, -1.00, 219.3, 27.8)">k</text><text xml:space="preserve" font-family="GillSans-Light,Gill Sans" font-size="20.0" fill="#525252" transform="matrix(1.00, 0.00, -0.00, -1.00, 227.8, 27.8)">s</text><g><clipPath id="clip0x7fe3a0b36c00"><path d="M 337.0 115.0 L 511.0 115.0 L 511.0 344.0 L 337.0 344.0 Z M 337.0 115.0 "></path></clipPath><g clip-path="url(#clip0x7fe3a0b36c00)"><path d="M 337.0 344.0 L 511.0 344.0 L 511.0 115.0 L 337.0 115.0 Z M 337.0 344.0 " fill="#FEFFFF" fill-opacity="0.00"></path><image xlink:href="C23DB555E5E58DFDF95E64422F46286F.png" width="194.00" height="256.00" transform="matrix(0.90, 0.00, -0.00, -0.89, 337.0, 344.0)"></image></g></g><image xlink:href="3FE460B873CD514F815842B5FC69DA68.png" width="188.00" height="248.00" transform="matrix(1.00, 0.00, -0.00, 1.00, 330.0, 100.0)"></image><text xml:space="preserve" font-family="GillSans-Light,Gill Sans" font-size="36.0" fill="#525252" transform="matrix(1.00, 0.00, -0.00, -1.00, 396.2, 63.1)">I</text><text xml:space="preserve" font-family="GillSans-Light,Gill Sans" font-size="36.0" fill="#525252" transform="matrix(1.00, 0.00, -0.00, -1.00, 403.7, 63.1)">n</text><text xml:space="preserve" font-family="GillSans-Light,Gill Sans" font-size="36.0" fill="#525252" transform="matrix(1.00, 0.00, -0.00, -1.00, 421.3, 63.1)">g</text><text xml:space="preserve" font-family="GillSans-Light,Gill Sans" font-size="36.0" fill="#525252" transform="matrix(1.00, 0.00, -0.00, -1.00, 436.7, 63.1)">a</text><text xml:space="preserve" font-family="GillSans-Light,Gill Sans" font-size="20.0" fill="#525252" transform="matrix(1.00, 0.00, -0.00, -1.00, 351.6, 27.8)">#</text><text xml:space="preserve" font-family="GillSans-Light,Gill Sans" font-size="20.0" fill="#525252" transform="matrix(1.00, 0.00, -0.00, -1.00, 364.8, 27.8)">t</text><text xml:space="preserve" font-family="GillSans-Light,Gill Sans" font-size="20.0" fill="#525252" transform="matrix(1.00, 0.00, -0.00, -1.00, 370.8, 27.8)">e</text><text xml:space="preserve" font-family="GillSans-Light,Gill Sans" font-size="20.0" fill="#525252" transform="matrix(1.00, 0.00, -0.00, -1.00, 380.4, 27.8)">s</text><text xml:space="preserve" font-family="GillSans-Light,Gill Sans" font-size="20.0" fill="#525252" transform="matrix(1.00, 0.00, -0.00, -1.00, 387.5, 27.8)">t</text><text xml:space="preserve" font-family="GillSans-Light,Gill Sans" font-size="20.0" fill="#525252" transform="matrix(1.00, 0.00, -0.00, -1.00, 393.5, 27.8)">e</text><text xml:space="preserve" font-family="GillSans-Light,Gill Sans" font-size="20.0" fill="#525252" transform="matrix(1.00, 0.00, -0.00, -1.00, 403.1, 27.8)">s</text><text xml:space="preserve" font-family="GillSans-Light,Gill Sans" font-size="20.0" fill="#525252" transform="matrix(1.00, 0.00, -0.00, -1.00, 410.2, 27.8)">a</text><text xml:space="preserve" font-family="GillSans-Light,Gill Sans" font-size="20.0" fill="#525252" transform="matrix(1.00, 0.00, -0.00, -1.00, 418.7, 27.8)">n</text><text xml:space="preserve" font-family="GillSans-Light,Gill Sans" font-size="20.0" fill="#525252" transform="matrix(1.00, 0.00, -0.00, -1.00, 428.5, 27.8)">a</text><text xml:space="preserve" font-family="GillSans-Light,Gill Sans" font-size="20.0" fill="#525252" transform="matrix(1.00, 0.00, -0.00, -1.00, 437.1, 27.8)">s</text><text xml:space="preserve" font-family="GillSans-Light,Gill Sans" font-size="20.0" fill="#525252" transform="matrix(1.00, 0.00, -0.00, -1.00, 444.1, 27.8)">_</text><text xml:space="preserve" font-family="GillSans-Light,Gill Sans" font-size="20.0" fill="#525252" transform="matrix(1.00, 0.00, -0.00, -1.00, 454.1, 27.8)">s</text><text xml:space="preserve" font-family="GillSans-Light,Gill Sans" font-size="20.0" fill="#525252" transform="matrix(1.00, 0.00, -0.00, -1.00, 461.2, 27.8)">p</text><text xml:space="preserve" font-family="GillSans-Light,Gill Sans" font-size="20.0" fill="#525252" transform="matrix(1.00, 0.00, -0.00, -1.00, 471.4, 27.8)">e</text><text xml:space="preserve" font-family="GillSans-Light,Gill Sans" font-size="20.0" fill="#525252" transform="matrix(1.00, 0.00, -0.00, -1.00, 481.0, 27.8)">k</text><text xml:space="preserve" font-family="GillSans-Light,Gill Sans" font-size="20.0" fill="#525252" transform="matrix(1.00, 0.00, -0.00, -1.00, 489.5, 27.8)">s</text><g><clipPath id="clip0x7fe3a0b42280"><path d="M 553.0 128.0 L 755.0 128.0 L 755.0 331.0 L 553.0 331.0 Z M 553.0 128.0 "></path></clipPath><g clip-path="url(#clip0x7fe3a0b42280)"><path d="M 553.0 331.0 L 755.0 331.0 L 755.0 128.0 L 553.0 128.0 Z M 553.0 331.0 " fill="#FEFFFF" fill-opacity="0.00"></path></g></g><g><clipPath id="clip0x7fe3a0b43140"><path d="M 553.0 128.0 L 755.0 128.0 L 755.0 331.0 L 553.0 331.0 Z M 553.0 128.0 "></path></clipPath><g clip-path="url(#clip0x7fe3a0b43140)"><image xlink:href="9314E5B18B3781CC72FB253E326C6D5C.png" width="278.00" height="279.00" transform="matrix(0.73, 0.00, -0.00, -0.73, 553.0, 331.0)"></image></g></g><image xlink:href="4575C9D4D5232E1321501DD8F7DBE4F0.png" width="216.00" height="222.00" transform="matrix(1.00, 0.00, -0.00, 1.00, 546.0, 113.0)"></image><text xml:space="preserve" font-family="GillSans-Light,Gill Sans" font-size="36.0" fill="#525252" transform="matrix(1.00, 0.00, -0.00, -1.00, 615.0, 63.1)">L</text><text xml:space="preserve" font-family="GillSans-Light,Gill Sans" font-size="36.0" fill="#525252" transform="matrix(1.00, 0.00, -0.00, -1.00, 631.9, 63.1)">a</text><text xml:space="preserve" font-family="GillSans-Light,Gill Sans" font-size="36.0" fill="#525252" transform="matrix(1.00, 0.00, -0.00, -1.00, 647.2, 63.1)">u</text><text xml:space="preserve" font-family="GillSans-Light,Gill Sans" font-size="36.0" fill="#525252" transform="matrix(1.00, 0.00, -0.00, -1.00, 664.9, 63.1)">r</text><text xml:space="preserve" font-family="GillSans-Light,Gill Sans" font-size="36.0" fill="#525252" transform="matrix(1.00, 0.00, -0.00, -1.00, 677.8, 63.1)">a</text><text xml:space="preserve" font-family="GillSans-Light,Gill Sans" font-size="20.0" fill="#525252" transform="matrix(1.00, 0.00, -0.00, -1.00, 592.2, 27.8)">#</text><text xml:space="preserve" font-family="GillSans-Light,Gill Sans" font-size="20.0" fill="#525252" transform="matrix(1.00, 0.00, -0.00, -1.00, 605.4, 27.8)">p</text><text xml:space="preserve" font-family="GillSans-Light,Gill Sans" font-size="20.0" fill="#525252" transform="matrix(1.00, 0.00, -0.00, -1.00, 615.6, 27.8)">i</text><text xml:space="preserve" font-family="GillSans-Light,Gill Sans" font-size="20.0" fill="#525252" transform="matrix(1.00, 0.00, -0.00, -1.00, 619.4, 27.8)">e</text><text xml:space="preserve" font-family="GillSans-Light,Gill Sans" font-size="20.0" fill="#525252" transform="matrix(1.00, 0.00, -0.00, -1.00, 629.0, 27.8)">g</text><text xml:space="preserve" font-family="GillSans-Light,Gill Sans" font-size="20.0" fill="#525252" transform="matrix(1.00, 0.00, -0.00, -1.00, 637.5, 27.8)">a</text><text xml:space="preserve" font-family="GillSans-Light,Gill Sans" font-size="20.0" fill="#525252" transform="matrix(1.00, 0.00, -0.00, -1.00, 646.0, 27.8)">z</text><text xml:space="preserve" font-family="GillSans-Light,Gill Sans" font-size="20.0" fill="#525252" transform="matrix(1.00, 0.00, -0.00, -1.00, 654.0, 27.8)">j</text><text xml:space="preserve" font-family="GillSans-Light,Gill Sans" font-size="20.0" fill="#525252" transform="matrix(1.00, 0.00, -0.00, -1.00, 657.7, 27.8)">u</text><text xml:space="preserve" font-family="GillSans-Light,Gill Sans" font-size="20.0" fill="#525252" transform="matrix(1.00, 0.00, -0.00, -1.00, 667.5, 27.8)">_</text><text xml:space="preserve" font-family="GillSans-Light,Gill Sans" font-size="20.0" fill="#525252" transform="matrix(1.00, 0.00, -0.00, -1.00, 677.5, 27.8)">s</text><text xml:space="preserve" font-family="GillSans-Light,Gill Sans" font-size="20.0" fill="#525252" transform="matrix(1.00, 0.00, -0.00, -1.00, 684.6, 27.8)">h</text><text xml:space="preserve" font-family="GillSans-Light,Gill Sans" font-size="20.0" fill="#525252" transform="matrix(1.00, 0.00, -0.00, -1.00, 694.4, 27.8)">e</text><text xml:space="preserve" font-family="GillSans-Light,Gill Sans" font-size="20.0" fill="#525252" transform="matrix(1.00, 0.00, -0.00, -1.00, 704.0, 27.8)">f</text><text xml:space="preserve" font-family="GillSans-Light,Gill Sans" font-size="20.0" fill="#525252" transform="matrix(1.00, 0.00, -0.00, -1.00, 708.8, 27.8)">s</text><g><clipPath id="clip0x7fe3a0b4cd80"><path d="M 776.0 115.0 L 946.0 115.0 L 946.0 344.0 L 776.0 344.0 Z M 776.0 115.0 "></path></clipPath><g clip-path="url(#clip0x7fe3a0b4cd80)"><path d="M 776.0 344.0 L 946.0 344.0 L 946.0 115.0 L 776.0 115.0 Z M 776.0 344.0 " fill="#FEFFFF" fill-opacity="0.00"></path><image xlink:href="C42428E753C3018D58B0048D8F5E6ABB.png" width="189.00" height="255.00" transform="matrix(0.90, 0.00, -0.00, -0.90, 776.0, 344.0)"></image></g></g><image xlink:href="8B1395994963FC90381A0BF9C87CD597.png" width="184.00" height="248.00" transform="matrix(1.00, 0.00, -0.00, 1.00, 769.0, 100.0)"></image><text xml:space="preserve" font-family="GillSans-Light,Gill Sans" font-size="36.0" fill="#525252" transform="matrix(1.00, 0.00, -0.00, -1.00, 814.6, 63.1)">A</text><text xml:space="preserve" font-family="GillSans-Light,Gill Sans" font-size="36.0" fill="#525252" transform="matrix(1.00, 0.00, -0.00, -1.00, 838.6, 63.1)">n</text><text xml:space="preserve" font-family="GillSans-Light,Gill Sans" font-size="36.0" fill="#525252" transform="matrix(1.00, 0.00, -0.00, -1.00, 856.2, 63.1)">d</text><text xml:space="preserve" font-family="GillSans-Light,Gill Sans" font-size="36.0" fill="#525252" transform="matrix(1.00, 0.00, -0.00, -1.00, 874.6, 63.1)">r</text><text xml:space="preserve" font-family="GillSans-Light,Gill Sans" font-size="36.0" fill="#525252" transform="matrix(1.00, 0.00, -0.00, -1.00, 887.5, 63.1)">i</text><text xml:space="preserve" font-family="GillSans-Light,Gill Sans" font-size="36.0" fill="#525252" transform="matrix(1.00, 0.00, -0.00, -1.00, 894.2, 63.1)">s</text><text xml:space="preserve" font-family="GillSans-Light,Gill Sans" font-size="20.0" fill="#525252" transform="matrix(1.00, 0.00, -0.00, -1.00, 798.9, 27.8)">#</text><text xml:space="preserve" font-family="GillSans-Light,Gill Sans" font-size="20.0" fill="#525252" transform="matrix(1.00, 0.00, -0.00, -1.00, 812.1, 27.8)">p</text><text xml:space="preserve" font-family="GillSans-Light,Gill Sans" font-size="20.0" fill="#525252" transform="matrix(1.00, 0.00, -0.00, -1.00, 822.3, 27.8)">i</text><text xml:space="preserve" font-family="GillSans-Light,Gill Sans" font-size="20.0" fill="#525252" transform="matrix(1.00, 0.00, -0.00, -1.00, 826.1, 27.8)">e</text><text xml:space="preserve" font-family="GillSans-Light,Gill Sans" font-size="20.0" fill="#525252" transform="matrix(1.00, 0.00, -0.00, -1.00, 835.7, 27.8)">g</text><text xml:space="preserve" font-family="GillSans-Light,Gill Sans" font-size="20.0" fill="#525252" transform="matrix(1.00, 0.00, -0.00, -1.00, 844.2, 27.8)">a</text><text xml:space="preserve" font-family="GillSans-Light,Gill Sans" font-size="20.0" fill="#525252" transform="matrix(1.00, 0.00, -0.00, -1.00, 852.7, 27.8)">z</text><text xml:space="preserve" font-family="GillSans-Light,Gill Sans" font-size="20.0" fill="#525252" transform="matrix(1.00, 0.00, -0.00, -1.00, 860.7, 27.8)">j</text><text xml:space="preserve" font-family="GillSans-Light,Gill Sans" font-size="20.0" fill="#525252" transform="matrix(1.00, 0.00, -0.00, -1.00, 864.4, 27.8)">u</text><text xml:space="preserve" font-family="GillSans-Light,Gill Sans" font-size="20.0" fill="#525252" transform="matrix(1.00, 0.00, -0.00, -1.00, 874.2, 27.8)">_</text><text xml:space="preserve" font-family="GillSans-Light,Gill Sans" font-size="20.0" fill="#525252" transform="matrix(1.00, 0.00, -0.00, -1.00, 884.2, 27.8)">s</text><text xml:space="preserve" font-family="GillSans-Light,Gill Sans" font-size="20.0" fill="#525252" transform="matrix(1.00, 0.00, -0.00, -1.00, 891.3, 27.8)">h</text><text xml:space="preserve" font-family="GillSans-Light,Gill Sans" font-size="20.0" fill="#525252" transform="matrix(1.00, 0.00, -0.00, -1.00, 901.1, 27.8)">e</text><text xml:space="preserve" font-family="GillSans-Light,Gill Sans" font-size="20.0" fill="#525252" transform="matrix(1.00, 0.00, -0.00, -1.00, 910.7, 27.8)">f</text><text xml:space="preserve" font-family="GillSans-Light,Gill Sans" font-size="20.0" fill="#525252" transform="matrix(1.00, 0.00, -0.00, -1.00, 915.5, 27.8)">s</text></g></svg>