<?xml version="1.0" encoding="UTF-8" standalone="no"?><svg xmlns="http://www.w3.org/2000/svg" xmlns:xlink="http://www.w3.org/1999/xlink" clip-rule="evenodd" stroke-miterlimit="10" viewBox="0 0 1024 768"><desc>SVG generated by Keynote</desc><defs></defs><g transform="matrix(1.00, 0.00, -0.00, -1.00, 0.0, 768.0)"><g><clipPath id="clip0x7fe3a0adef70"><path d="M 0.0 768.0 L 1024.0 768.0 L 1024.0 0.0 L 0.0 0.0 Z M 0.0 768.0 "></path></clipPath><g clip-path="url(#clip0x7fe3a0adef70)"><image xlink:href="574DCE55A4CF432400CBDDDE1DFDFC9B.jpeg" width="2048.00" height="1536.00" transform="matrix(0.50, 0.00, -0.00, -0.50, 0.0, 768.0)"></image></g></g><text xml:space="preserve" font-family="GillSans-Light,Gill Sans" font-size="450.0" fill="#525252" transform="matrix(1.00, 0.00, -0.00, -1.00, 287.0, 235.7)">1</text><text xml:space="preserve" font-family="GillSans-Light,Gill Sans" font-size="450.0" fill="#525252" transform="matrix(1.00, 0.00, -0.00, -1.00, 512.0, 235.7)">0</text><text xml:space="preserve" font-family="GillSans-Light,Gill Sans" font-size="69.0" fill="#525252" transform="matrix(0.00, 1.00, 1.00, -0.00, 385.4, 232.0)">K</text><text xml:space="preserve" font-family="GillSans-Light,Gill Sans" font-size="69.0" fill="#525252" transform="matrix(0.00, 1.00, 1.00, -0.00, 385.4, 268.6)">A</text><text xml:space="preserve" font-family="GillSans-Light,Gill Sans" font-size="69.0" fill="#525252" transform="matrix(0.00, 1.00, 1.00, -0.00, 385.4, 314.6)">S</text><text xml:space="preserve" font-family="GillSans-Light,Gill Sans" font-size="69.0" fill="#525252" transform="matrix(0.00, 1.00, 1.00, -0.00, 385.4, 347.0)">T</text><text xml:space="preserve" font-family="GillSans-Light,Gill Sans" font-size="69.0" fill="#525252" transform="matrix(0.00, 1.00, 1.00, -0.00, 385.4, 379.7)">A</text><text xml:space="preserve" font-family="GillSans-Light,Gill Sans" font-size="69.0" fill="#525252" transform="matrix(0.00, 1.00, 1.00, -0.00, 385.4, 425.7)">N</text><text xml:space="preserve" font-family="GillSans-Light,Gill Sans" font-size="69.0" fill="#525252" transform="matrix(0.00, 1.00, 1.00, -0.00, 385.4, 478.9)">I</text><text xml:space="preserve" font-family="GillSans-Light,Gill Sans" font-size="69.0" fill="#525252" transform="matrix(0.00, 1.00, 1.00, -0.00, 385.4, 493.2)">M</text></g></svg>