<?xml version="1.0" encoding="UTF-8" standalone="no"?><svg xmlns="http://www.w3.org/2000/svg" xmlns:xlink="http://www.w3.org/1999/xlink" clip-rule="evenodd" stroke-miterlimit="10" viewBox="0 0 1024 768"><desc>SVG generated by Keynote</desc><defs></defs><g transform="matrix(1.00, 0.00, -0.00, -1.00, 0.0, 768.0)"><g><clipPath id="clip0x7fe3a0d01dc0"><path d="M 0.0 768.0 L 1024.0 768.0 L 1024.0 0.0 L 0.0 0.0 Z M 0.0 768.0 "></path></clipPath><g clip-path="url(#clip0x7fe3a0d01dc0)"><image xlink:href="../../BE03AB4A-F5E0-4685-80C7-20DCBC62631F/assets/574DCE55A4CF432400CBDDDE1DFDFC9B.jpeg" width="2048.00" height="1536.00" transform="matrix(0.50, 0.00, -0.00, -0.50, 0.0, 768.0)"></image></g></g><text xml:space="preserve" font-family="GillSans-Light,Gill Sans" font-size="36.0" fill="#525252" transform="matrix(1.00, 0.00, -0.00, -1.00, 115.1, 433.8)">A</text><text xml:space="preserve" font-family="GillSans-Light,Gill Sans" font-size="36.0" fill="#525252" transform="matrix(1.00, 0.00, -0.00, -1.00, 139.1, 433.8)">n</text><text xml:space="preserve" font-family="GillSans-Light,Gill Sans" font-size="36.0" fill="#525252" transform="matrix(1.00, 0.00, -0.00, -1.00, 156.8, 433.8)">d</text><text xml:space="preserve" font-family="GillSans-Light,Gill Sans" font-size="36.0" fill="#525252" transform="matrix(1.00, 0.00, -0.00, -1.00, 175.1, 433.8)">r</text><text xml:space="preserve" font-family="GillSans-Light,Gill Sans" font-size="36.0" fill="#525252" transform="matrix(1.00, 0.00, -0.00, -1.00, 188.0, 433.8)">i</text><text xml:space="preserve" font-family="GillSans-Light,Gill Sans" font-size="36.0" fill="#525252" transform="matrix(1.00, 0.00, -0.00, -1.00, 194.7, 433.8)">s</text><text xml:space="preserve" font-family="GillSans-Light,Gill Sans" font-size="20.0" fill="#525252" transform="matrix(1.00, 0.00, -0.00, -1.00, 108.5, 398.5)">#</text><text xml:space="preserve" font-family="GillSans-Light,Gill Sans" font-size="20.0" fill="#525252" transform="matrix(1.00, 0.00, -0.00, -1.00, 121.8, 398.5)">s</text><text xml:space="preserve" font-family="GillSans-Light,Gill Sans" font-size="20.0" fill="#525252" transform="matrix(1.00, 0.00, -0.00, -1.00, 128.8, 398.5)">p</text><text xml:space="preserve" font-family="GillSans-Light,Gill Sans" font-size="20.0" fill="#525252" transform="matrix(1.00, 0.00, -0.00, -1.00, 139.0, 398.5)">o</text><text xml:space="preserve" font-family="GillSans-Light,Gill Sans" font-size="20.0" fill="#525252" transform="matrix(1.00, 0.00, -0.00, -1.00, 149.9, 398.5)">t</text><text xml:space="preserve" font-family="GillSans-Light,Gill Sans" font-size="20.0" fill="#525252" transform="matrix(1.00, 0.00, -0.00, -1.00, 155.9, 398.5)">i</text><text xml:space="preserve" font-family="GillSans-Light,Gill Sans" font-size="20.0" fill="#525252" transform="matrix(1.00, 0.00, -0.00, -1.00, 159.7, 398.5)">f</text><text xml:space="preserve" font-family="GillSans-Light,Gill Sans" font-size="20.0" fill="#525252" transform="matrix(1.00, 0.00, -0.00, -1.00, 164.5, 398.5)">y</text><text xml:space="preserve" font-family="GillSans-Light,Gill Sans" font-size="20.0" fill="#525252" transform="matrix(1.00, 0.00, -0.00, -1.00, 172.8, 398.5)">_</text><text xml:space="preserve" font-family="GillSans-Light,Gill Sans" font-size="20.0" fill="#525252" transform="matrix(1.00, 0.00, -0.00, -1.00, 182.8, 398.5)">t</text><text xml:space="preserve" font-family="GillSans-Light,Gill Sans" font-size="20.0" fill="#525252" transform="matrix(1.00, 0.00, -0.00, -1.00, 188.8, 398.5)">e</text><text xml:space="preserve" font-family="GillSans-Light,Gill Sans" font-size="20.0" fill="#525252" transform="matrix(1.00, 0.00, -0.00, -1.00, 198.4, 398.5)">v</text><text xml:space="preserve" font-family="GillSans-Light,Gill Sans" font-size="20.0" fill="#525252" transform="matrix(1.00, 0.00, -0.00, -1.00, 206.9, 398.5)">s</text><g><clipPath id="clip0x7fe3a0d10b10"><path d="M 73.0 490.0 L 250.0 490.0 L 250.0 710.0 L 73.0 710.0 Z M 73.0 490.0 "></path></clipPath><g clip-path="url(#clip0x7fe3a0d10b10)"><path d="M 73.0 710.0 L 250.0 710.0 L 250.0 490.0 L 73.0 490.0 Z M 73.0 710.0 " fill="#FEFFFF" fill-opacity="0.00"></path></g></g><g><clipPath id="clip0x7fe3a0d11cb0"><path d="M 73.0 490.0 L 250.0 490.0 L 250.0 710.0 L 73.0 710.0 Z M 73.0 490.0 "></path></clipPath><g clip-path="url(#clip0x7fe3a0d11cb0)"><image xlink:href="1BF58642427DDF2EFF572A26F9702603.png" width="198.00" height="246.00" transform="matrix(0.89, 0.00, -0.00, -0.89, 73.0, 710.0)"></image></g></g><image xlink:href="19810D7F516E5BA1640D2CEAB2E6F7E2.png" width="191.00" height="239.00" transform="matrix(1.00, 0.00, -0.00, 1.00, 66.0, 475.0)"></image><g><clipPath id="clip0x7fe3a0cb4a40"><path d="M 418.0 490.0 L 606.0 490.0 L 606.0 711.0 L 418.0 711.0 Z M 418.0 490.0 "></path></clipPath><g clip-path="url(#clip0x7fe3a0cb4a40)"><path d="M 418.0 711.0 L 606.0 711.0 L 606.0 490.0 L 418.0 490.0 Z M 418.0 711.0 " fill="#FEFFFF" fill-opacity="0.00"></path><image xlink:href="E486131BFCEDF23EFBF308F937BAB5A2.png" width="217.00" height="255.00" transform="matrix(0.87, 0.00, -0.00, -0.87, 418.0, 711.0)"></image></g></g><image xlink:href="469498909CD9996CA96FF1DD30DABF81.png" width="202.00" height="240.00" transform="matrix(1.00, 0.00, -0.00, 1.00, 411.0, 475.0)"></image><text xml:space="preserve" font-family="GillSans-Light,Gill Sans" font-size="36.0" fill="#525252" transform="matrix(1.00, 0.00, -0.00, -1.00, 482.0, 434.5)">J</text><text xml:space="preserve" font-family="GillSans-Light,Gill Sans" font-size="36.0" fill="#525252" transform="matrix(1.00, 0.00, -0.00, -1.00, 489.5, 434.5)">ā</text><text xml:space="preserve" font-family="GillSans-Light,Gill Sans" font-size="36.0" fill="#525252" transform="matrix(1.00, 0.00, -0.00, -1.00, 504.8, 434.5)">n</text><text xml:space="preserve" font-family="GillSans-Light,Gill Sans" font-size="36.0" fill="#525252" transform="matrix(1.00, 0.00, -0.00, -1.00, 522.5, 434.5)">i</text><text xml:space="preserve" font-family="GillSans-Light,Gill Sans" font-size="36.0" fill="#525252" transform="matrix(1.00, 0.00, -0.00, -1.00, 529.3, 434.5)">s</text><text xml:space="preserve" font-family="GillSans-Light,Gill Sans" font-size="20.0" fill="#525252" transform="matrix(1.00, 0.00, -0.00, -1.00, 459.3, 398.5)">#</text><text xml:space="preserve" font-family="GillSans-Light,Gill Sans" font-size="20.0" fill="#525252" transform="matrix(1.00, 0.00, -0.00, -1.00, 472.5, 398.5)">s</text><text xml:space="preserve" font-family="GillSans-Light,Gill Sans" font-size="20.0" fill="#525252" transform="matrix(1.00, 0.00, -0.00, -1.00, 479.5, 398.5)">p</text><text xml:space="preserve" font-family="GillSans-Light,Gill Sans" font-size="20.0" fill="#525252" transform="matrix(1.00, 0.00, -0.00, -1.00, 489.7, 398.5)">o</text><text xml:space="preserve" font-family="GillSans-Light,Gill Sans" font-size="20.0" fill="#525252" transform="matrix(1.00, 0.00, -0.00, -1.00, 500.6, 398.5)">t</text><text xml:space="preserve" font-family="GillSans-Light,Gill Sans" font-size="20.0" fill="#525252" transform="matrix(1.00, 0.00, -0.00, -1.00, 506.6, 398.5)">i</text><text xml:space="preserve" font-family="GillSans-Light,Gill Sans" font-size="20.0" fill="#525252" transform="matrix(1.00, 0.00, -0.00, -1.00, 510.4, 398.5)">f</text><text xml:space="preserve" font-family="GillSans-Light,Gill Sans" font-size="20.0" fill="#525252" transform="matrix(1.00, 0.00, -0.00, -1.00, 515.2, 398.5)">y</text><text xml:space="preserve" font-family="GillSans-Light,Gill Sans" font-size="20.0" fill="#525252" transform="matrix(1.00, 0.00, -0.00, -1.00, 523.5, 398.5)">_</text><text xml:space="preserve" font-family="GillSans-Light,Gill Sans" font-size="20.0" fill="#525252" transform="matrix(1.00, 0.00, -0.00, -1.00, 533.5, 398.5)">t</text><text xml:space="preserve" font-family="GillSans-Light,Gill Sans" font-size="20.0" fill="#525252" transform="matrix(1.00, 0.00, -0.00, -1.00, 539.5, 398.5)">e</text><text xml:space="preserve" font-family="GillSans-Light,Gill Sans" font-size="20.0" fill="#525252" transform="matrix(1.00, 0.00, -0.00, -1.00, 549.1, 398.5)">v</text><text xml:space="preserve" font-family="GillSans-Light,Gill Sans" font-size="20.0" fill="#525252" transform="matrix(1.00, 0.00, -0.00, -1.00, 557.7, 398.5)">s</text><g><clipPath id="clip0x7fe3a0d1c450"><path d="M 774.0 490.0 L 934.0 490.0 L 934.0 710.0 L 774.0 710.0 Z M 774.0 490.0 "></path></clipPath><g clip-path="url(#clip0x7fe3a0d1c450)"><path d="M 774.0 710.0 L 934.0 710.0 L 934.0 490.0 L 774.0 490.0 Z M 774.0 710.0 " fill="#FEFFFF" fill-opacity="0.00"></path><image xlink:href="B11CDB30DEAF605C23E1851D120B00E6.png" width="179.00" height="246.00" transform="matrix(0.89, 0.00, -0.00, -0.89, 774.0, 710.0)"></image></g></g><image xlink:href="EB0115809AA3298C9F9ACB35C96772B6.png" width="174.00" height="239.00" transform="matrix(1.00, 0.00, -0.00, 1.00, 767.0, 475.0)"></image><g><clipPath id="clip0x7fe3a0cc8a90"><path d="M 75.0 125.0 L 247.0 125.0 L 247.0 345.0 L 75.0 345.0 Z M 75.0 125.0 "></path></clipPath><g clip-path="url(#clip0x7fe3a0cc8a90)"><path d="M 75.0 345.0 L 247.0 345.0 L 247.0 125.0 L 75.0 125.0 Z M 75.0 345.0 " fill="#FEFFFF" fill-opacity="0.00"></path></g></g><g><clipPath id="clip0x7fe3a0cc9380"><path d="M 75.0 125.0 L 247.0 125.0 L 247.0 345.0 L 75.0 345.0 Z M 75.0 125.0 "></path></clipPath><g clip-path="url(#clip0x7fe3a0cc9380)"><image xlink:href="F3EDEF3B67CE3BF51D5B7566FC3BBE3D.png" width="265.00" height="339.00" transform="matrix(0.65, 0.00, -0.00, -0.65, 75.0, 345.0)"></image></g></g><image xlink:href="7F4D75BC884CFD9262BB274DF24AF947.png" width="186.00" height="239.00" transform="matrix(1.00, 0.00, -0.00, 1.00, 68.0, 110.0)"></image><g><clipPath id="clip0x7fe3a0ccc310"><path d="M 405.0 132.0 L 619.0 132.0 L 619.0 339.0 L 405.0 339.0 Z M 405.0 132.0 "></path></clipPath><g clip-path="url(#clip0x7fe3a0ccc310)"><path d="M 405.0 339.0 L 619.0 339.0 L 619.0 132.0 L 405.0 132.0 Z M 405.0 339.0 " fill="#FEFFFF" fill-opacity="0.00"></path><image xlink:href="1AFC5A53FE1E7BE7F8702512F32CC649.png" width="249.00" height="241.00" transform="matrix(0.86, 0.00, -0.00, -0.86, 405.0, 339.0)"></image></g></g><image xlink:href="A03A684DBF347916124F8E3ABA8877E7.png" width="228.00" height="226.00" transform="matrix(1.00, 0.00, -0.00, 1.00, 398.0, 117.0)"></image><g><clipPath id="clip0x7fe39e75bd20"><path d="M 747.0 137.0 L 961.0 137.0 L 961.0 333.0 L 747.0 333.0 Z M 747.0 137.0 "></path></clipPath><g clip-path="url(#clip0x7fe39e75bd20)"><path d="M 747.0 333.0 L 961.0 333.0 L 961.0 137.0 L 747.0 137.0 Z M 747.0 333.0 " fill="#FEFFFF" fill-opacity="0.00"></path><image xlink:href="7899D5DD155B9E9B6ECD465E6C4A0109.png" width="269.00" height="247.00" transform="matrix(0.80, 0.00, -0.00, -0.79, 747.0, 333.0)"></image></g></g><image xlink:href="2929D1422813BC64835F666054AA097F.png" width="228.00" height="215.00" transform="matrix(1.00, 0.00, -0.00, 1.00, 740.0, 122.0)"></image><text xml:space="preserve" font-family="GillSans-Light,Gill Sans" font-size="36.0" fill="#525252" transform="matrix(1.00, 0.00, -0.00, -1.00, 802.5, 433.8)">M</text><text xml:space="preserve" font-family="GillSans-Light,Gill Sans" font-size="36.0" fill="#525252" transform="matrix(1.00, 0.00, -0.00, -1.00, 830.6, 433.8)">a</text><text xml:space="preserve" font-family="GillSans-Light,Gill Sans" font-size="36.0" fill="#525252" transform="matrix(1.00, 0.00, -0.00, -1.00, 846.0, 433.8)">d</text><text xml:space="preserve" font-family="GillSans-Light,Gill Sans" font-size="36.0" fill="#525252" transform="matrix(1.00, 0.00, -0.00, -1.00, 864.3, 433.8)">a</text><text xml:space="preserve" font-family="GillSans-Light,Gill Sans" font-size="36.0" fill="#525252" transform="matrix(1.00, 0.00, -0.00, -1.00, 879.7, 433.8)">r</text><text xml:space="preserve" font-family="GillSans-Light,Gill Sans" font-size="36.0" fill="#525252" transform="matrix(1.00, 0.00, -0.00, -1.00, 893.1, 433.8)">s</text><text xml:space="preserve" font-family="GillSans-Light,Gill Sans" font-size="20.0" fill="#525252" transform="matrix(1.00, 0.00, -0.00, -1.00, 801.5, 398.5)">#</text><text xml:space="preserve" font-family="GillSans-Light,Gill Sans" font-size="20.0" fill="#525252" transform="matrix(1.00, 0.00, -0.00, -1.00, 814.7, 398.5)">s</text><text xml:space="preserve" font-family="GillSans-Light,Gill Sans" font-size="20.0" fill="#525252" transform="matrix(1.00, 0.00, -0.00, -1.00, 821.8, 398.5)">p</text><text xml:space="preserve" font-family="GillSans-Light,Gill Sans" font-size="20.0" fill="#525252" transform="matrix(1.00, 0.00, -0.00, -1.00, 832.0, 398.5)">o</text><text xml:space="preserve" font-family="GillSans-Light,Gill Sans" font-size="20.0" fill="#525252" transform="matrix(1.00, 0.00, -0.00, -1.00, 842.8, 398.5)">t</text><text xml:space="preserve" font-family="GillSans-Light,Gill Sans" font-size="20.0" fill="#525252" transform="matrix(1.00, 0.00, -0.00, -1.00, 848.8, 398.5)">i</text><text xml:space="preserve" font-family="GillSans-Light,Gill Sans" font-size="20.0" fill="#525252" transform="matrix(1.00, 0.00, -0.00, -1.00, 852.6, 398.5)">f</text><text xml:space="preserve" font-family="GillSans-Light,Gill Sans" font-size="20.0" fill="#525252" transform="matrix(1.00, 0.00, -0.00, -1.00, 857.4, 398.5)">y</text><text xml:space="preserve" font-family="GillSans-Light,Gill Sans" font-size="20.0" fill="#525252" transform="matrix(1.00, 0.00, -0.00, -1.00, 865.7, 398.5)">_</text><text xml:space="preserve" font-family="GillSans-Light,Gill Sans" font-size="20.0" fill="#525252" transform="matrix(1.00, 0.00, -0.00, -1.00, 875.7, 398.5)">t</text><text xml:space="preserve" font-family="GillSans-Light,Gill Sans" font-size="20.0" fill="#525252" transform="matrix(1.00, 0.00, -0.00, -1.00, 881.8, 398.5)">e</text><text xml:space="preserve" font-family="GillSans-Light,Gill Sans" font-size="20.0" fill="#525252" transform="matrix(1.00, 0.00, -0.00, -1.00, 891.3, 398.5)">v</text><text xml:space="preserve" font-family="GillSans-Light,Gill Sans" font-size="20.0" fill="#525252" transform="matrix(1.00, 0.00, -0.00, -1.00, 899.9, 398.5)">s</text><text xml:space="preserve" font-family="GillSans-Light,Gill Sans" font-size="36.0" fill="#525252" transform="matrix(1.00, 0.00, -0.00, -1.00, 124.2, 68.0)">K</text><text xml:space="preserve" font-family="GillSans-Light,Gill Sans" font-size="36.0" fill="#525252" transform="matrix(1.00, 0.00, -0.00, -1.00, 143.3, 68.0)">ā</text><text xml:space="preserve" font-family="GillSans-Light,Gill Sans" font-size="36.0" fill="#525252" transform="matrix(1.00, 0.00, -0.00, -1.00, 158.7, 68.0)">r</text><text xml:space="preserve" font-family="GillSans-Light,Gill Sans" font-size="36.0" fill="#525252" transform="matrix(1.00, 0.00, -0.00, -1.00, 172.1, 68.0)">l</text><text xml:space="preserve" font-family="GillSans-Light,Gill Sans" font-size="36.0" fill="#525252" transform="matrix(1.00, 0.00, -0.00, -1.00, 178.8, 68.0)">i</text><text xml:space="preserve" font-family="GillSans-Light,Gill Sans" font-size="36.0" fill="#525252" transform="matrix(1.00, 0.00, -0.00, -1.00, 185.6, 68.0)">s</text><text xml:space="preserve" font-family="GillSans-Light,Gill Sans" font-size="20.0" fill="#525252" transform="matrix(1.00, 0.00, -0.00, -1.00, 99.2, 32.8)">#</text><text xml:space="preserve" font-family="GillSans-Light,Gill Sans" font-size="20.0" fill="#525252" transform="matrix(1.00, 0.00, -0.00, -1.00, 112.4, 32.8)">j</text><text xml:space="preserve" font-family="GillSans-Light,Gill Sans" font-size="20.0" fill="#525252" transform="matrix(1.00, 0.00, -0.00, -1.00, 116.1, 32.8)">a</text><text xml:space="preserve" font-family="GillSans-Light,Gill Sans" font-size="20.0" fill="#525252" transform="matrix(1.00, 0.00, -0.00, -1.00, 124.7, 32.8)">u</text><text xml:space="preserve" font-family="GillSans-Light,Gill Sans" font-size="20.0" fill="#525252" transform="matrix(1.00, 0.00, -0.00, -1.00, 134.5, 32.8)">n</text><text xml:space="preserve" font-family="GillSans-Light,Gill Sans" font-size="20.0" fill="#525252" transform="matrix(1.00, 0.00, -0.00, -1.00, 144.3, 32.8)">a</text><text xml:space="preserve" font-family="GillSans-Light,Gill Sans" font-size="20.0" fill="#525252" transform="matrix(1.00, 0.00, -0.00, -1.00, 152.8, 32.8)">i</text><text xml:space="preserve" font-family="GillSans-Light,Gill Sans" font-size="20.0" fill="#525252" transform="matrix(1.00, 0.00, -0.00, -1.00, 156.6, 32.8)">s</text><text xml:space="preserve" font-family="GillSans-Light,Gill Sans" font-size="20.0" fill="#525252" transform="matrix(1.00, 0.00, -0.00, -1.00, 163.6, 32.8)">_</text><text xml:space="preserve" font-family="GillSans-Light,Gill Sans" font-size="20.0" fill="#525252" transform="matrix(1.00, 0.00, -0.00, -1.00, 173.6, 32.8)">t</text><text xml:space="preserve" font-family="GillSans-Light,Gill Sans" font-size="20.0" fill="#525252" transform="matrix(1.00, 0.00, -0.00, -1.00, 179.7, 32.8)">a</text><text xml:space="preserve" font-family="GillSans-Light,Gill Sans" font-size="20.0" fill="#525252" transform="matrix(1.00, 0.00, -0.00, -1.00, 188.2, 32.8)">l</text><text xml:space="preserve" font-family="GillSans-Light,Gill Sans" font-size="20.0" fill="#525252" transform="matrix(1.00, 0.00, -0.00, -1.00, 192.0, 32.8)">a</text><text xml:space="preserve" font-family="GillSans-Light,Gill Sans" font-size="20.0" fill="#525252" transform="matrix(1.00, 0.00, -0.00, -1.00, 200.5, 32.8)">n</text><text xml:space="preserve" font-family="GillSans-Light,Gill Sans" font-size="20.0" fill="#525252" transform="matrix(1.00, 0.00, -0.00, -1.00, 210.3, 32.8)">t</text><text xml:space="preserve" font-family="GillSans-Light,Gill Sans" font-size="20.0" fill="#525252" transform="matrix(1.00, 0.00, -0.00, -1.00, 216.3, 32.8)">s</text><text xml:space="preserve" font-family="GillSans-Light,Gill Sans" font-size="36.0" fill="#525252" transform="matrix(1.00, 0.00, -0.00, -1.00, 462.0, 68.0)">V</text><text xml:space="preserve" font-family="GillSans-Light,Gill Sans" font-size="36.0" fill="#525252" transform="matrix(1.00, 0.00, -0.00, -1.00, 483.4, 68.0)">i</text><text xml:space="preserve" font-family="GillSans-Light,Gill Sans" font-size="36.0" fill="#525252" transform="matrix(1.00, 0.00, -0.00, -1.00, 490.1, 68.0)">k</text><text xml:space="preserve" font-family="GillSans-Light,Gill Sans" font-size="36.0" fill="#525252" transform="matrix(1.00, 0.00, -0.00, -1.00, 505.5, 68.0)">t</text><text xml:space="preserve" font-family="GillSans-Light,Gill Sans" font-size="36.0" fill="#525252" transform="matrix(1.00, 0.00, -0.00, -1.00, 516.3, 68.0)">o</text><text xml:space="preserve" font-family="GillSans-Light,Gill Sans" font-size="36.0" fill="#525252" transform="matrix(1.00, 0.00, -0.00, -1.00, 535.9, 68.0)">r</text><text xml:space="preserve" font-family="GillSans-Light,Gill Sans" font-size="36.0" fill="#525252" transform="matrix(1.00, 0.00, -0.00, -1.00, 549.3, 68.0)">s</text><text xml:space="preserve" font-family="GillSans-Light,Gill Sans" font-size="36.0" fill="#525252" transform="matrix(1.00, 0.00, -0.00, -1.00, 817.1, 68.0)">K</text><text xml:space="preserve" font-family="GillSans-Light,Gill Sans" font-size="36.0" fill="#525252" transform="matrix(1.00, 0.00, -0.00, -1.00, 836.2, 68.0)">ā</text><text xml:space="preserve" font-family="GillSans-Light,Gill Sans" font-size="36.0" fill="#525252" transform="matrix(1.00, 0.00, -0.00, -1.00, 851.6, 68.0)">r</text><text xml:space="preserve" font-family="GillSans-Light,Gill Sans" font-size="36.0" fill="#525252" transform="matrix(1.00, 0.00, -0.00, -1.00, 865.0, 68.0)">l</text><text xml:space="preserve" font-family="GillSans-Light,Gill Sans" font-size="36.0" fill="#525252" transform="matrix(1.00, 0.00, -0.00, -1.00, 871.8, 68.0)">i</text><text xml:space="preserve" font-family="GillSans-Light,Gill Sans" font-size="36.0" fill="#525252" transform="matrix(1.00, 0.00, -0.00, -1.00, 878.6, 68.0)">s</text><text xml:space="preserve" font-family="GillSans-Light,Gill Sans" font-size="20.0" fill="#525252" transform="matrix(1.00, 0.00, -0.00, -1.00, 449.9, 31.8)">#</text><text xml:space="preserve" font-family="GillSans-Light,Gill Sans" font-size="20.0" fill="#525252" transform="matrix(1.00, 0.00, -0.00, -1.00, 463.1, 31.8)">j</text><text xml:space="preserve" font-family="GillSans-Light,Gill Sans" font-size="20.0" fill="#525252" transform="matrix(1.00, 0.00, -0.00, -1.00, 466.8, 31.8)">a</text><text xml:space="preserve" font-family="GillSans-Light,Gill Sans" font-size="20.0" fill="#525252" transform="matrix(1.00, 0.00, -0.00, -1.00, 475.4, 31.8)">u</text><text xml:space="preserve" font-family="GillSans-Light,Gill Sans" font-size="20.0" fill="#525252" transform="matrix(1.00, 0.00, -0.00, -1.00, 485.2, 31.8)">n</text><text xml:space="preserve" font-family="GillSans-Light,Gill Sans" font-size="20.0" fill="#525252" transform="matrix(1.00, 0.00, -0.00, -1.00, 495.0, 31.8)">a</text><text xml:space="preserve" font-family="GillSans-Light,Gill Sans" font-size="20.0" fill="#525252" transform="matrix(1.00, 0.00, -0.00, -1.00, 503.5, 31.8)">i</text><text xml:space="preserve" font-family="GillSans-Light,Gill Sans" font-size="20.0" fill="#525252" transform="matrix(1.00, 0.00, -0.00, -1.00, 507.3, 31.8)">s</text><text xml:space="preserve" font-family="GillSans-Light,Gill Sans" font-size="20.0" fill="#525252" transform="matrix(1.00, 0.00, -0.00, -1.00, 514.4, 31.8)">_</text><text xml:space="preserve" font-family="GillSans-Light,Gill Sans" font-size="20.0" fill="#525252" transform="matrix(1.00, 0.00, -0.00, -1.00, 524.4, 31.8)">t</text><text xml:space="preserve" font-family="GillSans-Light,Gill Sans" font-size="20.0" fill="#525252" transform="matrix(1.00, 0.00, -0.00, -1.00, 530.4, 31.8)">a</text><text xml:space="preserve" font-family="GillSans-Light,Gill Sans" font-size="20.0" fill="#525252" transform="matrix(1.00, 0.00, -0.00, -1.00, 538.9, 31.8)">l</text><text xml:space="preserve" font-family="GillSans-Light,Gill Sans" font-size="20.0" fill="#525252" transform="matrix(1.00, 0.00, -0.00, -1.00, 542.7, 31.8)">a</text><text xml:space="preserve" font-family="GillSans-Light,Gill Sans" font-size="20.0" fill="#525252" transform="matrix(1.00, 0.00, -0.00, -1.00, 551.2, 31.8)">n</text><text xml:space="preserve" font-family="GillSans-Light,Gill Sans" font-size="20.0" fill="#525252" transform="matrix(1.00, 0.00, -0.00, -1.00, 561.0, 31.8)">t</text><text xml:space="preserve" font-family="GillSans-Light,Gill Sans" font-size="20.0" fill="#525252" transform="matrix(1.00, 0.00, -0.00, -1.00, 567.0, 31.8)">s</text><text xml:space="preserve" font-family="GillSans-Light,Gill Sans" font-size="20.0" fill="#525252" transform="matrix(1.00, 0.00, -0.00, -1.00, 792.1, 31.8)">#</text><text xml:space="preserve" font-family="GillSans-Light,Gill Sans" font-size="20.0" fill="#525252" transform="matrix(1.00, 0.00, -0.00, -1.00, 805.3, 31.8)">j</text><text xml:space="preserve" font-family="GillSans-Light,Gill Sans" font-size="20.0" fill="#525252" transform="matrix(1.00, 0.00, -0.00, -1.00, 809.1, 31.8)">a</text><text xml:space="preserve" font-family="GillSans-Light,Gill Sans" font-size="20.0" fill="#525252" transform="matrix(1.00, 0.00, -0.00, -1.00, 817.6, 31.8)">u</text><text xml:space="preserve" font-family="GillSans-Light,Gill Sans" font-size="20.0" fill="#525252" transform="matrix(1.00, 0.00, -0.00, -1.00, 827.4, 31.8)">n</text><text xml:space="preserve" font-family="GillSans-Light,Gill Sans" font-size="20.0" fill="#525252" transform="matrix(1.00, 0.00, -0.00, -1.00, 837.2, 31.8)">a</text><text xml:space="preserve" font-family="GillSans-Light,Gill Sans" font-size="20.0" fill="#525252" transform="matrix(1.00, 0.00, -0.00, -1.00, 845.7, 31.8)">i</text><text xml:space="preserve" font-family="GillSans-Light,Gill Sans" font-size="20.0" fill="#525252" transform="matrix(1.00, 0.00, -0.00, -1.00, 849.5, 31.8)">s</text><text xml:space="preserve" font-family="GillSans-Light,Gill Sans" font-size="20.0" fill="#525252" transform="matrix(1.00, 0.00, -0.00, -1.00, 856.6, 31.8)">_</text><text xml:space="preserve" font-family="GillSans-Light,Gill Sans" font-size="20.0" fill="#525252" transform="matrix(1.00, 0.00, -0.00, -1.00, 866.6, 31.8)">t</text><text xml:space="preserve" font-family="GillSans-Light,Gill Sans" font-size="20.0" fill="#525252" transform="matrix(1.00, 0.00, -0.00, -1.00, 872.6, 31.8)">a</text><text xml:space="preserve" font-family="GillSans-Light,Gill Sans" font-size="20.0" fill="#525252" transform="matrix(1.00, 0.00, -0.00, -1.00, 881.1, 31.8)">l</text><text xml:space="preserve" font-family="GillSans-Light,Gill Sans" font-size="20.0" fill="#525252" transform="matrix(1.00, 0.00, -0.00, -1.00, 884.9, 31.8)">a</text><text xml:space="preserve" font-family="GillSans-Light,Gill Sans" font-size="20.0" fill="#525252" transform="matrix(1.00, 0.00, -0.00, -1.00, 893.4, 31.8)">n</text><text xml:space="preserve" font-family="GillSans-Light,Gill Sans" font-size="20.0" fill="#525252" transform="matrix(1.00, 0.00, -0.00, -1.00, 903.2, 31.8)">t</text><text xml:space="preserve" font-family="GillSans-Light,Gill Sans" font-size="20.0" fill="#525252" transform="matrix(1.00, 0.00, -0.00, -1.00, 909.3, 31.8)">s</text></g></svg>