<?xml version="1.0" encoding="UTF-8" standalone="no"?><svg xmlns="http://www.w3.org/2000/svg" xmlns:xlink="http://www.w3.org/1999/xlink" clip-rule="evenodd" stroke-miterlimit="10" viewBox="0 0 1024 768"><desc>SVG generated by Keynote</desc><defs></defs><g transform="matrix(1.00, 0.00, -0.00, -1.00, 0.0, 768.0)"><g><clipPath id="clip0x7fe3825d8400"><path d="M 0.0 768.0 L 1024.0 768.0 L 1024.0 0.0 L 0.0 0.0 Z M 0.0 768.0 "></path></clipPath><g clip-path="url(#clip0x7fe3825d8400)"><image xlink:href="../../BE03AB4A-F5E0-4685-80C7-20DCBC62631F/assets/574DCE55A4CF432400CBDDDE1DFDFC9B.jpeg" width="2048.00" height="1536.00" transform="matrix(0.50, 0.00, -0.00, -0.50, 0.0, 768.0)"></image></g></g><text xml:space="preserve" font-family="GillSans-Light,Gill Sans" font-size="55.0" fill="#525252" transform="matrix(1.00, 0.00, -0.00, -1.00, 299.1, 366.1)">S</text><text xml:space="preserve" font-family="GillSans-Light,Gill Sans" font-size="55.0" fill="#525252" transform="matrix(1.00, 0.00, -0.00, -1.00, 324.9, 366.1)">p</text><text xml:space="preserve" font-family="GillSans-Light,Gill Sans" font-size="55.0" fill="#525252" transform="matrix(1.00, 0.00, -0.00, -1.00, 352.9, 366.1)">ē</text><text xml:space="preserve" font-family="GillSans-Light,Gill Sans" font-size="55.0" fill="#525252" transform="matrix(1.00, 0.00, -0.00, -1.00, 379.3, 366.1)">j</text><text xml:space="preserve" font-family="GillSans-Light,Gill Sans" font-size="55.0" fill="#525252" transform="matrix(1.00, 0.00, -0.00, -1.00, 389.6, 366.1)">a</text><text xml:space="preserve" font-family="GillSans-Light,Gill Sans" font-size="55.0" fill="#525252" transform="matrix(1.00, 0.00, -0.00, -1.00, 413.1, 366.1)"> </text><text xml:space="preserve" font-family="GillSans-Light,Gill Sans" font-size="55.0" fill="#525252" transform="matrix(1.00, 0.00, -0.00, -1.00, 428.4, 366.1)">b</text><text xml:space="preserve" font-family="GillSans-Light,Gill Sans" font-size="55.0" fill="#525252" transform="matrix(1.00, 0.00, -0.00, -1.00, 456.4, 366.1)">ū</text><text xml:space="preserve" font-family="GillSans-Light,Gill Sans" font-size="55.0" fill="#525252" transform="matrix(1.00, 0.00, -0.00, -1.00, 483.4, 366.1)">t</text><text xml:space="preserve" font-family="GillSans-Light,Gill Sans" font-size="55.0" fill="#525252" transform="matrix(1.00, 0.00, -0.00, -1.00, 499.9, 366.1)"> </text><text xml:space="preserve" font-family="GillSans-Light,Gill Sans" font-size="55.0" fill="#525252" transform="matrix(1.00, 0.00, -0.00, -1.00, 515.2, 366.1)">s</text><text xml:space="preserve" font-family="GillSans-Light,Gill Sans" font-size="55.0" fill="#525252" transform="matrix(1.00, 0.00, -0.00, -1.00, 534.7, 366.1)">p</text><text xml:space="preserve" font-family="GillSans-Light,Gill Sans" font-size="55.0" fill="#525252" transform="matrix(1.00, 0.00, -0.00, -1.00, 562.7, 366.1)">ē</text><text xml:space="preserve" font-family="GillSans-Light,Gill Sans" font-size="55.0" fill="#525252" transform="matrix(1.00, 0.00, -0.00, -1.00, 589.1, 366.1)">c</text><text xml:space="preserve" font-family="GillSans-Light,Gill Sans" font-size="55.0" fill="#525252" transform="matrix(1.00, 0.00, -0.00, -1.00, 612.0, 366.1)">ī</text><text xml:space="preserve" font-family="GillSans-Light,Gill Sans" font-size="55.0" fill="#525252" transform="matrix(1.00, 0.00, -0.00, -1.00, 622.3, 366.1)">g</text><text xml:space="preserve" font-family="GillSans-Light,Gill Sans" font-size="55.0" fill="#525252" transform="matrix(1.00, 0.00, -0.00, -1.00, 645.8, 366.1)">i</text><text xml:space="preserve" font-family="GillSans-Light,Gill Sans" font-size="55.0" fill="#525252" transform="matrix(1.00, 0.00, -0.00, -1.00, 656.1, 366.1)">e</text><text xml:space="preserve" font-family="GillSans-Light,Gill Sans" font-size="55.0" fill="#525252" transform="matrix(1.00, 0.00, -0.00, -1.00, 682.5, 366.1)">m</text><g><clipPath id="clip0x7fe3826a0dc0"><path d="M 28.0 213.0 L 720.0 213.0 L 720.0 732.0 L 28.0 732.0 Z M 28.0 213.0 "></path></clipPath><g clip-path="url(#clip0x7fe3826a0dc0)"><path d="M 28.0 732.0 L 720.0 732.0 L 720.0 213.0 L 28.0 213.0 Z M 28.0 732.0 " fill="#FEFFFF" fill-opacity="0.00"></path></g></g><g><clipPath id="clip0x7fe3826a1fa0"><path d="M 28.0 213.0 L 720.0 213.0 L 720.0 732.0 L 28.0 732.0 Z M 28.0 213.0 "></path></clipPath><g clip-path="url(#clip0x7fe3826a1fa0)"><image xlink:href="../../83C4B8F7-3B95-4AD3-8D2D-165ED6D4ABC3/assets/5D8E10B402A55EE0767742E81D9D5C30.png" width="692.00" height="519.00" transform="matrix(1.00, 0.00, -0.00, -1.00, 28.0, 732.0)"></image></g></g><image xlink:href="../../2198CBDD-C4ED-4CEE-9D69-3F4F05B91592/assets/FE80839DC002D4D6BC614D23FD80B140.png" width="706.00" height="538.00" transform="matrix(1.00, 0.00, -0.00, 1.00, 21.0, 198.0)"></image><g><clipPath id="clip0x7fe3825d9270"><path d="M 298.0 186.0 L 990.0 186.0 L 990.0 647.0 L 298.0 647.0 Z M 298.0 186.0 "></path></clipPath><g clip-path="url(#clip0x7fe3825d9270)"><path d="M 298.0 647.0 L 990.0 647.0 L 990.0 186.0 L 298.0 186.0 Z M 298.0 647.0 " fill="#FEFFFF" fill-opacity="0.00"></path></g></g><g><clipPath id="clip0x7fe3825e25b0"><path d="M 298.0 186.0 L 990.0 186.0 L 990.0 647.0 L 298.0 647.0 Z M 298.0 186.0 "></path></clipPath><g clip-path="url(#clip0x7fe3825e25b0)"><image xlink:href="../../83C4B8F7-3B95-4AD3-8D2D-165ED6D4ABC3/assets/E54BC4AE71341697587BD341CB87F5F4.png" width="692.00" height="461.00" transform="matrix(1.00, 0.00, -0.00, -1.00, 298.0, 647.0)"></image></g></g><image xlink:href="../../83C4B8F7-3B95-4AD3-8D2D-165ED6D4ABC3/assets/CBF9F7DD38D9B35517CB3B1D50A7C61D.png" width="706.00" height="480.00" transform="matrix(1.00, 0.00, -0.00, 1.00, 291.0, 171.0)"></image><g><clipPath id="clip0x7fe3826a4590"><path d="M 96.0 27.0 L 788.0 27.0 L 788.0 546.0 L 96.0 546.0 Z M 96.0 27.0 "></path></clipPath><g clip-path="url(#clip0x7fe3826a4590)"><path d="M 96.0 546.0 L 788.0 546.0 L 788.0 27.0 L 96.0 27.0 Z M 96.0 546.0 " fill="#FEFFFF" fill-opacity="0.00"></path></g></g><g><clipPath id="clip0x7fe3826a5d70"><path d="M 96.0 27.0 L 788.0 27.0 L 788.0 546.0 L 96.0 546.0 Z M 96.0 27.0 "></path></clipPath><g clip-path="url(#clip0x7fe3826a5d70)"><image xlink:href="../../83C4B8F7-3B95-4AD3-8D2D-165ED6D4ABC3/assets/8F48242A0C662C35C1E51C4E3F1DC469.png" width="692.00" height="519.00" transform="matrix(1.00, 0.00, -0.00, -1.00, 96.0, 546.0)"></image></g></g><image xlink:href="../../2198CBDD-C4ED-4CEE-9D69-3F4F05B91592/assets/FE80839DC002D4D6BC614D23FD80B140.png" width="706.00" height="538.00" transform="matrix(1.00, 0.00, -0.00, 1.00, 89.0, 12.0)"></image></g></svg>