<?xml version="1.0" encoding="UTF-8" standalone="no"?><svg xmlns="http://www.w3.org/2000/svg" xmlns:xlink="http://www.w3.org/1999/xlink" clip-rule="evenodd" stroke-miterlimit="10" viewBox="0 0 1024 768"><desc>SVG generated by Keynote</desc><defs></defs><g transform="matrix(1.00, 0.00, -0.00, -1.00, 0.0, 768.0)"><g><clipPath id="clip0x7fe3a1f1a040"><path d="M 0.0 768.0 L 1024.0 768.0 L 1024.0 0.0 L 0.0 0.0 Z M 0.0 768.0 "></path></clipPath><g clip-path="url(#clip0x7fe3a1f1a040)"><image xlink:href="../../BE03AB4A-F5E0-4685-80C7-20DCBC62631F/assets/574DCE55A4CF432400CBDDDE1DFDFC9B.jpeg" width="2048.00" height="1536.00" transform="matrix(0.50, 0.00, -0.00, -0.50, 0.0, 768.0)"></image></g></g><text xml:space="preserve" font-family="HelveticaNeue-Thin,Helvetica Neue" font-size="55.0" fill="#525252" transform="matrix(1.00, 0.00, -0.00, -1.00, 314.8, 363.0)">S</text><text xml:space="preserve" font-family="HelveticaNeue-Thin,Helvetica Neue" font-size="55.0" fill="#525252" transform="matrix(1.00, 0.00, -0.00, -1.00, 349.4, 363.0)">p</text><text xml:space="preserve" font-family="HelveticaNeue-Thin,Helvetica Neue" font-size="55.0" fill="#525252" transform="matrix(1.00, 0.00, -0.00, -1.00, 380.0, 363.0)">ē</text><text xml:space="preserve" font-family="HelveticaNeue-Thin,Helvetica Neue" font-size="55.0" fill="#525252" transform="matrix(1.00, 0.00, -0.00, -1.00, 408.5, 363.0)">j</text><text xml:space="preserve" font-family="HelveticaNeue-Thin,Helvetica Neue" font-size="55.0" fill="#525252" transform="matrix(1.00, 0.00, -0.00, -1.00, 417.8, 363.0)">a</text><text xml:space="preserve" font-family="HelveticaNeue-Thin,Helvetica Neue" font-size="55.0" fill="#525252" transform="matrix(1.00, 0.00, -0.00, -1.00, 445.3, 363.0)"> </text><text xml:space="preserve" font-family="HelveticaNeue-Thin,Helvetica Neue" font-size="55.0" fill="#525252" transform="matrix(1.00, 0.00, -0.00, -1.00, 460.6, 363.0)">s</text><text xml:space="preserve" font-family="HelveticaNeue-Thin,Helvetica Neue" font-size="55.0" fill="#525252" transform="matrix(1.00, 0.00, -0.00, -1.00, 487.0, 363.0)">a</text><text xml:space="preserve" font-family="HelveticaNeue-Thin,Helvetica Neue" font-size="55.0" fill="#525252" transform="matrix(1.00, 0.00, -0.00, -1.00, 514.5, 363.0)">v</text><text xml:space="preserve" font-family="HelveticaNeue-Thin,Helvetica Neue" font-size="55.0" fill="#525252" transform="matrix(1.00, 0.00, -0.00, -1.00, 539.0, 363.0)">a</text><text xml:space="preserve" font-family="HelveticaNeue-Thin,Helvetica Neue" font-size="55.0" fill="#525252" transform="matrix(1.00, 0.00, -0.00, -1.00, 566.5, 363.0)">l</text><text xml:space="preserve" font-family="HelveticaNeue-Thin,Helvetica Neue" font-size="55.0" fill="#525252" transform="matrix(1.00, 0.00, -0.00, -1.00, 575.7, 363.0)">d</text><text xml:space="preserve" font-family="HelveticaNeue-Thin,Helvetica Neue" font-size="55.0" fill="#525252" transform="matrix(1.00, 0.00, -0.00, -1.00, 606.3, 363.0)">z</text><text xml:space="preserve" font-family="HelveticaNeue-Thin,Helvetica Neue" font-size="55.0" fill="#525252" transform="matrix(1.00, 0.00, -0.00, -1.00, 629.7, 363.0)">i</text><text xml:space="preserve" font-family="HelveticaNeue-Thin,Helvetica Neue" font-size="55.0" fill="#525252" transform="matrix(1.00, 0.00, -0.00, -1.00, 638.9, 363.0)">n</text><text xml:space="preserve" font-family="HelveticaNeue-Thin,Helvetica Neue" font-size="55.0" fill="#525252" transform="matrix(1.00, 0.00, -0.00, -1.00, 667.5, 363.0)">ā</text><text xml:space="preserve" font-family="HelveticaNeue-Thin,Helvetica Neue" font-size="55.0" fill="#525252" transform="matrix(1.00, 0.00, -0.00, -1.00, 695.0, 363.0)">t</text><g><clipPath id="clip0x7fe3a1348860"><path d="M 38.0 222.0 L 730.0 222.0 L 730.0 741.0 L 38.0 741.0 Z M 38.0 222.0 "></path></clipPath><g clip-path="url(#clip0x7fe3a1348860)"><path d="M 38.0 741.0 L 730.0 741.0 L 730.0 222.0 L 38.0 222.0 Z M 38.0 741.0 " fill="#FEFFFF" fill-opacity="0.00"></path></g></g><g><clipPath id="clip0x7fe3a1349a30"><path d="M 38.0 222.0 L 730.0 222.0 L 730.0 741.0 L 38.0 741.0 Z M 38.0 222.0 "></path></clipPath><g clip-path="url(#clip0x7fe3a1349a30)"><image xlink:href="../../C6014E59-049E-479E-AD04-E6B0DCA16AD3/assets/73C6868EEBA4AD1D709C39F31224E646.png" width="692.00" height="519.00" transform="matrix(1.00, 0.00, -0.00, -1.00, 38.0, 741.0)"></image></g></g><image xlink:href="../../2198CBDD-C4ED-4CEE-9D69-3F4F05B91592/assets/FE80839DC002D4D6BC614D23FD80B140.png" width="706.00" height="538.00" transform="matrix(1.00, 0.00, -0.00, 1.00, 31.0, 207.0)"></image><g><clipPath id="clip0x7fe3a134aff0"><path d="M 81.0 58.0 L 773.0 58.0 L 773.0 577.0 L 81.0 577.0 Z M 81.0 58.0 "></path></clipPath><g clip-path="url(#clip0x7fe3a134aff0)"><path d="M 81.0 577.0 L 773.0 577.0 L 773.0 58.0 L 81.0 58.0 Z M 81.0 577.0 " fill="#FEFFFF" fill-opacity="0.00"></path></g></g><g><clipPath id="clip0x7fe3a134c2f0"><path d="M 81.0 58.0 L 773.0 58.0 L 773.0 577.0 L 81.0 577.0 Z M 81.0 58.0 "></path></clipPath><g clip-path="url(#clip0x7fe3a134c2f0)"><image xlink:href="../../C6014E59-049E-479E-AD04-E6B0DCA16AD3/assets/F272DF02299F8FC245471D6DC5ACA590.png" width="692.00" height="519.00" transform="matrix(1.00, 0.00, -0.00, -1.00, 81.0, 577.0)"></image></g></g><image xlink:href="../../2198CBDD-C4ED-4CEE-9D69-3F4F05B91592/assets/FE80839DC002D4D6BC614D23FD80B140.png" width="706.00" height="538.00" transform="matrix(1.00, 0.00, -0.00, 1.00, 74.0, 43.0)"></image><g><clipPath id="clip0x7fe3a1f1d5e0"><path d="M 302.0 204.0 L 994.0 204.0 L 994.0 723.0 L 302.0 723.0 Z M 302.0 204.0 "></path></clipPath><g clip-path="url(#clip0x7fe3a1f1d5e0)"><path d="M 302.0 723.0 L 994.0 723.0 L 994.0 204.0 L 302.0 204.0 Z M 302.0 723.0 " fill="#FEFFFF" fill-opacity="0.00"></path></g></g><g><clipPath id="clip0x7fe3a1f1e800"><path d="M 302.0 204.0 L 994.0 204.0 L 994.0 723.0 L 302.0 723.0 Z M 302.0 204.0 "></path></clipPath><g clip-path="url(#clip0x7fe3a1f1e800)"><image xlink:href="../../C6014E59-049E-479E-AD04-E6B0DCA16AD3/assets/3BB54BCCB7EF81DDA06384AC147268A1.png" width="692.00" height="519.00" transform="matrix(1.00, 0.00, -0.00, -1.00, 302.0, 723.0)"></image></g></g><image xlink:href="../../2198CBDD-C4ED-4CEE-9D69-3F4F05B91592/assets/FE80839DC002D4D6BC614D23FD80B140.png" width="706.00" height="538.00" transform="matrix(1.00, 0.00, -0.00, 1.00, 295.0, 189.0)"></image><g><clipPath id="clip0x7fe3a1f20390"><path d="M 323.0 61.0 L 1015.0 61.0 L 1015.0 450.0 L 323.0 450.0 Z M 323.0 61.0 "></path></clipPath><g clip-path="url(#clip0x7fe3a1f20390)"><path d="M 323.0 450.0 L 1015.0 450.0 L 1015.0 61.0 L 323.0 61.0 Z M 323.0 450.0 " fill="#FEFFFF" fill-opacity="0.00"></path></g></g><g><clipPath id="clip0x7fe3a1f21230"><path d="M 323.0 61.0 L 1015.0 61.0 L 1015.0 450.0 L 323.0 450.0 Z M 323.0 61.0 "></path></clipPath><g clip-path="url(#clip0x7fe3a1f21230)"><image xlink:href="../../C6014E59-049E-479E-AD04-E6B0DCA16AD3/assets/CF8CE88A6FC6E9CC8D159A2AD7FF43B6.png" width="692.00" height="389.00" transform="matrix(1.00, 0.00, -0.00, -1.00, 323.0, 450.0)"></image></g></g><image xlink:href="../../C6014E59-049E-479E-AD04-E6B0DCA16AD3/assets/B4A8DCCCAC920B358D8A1118E2C6931B.png" width="706.00" height="408.00" transform="matrix(1.00, 0.00, -0.00, 1.00, 316.0, 46.0)"></image></g></svg>