<?xml version="1.0" encoding="UTF-8" standalone="no"?><svg xmlns="http://www.w3.org/2000/svg" xmlns:xlink="http://www.w3.org/1999/xlink" clip-rule="evenodd" stroke-miterlimit="10" viewBox="0 0 1024 768"><desc>SVG generated by Keynote</desc><defs></defs><g transform="matrix(1.00, 0.00, -0.00, -1.00, 0.0, 768.0)"><g><clipPath id="clip0x7fe382582160"><path d="M 0.0 768.0 L 1024.0 768.0 L 1024.0 0.0 L 0.0 0.0 Z M 0.0 768.0 "></path></clipPath><g clip-path="url(#clip0x7fe382582160)"><image xlink:href="../../BE03AB4A-F5E0-4685-80C7-20DCBC62631F/assets/574DCE55A4CF432400CBDDDE1DFDFC9B.jpeg" width="2048.00" height="1536.00" transform="matrix(0.50, 0.00, -0.00, -0.50, 0.0, 768.0)"></image></g></g><text xml:space="preserve" font-family="GillSans-Light,Gill Sans" font-size="55.0" fill="#525252" transform="matrix(1.00, 0.00, -0.00, -1.00, 334.3, 366.1)">S</text><text xml:space="preserve" font-family="GillSans-Light,Gill Sans" font-size="55.0" fill="#525252" transform="matrix(1.00, 0.00, -0.00, -1.00, 360.2, 366.1)">p</text><text xml:space="preserve" font-family="GillSans-Light,Gill Sans" font-size="55.0" fill="#525252" transform="matrix(1.00, 0.00, -0.00, -1.00, 388.2, 366.1)">ē</text><text xml:space="preserve" font-family="GillSans-Light,Gill Sans" font-size="55.0" fill="#525252" transform="matrix(1.00, 0.00, -0.00, -1.00, 414.5, 366.1)">j</text><text xml:space="preserve" font-family="GillSans-Light,Gill Sans" font-size="55.0" fill="#525252" transform="matrix(1.00, 0.00, -0.00, -1.00, 424.9, 366.1)">a</text><text xml:space="preserve" font-family="GillSans-Light,Gill Sans" font-size="55.0" fill="#525252" transform="matrix(1.00, 0.00, -0.00, -1.00, 448.3, 366.1)"> </text><text xml:space="preserve" font-family="GillSans-Light,Gill Sans" font-size="55.0" fill="#525252" transform="matrix(1.00, 0.00, -0.00, -1.00, 463.6, 366.1)">s</text><text xml:space="preserve" font-family="GillSans-Light,Gill Sans" font-size="55.0" fill="#525252" transform="matrix(1.00, 0.00, -0.00, -1.00, 483.1, 366.1)">a</text><text xml:space="preserve" font-family="GillSans-Light,Gill Sans" font-size="55.0" fill="#525252" transform="matrix(1.00, 0.00, -0.00, -1.00, 505.2, 366.1)">v</text><text xml:space="preserve" font-family="GillSans-Light,Gill Sans" font-size="55.0" fill="#525252" transform="matrix(1.00, 0.00, -0.00, -1.00, 528.6, 366.1)">a</text><text xml:space="preserve" font-family="GillSans-Light,Gill Sans" font-size="55.0" fill="#525252" transform="matrix(1.00, 0.00, -0.00, -1.00, 552.1, 366.1)">l</text><text xml:space="preserve" font-family="GillSans-Light,Gill Sans" font-size="55.0" fill="#525252" transform="matrix(1.00, 0.00, -0.00, -1.00, 562.4, 366.1)">d</text><text xml:space="preserve" font-family="GillSans-Light,Gill Sans" font-size="55.0" fill="#525252" transform="matrix(1.00, 0.00, -0.00, -1.00, 590.5, 366.1)">z</text><text xml:space="preserve" font-family="GillSans-Light,Gill Sans" font-size="55.0" fill="#525252" transform="matrix(1.00, 0.00, -0.00, -1.00, 612.2, 366.1)">i</text><text xml:space="preserve" font-family="GillSans-Light,Gill Sans" font-size="55.0" fill="#525252" transform="matrix(1.00, 0.00, -0.00, -1.00, 622.6, 366.1)">n</text><text xml:space="preserve" font-family="GillSans-Light,Gill Sans" font-size="55.0" fill="#525252" transform="matrix(1.00, 0.00, -0.00, -1.00, 649.6, 366.1)">ā</text><text xml:space="preserve" font-family="GillSans-Light,Gill Sans" font-size="55.0" fill="#525252" transform="matrix(1.00, 0.00, -0.00, -1.00, 673.0, 366.1)">t</text><g><clipPath id="clip0x7fe38261ece0"><path d="M 19.0 208.0 L 711.0 208.0 L 711.0 727.0 L 19.0 727.0 Z M 19.0 208.0 "></path></clipPath><g clip-path="url(#clip0x7fe38261ece0)"><path d="M 19.0 727.0 L 711.0 727.0 L 711.0 208.0 L 19.0 208.0 Z M 19.0 727.0 " fill="#FEFFFF" fill-opacity="0.00"></path></g></g><g><clipPath id="clip0x7fe38261fee0"><path d="M 19.0 208.0 L 711.0 208.0 L 711.0 727.0 L 19.0 727.0 Z M 19.0 208.0 "></path></clipPath><g clip-path="url(#clip0x7fe38261fee0)"><image xlink:href="../../C6014E59-049E-479E-AD04-E6B0DCA16AD3/assets/73C6868EEBA4AD1D709C39F31224E646.png" width="692.00" height="519.00" transform="matrix(1.00, 0.00, -0.00, -1.00, 19.0, 727.0)"></image></g></g><image xlink:href="../../2198CBDD-C4ED-4CEE-9D69-3F4F05B91592/assets/FE80839DC002D4D6BC614D23FD80B140.png" width="706.00" height="538.00" transform="matrix(1.00, 0.00, -0.00, 1.00, 12.0, 193.0)"></image><g><clipPath id="clip0x7fe382621960"><path d="M 111.0 17.0 L 803.0 17.0 L 803.0 536.0 L 111.0 536.0 Z M 111.0 17.0 "></path></clipPath><g clip-path="url(#clip0x7fe382621960)"><path d="M 111.0 536.0 L 803.0 536.0 L 803.0 17.0 L 111.0 17.0 Z M 111.0 536.0 " fill="#FEFFFF" fill-opacity="0.00"></path></g></g><g><clipPath id="clip0x7fe3826227b0"><path d="M 111.0 17.0 L 803.0 17.0 L 803.0 536.0 L 111.0 536.0 Z M 111.0 17.0 "></path></clipPath><g clip-path="url(#clip0x7fe3826227b0)"><image xlink:href="../../C6014E59-049E-479E-AD04-E6B0DCA16AD3/assets/F272DF02299F8FC245471D6DC5ACA590.png" width="692.00" height="519.00" transform="matrix(1.00, 0.00, -0.00, -1.00, 111.0, 536.0)"></image></g></g><image xlink:href="../../2198CBDD-C4ED-4CEE-9D69-3F4F05B91592/assets/FE80839DC002D4D6BC614D23FD80B140.png" width="706.00" height="538.00" transform="matrix(1.00, 0.00, -0.00, 1.00, 104.0, 2.0)"></image><g><clipPath id="clip0x7fe382624720"><path d="M 294.0 160.0 L 986.0 160.0 L 986.0 679.0 L 294.0 679.0 Z M 294.0 160.0 "></path></clipPath><g clip-path="url(#clip0x7fe382624720)"><path d="M 294.0 679.0 L 986.0 679.0 L 986.0 160.0 L 294.0 160.0 Z M 294.0 679.0 " fill="#FEFFFF" fill-opacity="0.00"></path></g></g><g><clipPath id="clip0x7fe382625b70"><path d="M 294.0 160.0 L 986.0 160.0 L 986.0 679.0 L 294.0 679.0 Z M 294.0 160.0 "></path></clipPath><g clip-path="url(#clip0x7fe382625b70)"><image xlink:href="../../C6014E59-049E-479E-AD04-E6B0DCA16AD3/assets/3BB54BCCB7EF81DDA06384AC147268A1.png" width="692.00" height="519.00" transform="matrix(1.00, 0.00, -0.00, -1.00, 294.0, 679.0)"></image></g></g><image xlink:href="../../2198CBDD-C4ED-4CEE-9D69-3F4F05B91592/assets/FE80839DC002D4D6BC614D23FD80B140.png" width="706.00" height="538.00" transform="matrix(1.00, 0.00, -0.00, 1.00, 287.0, 145.0)"></image><g><clipPath id="clip0x7fe382584310"><path d="M 242.0 59.0 L 934.0 59.0 L 934.0 448.0 L 242.0 448.0 Z M 242.0 59.0 "></path></clipPath><g clip-path="url(#clip0x7fe382584310)"><path d="M 242.0 448.0 L 934.0 448.0 L 934.0 59.0 L 242.0 59.0 Z M 242.0 448.0 " fill="#FEFFFF" fill-opacity="0.00"></path></g></g><g><clipPath id="clip0x7fe382585e00"><path d="M 242.0 59.0 L 934.0 59.0 L 934.0 448.0 L 242.0 448.0 Z M 242.0 59.0 "></path></clipPath><g clip-path="url(#clip0x7fe382585e00)"><image xlink:href="../../C6014E59-049E-479E-AD04-E6B0DCA16AD3/assets/CF8CE88A6FC6E9CC8D159A2AD7FF43B6.png" width="692.00" height="389.00" transform="matrix(1.00, 0.00, -0.00, -1.00, 242.0, 448.0)"></image></g></g><image xlink:href="../../C6014E59-049E-479E-AD04-E6B0DCA16AD3/assets/B4A8DCCCAC920B358D8A1118E2C6931B.png" width="706.00" height="408.00" transform="matrix(1.00, 0.00, -0.00, 1.00, 235.0, 44.0)"></image></g></svg>