<?xml version="1.0" encoding="UTF-8" standalone="no"?><svg xmlns="http://www.w3.org/2000/svg" xmlns:xlink="http://www.w3.org/1999/xlink" clip-rule="evenodd" stroke-miterlimit="10" viewBox="0 0 1024 768"><desc>SVG generated by Keynote</desc><defs></defs><g transform="matrix(1.00, 0.00, -0.00, -1.00, 0.0, 768.0)"><g><clipPath id="clip0x7fe3a19e73d0"><path d="M 0.0 768.0 L 1024.0 768.0 L 1024.0 0.0 L 0.0 0.0 Z M 0.0 768.0 "></path></clipPath><g clip-path="url(#clip0x7fe3a19e73d0)"><image xlink:href="../../BE03AB4A-F5E0-4685-80C7-20DCBC62631F/assets/574DCE55A4CF432400CBDDDE1DFDFC9B.jpeg" width="2048.00" height="1536.00" transform="matrix(0.50, 0.00, -0.00, -0.50, 0.0, 768.0)"></image></g></g><text xml:space="preserve" font-family="GillSans-Light,Gill Sans" font-size="55.0" fill="#525252" transform="matrix(1.00, 0.00, -0.00, -1.00, 169.7, 430.4)">J</text><text xml:space="preserve" font-family="GillSans-Light,Gill Sans" font-size="55.0" fill="#525252" transform="matrix(1.00, 0.00, -0.00, -1.00, 181.1, 430.4)"> </text><text xml:space="preserve" font-family="GillSans-Light,Gill Sans" font-size="55.0" fill="#525252" transform="matrix(1.00, 0.00, -0.00, -1.00, 196.4, 430.4)">:</text><text xml:space="preserve" font-family="GillSans-Light,Gill Sans" font-size="55.0" fill="#525252" transform="matrix(1.00, 0.00, -0.00, -1.00, 201.7, 430.4)"> </text><text xml:space="preserve" font-family="GillSans-Light,Gill Sans" font-size="55.0" fill="#525252" transform="matrix(1.00, 0.00, -0.00, -1.00, 217.0, 430.4)">K</text><text xml:space="preserve" font-family="GillSans-Light,Gill Sans" font-size="55.0" fill="#525252" transform="matrix(1.00, 0.00, -0.00, -1.00, 246.1, 430.4)">u</text><text xml:space="preserve" font-family="GillSans-Light,Gill Sans" font-size="55.0" fill="#525252" transform="matrix(1.00, 0.00, -0.00, -1.00, 273.1, 430.4)">r</text><text xml:space="preserve" font-family="GillSans-Light,Gill Sans" font-size="55.0" fill="#525252" transform="matrix(1.00, 0.00, -0.00, -1.00, 291.4, 430.4)">š</text><text xml:space="preserve" font-family="GillSans-Light,Gill Sans" font-size="55.0" fill="#525252" transform="matrix(1.00, 0.00, -0.00, -1.00, 310.9, 430.4)"> </text><text xml:space="preserve" font-family="GillSans-Light,Gill Sans" font-size="55.0" fill="#525252" transform="matrix(1.00, 0.00, -0.00, -1.00, 326.2, 430.4)">i</text><text xml:space="preserve" font-family="GillSans-Light,Gill Sans" font-size="55.0" fill="#525252" transform="matrix(1.00, 0.00, -0.00, -1.00, 336.5, 430.4)">r</text><text xml:space="preserve" font-family="GillSans-Light,Gill Sans" font-size="55.0" fill="#525252" transform="matrix(1.00, 0.00, -0.00, -1.00, 354.8, 430.4)"> </text><text xml:space="preserve" font-family="GillSans-Light,Gill Sans" font-size="55.0" fill="#525252" transform="matrix(1.00, 0.00, -0.00, -1.00, 370.1, 430.4)">"</text><text xml:space="preserve" font-family="GillSans-Light,Gill Sans" font-size="55.0" fill="#525252" transform="matrix(1.00, 0.00, -0.00, -1.00, 385.4, 430.4)">K</text><text xml:space="preserve" font-family="GillSans-Light,Gill Sans" font-size="55.0" fill="#525252" transform="matrix(1.00, 0.00, -0.00, -1.00, 414.5, 430.4)">ļ</text><text xml:space="preserve" font-family="GillSans-Light,Gill Sans" font-size="55.0" fill="#525252" transform="matrix(1.00, 0.00, -0.00, -1.00, 424.9, 430.4)">ū</text><text xml:space="preserve" font-family="GillSans-Light,Gill Sans" font-size="55.0" fill="#525252" transform="matrix(1.00, 0.00, -0.00, -1.00, 451.9, 430.4)">d</text><text xml:space="preserve" font-family="GillSans-Light,Gill Sans" font-size="55.0" fill="#525252" transform="matrix(1.00, 0.00, -0.00, -1.00, 479.9, 430.4)">a</text><text xml:space="preserve" font-family="GillSans-Light,Gill Sans" font-size="55.0" fill="#525252" transform="matrix(1.00, 0.00, -0.00, -1.00, 503.3, 430.4)">i</text><text xml:space="preserve" font-family="GillSans-Light,Gill Sans" font-size="55.0" fill="#525252" transform="matrix(1.00, 0.00, -0.00, -1.00, 513.7, 430.4)">n</text><text xml:space="preserve" font-family="GillSans-Light,Gill Sans" font-size="55.0" fill="#525252" transform="matrix(1.00, 0.00, -0.00, -1.00, 540.7, 430.4)">ā</text><text xml:space="preserve" font-family="GillSans-Light,Gill Sans" font-size="55.0" fill="#525252" transform="matrix(1.00, 0.00, -0.00, -1.00, 564.1, 430.4)">k</text><text xml:space="preserve" font-family="GillSans-Light,Gill Sans" font-size="55.0" fill="#525252" transform="matrix(1.00, 0.00, -0.00, -1.00, 587.6, 430.4)">a</text><text xml:space="preserve" font-family="GillSans-Light,Gill Sans" font-size="55.0" fill="#525252" transform="matrix(1.00, 0.00, -0.00, -1.00, 611.0, 430.4)">i</text><text xml:space="preserve" font-family="GillSans-Light,Gill Sans" font-size="55.0" fill="#525252" transform="matrix(1.00, 0.00, -0.00, -1.00, 621.4, 430.4)">s</text><text xml:space="preserve" font-family="GillSans-Light,Gill Sans" font-size="55.0" fill="#525252" transform="matrix(1.00, 0.00, -0.00, -1.00, 641.0, 430.4)">"</text><text xml:space="preserve" font-family="GillSans-Light,Gill Sans" font-size="55.0" fill="#525252" transform="matrix(1.00, 0.00, -0.00, -1.00, 656.2, 430.4)"> </text><text xml:space="preserve" font-family="GillSans-Light,Gill Sans" font-size="55.0" fill="#525252" transform="matrix(1.00, 0.00, -0.00, -1.00, 671.5, 430.4)">m</text><text xml:space="preserve" font-family="GillSans-Light,Gill Sans" font-size="55.0" fill="#525252" transform="matrix(1.00, 0.00, -0.00, -1.00, 713.9, 430.4)">o</text><text xml:space="preserve" font-family="GillSans-Light,Gill Sans" font-size="55.0" fill="#525252" transform="matrix(1.00, 0.00, -0.00, -1.00, 743.7, 430.4)">d</text><text xml:space="preserve" font-family="GillSans-Light,Gill Sans" font-size="55.0" fill="#525252" transform="matrix(1.00, 0.00, -0.00, -1.00, 771.7, 430.4)">u</text><text xml:space="preserve" font-family="GillSans-Light,Gill Sans" font-size="55.0" fill="#525252" transform="matrix(1.00, 0.00, -0.00, -1.00, 798.7, 430.4)">l</text><text xml:space="preserve" font-family="GillSans-Light,Gill Sans" font-size="55.0" fill="#525252" transform="matrix(1.00, 0.00, -0.00, -1.00, 809.1, 430.4)">i</text><text xml:space="preserve" font-family="GillSans-Light,Gill Sans" font-size="55.0" fill="#525252" transform="matrix(1.00, 0.00, -0.00, -1.00, 819.4, 430.4)">s</text><text xml:space="preserve" font-family="GillSans-Light,Gill Sans" font-size="55.0" fill="#525252" transform="matrix(1.00, 0.00, -0.00, -1.00, 838.9, 430.4)">?</text><text xml:space="preserve" font-family="GillSans-SemiBold,Gill Sans" font-weight="bold" font-size="55.0" fill="#525252" transform="matrix(1.00, 0.00, -0.00, -1.00, 147.5, 301.9)">A</text><text xml:space="preserve" font-family="GillSans-SemiBold,Gill Sans" font-weight="bold" font-size="55.0" fill="#525252" transform="matrix(1.00, 0.00, -0.00, -1.00, 202.8, 301.9)">:</text><text xml:space="preserve" font-family="GillSans-SemiBold,Gill Sans" font-weight="bold" font-size="55.0" fill="#525252" transform="matrix(1.00, 0.00, -0.00, -1.00, 231.6, 301.9)">K</text><text xml:space="preserve" font-family="GillSans-SemiBold,Gill Sans" font-weight="bold" font-size="55.0" fill="#525252" transform="matrix(1.00, 0.00, -0.00, -1.00, 269.0, 301.9)">l</text><text xml:space="preserve" font-family="GillSans-SemiBold,Gill Sans" font-weight="bold" font-size="55.0" fill="#525252" transform="matrix(1.00, 0.00, -0.00, -1.00, 282.6, 301.9)">i</text><text xml:space="preserve" font-family="GillSans-SemiBold,Gill Sans" font-weight="bold" font-size="55.0" fill="#525252" transform="matrix(1.00, 0.00, -0.00, -1.00, 296.3, 301.9)">e</text><text xml:space="preserve" font-family="GillSans-SemiBold,Gill Sans" font-weight="bold" font-size="55.0" fill="#525252" transform="matrix(1.00, 0.00, -0.00, -1.00, 324.7, 301.9)">t</text><text xml:space="preserve" font-family="GillSans-SemiBold,Gill Sans" font-weight="bold" font-size="55.0" fill="#525252" transform="matrix(1.00, 0.00, -0.00, -1.00, 345.0, 301.9)">i</text><text xml:space="preserve" font-family="GillSans-SemiBold,Gill Sans" font-weight="bold" font-size="55.0" fill="#525252" transform="matrix(1.00, 0.00, -0.00, -1.00, 373.9, 301.9)">u</text><text xml:space="preserve" font-family="GillSans-SemiBold,Gill Sans" font-weight="bold" font-size="55.0" fill="#525252" transform="matrix(1.00, 0.00, -0.00, -1.00, 403.6, 301.9)">n</text><text xml:space="preserve" font-family="GillSans-SemiBold,Gill Sans" font-weight="bold" font-size="55.0" fill="#525252" transform="matrix(1.00, 0.00, -0.00, -1.00, 448.6, 301.9)">p</text><text xml:space="preserve" font-family="GillSans-SemiBold,Gill Sans" font-weight="bold" font-size="55.0" fill="#525252" transform="matrix(1.00, 0.00, -0.00, -1.00, 478.8, 301.9)">i</text><text xml:space="preserve" font-family="GillSans-SemiBold,Gill Sans" font-weight="bold" font-size="55.0" fill="#525252" transform="matrix(1.00, 0.00, -0.00, -1.00, 492.4, 301.9)">e</text><text xml:space="preserve" font-family="GillSans-SemiBold,Gill Sans" font-weight="bold" font-size="55.0" fill="#525252" transform="matrix(1.00, 0.00, -0.00, -1.00, 520.8, 301.9)">s</text><text xml:space="preserve" font-family="GillSans-SemiBold,Gill Sans" font-weight="bold" font-size="55.0" fill="#525252" transform="matrix(1.00, 0.00, -0.00, -1.00, 543.0, 301.9)">l</text><text xml:space="preserve" font-family="LucidaGrande-Bold,Lucida Grande" font-weight="bold" font-size="55.0" fill="#525252" transform="matrix(1.00, 0.00, -0.00, -1.00, 556.6, 301.9)">ē</text><text xml:space="preserve" font-family="GillSans-SemiBold,Gill Sans" font-weight="bold" font-size="55.0" fill="#525252" transform="matrix(1.00, 0.00, -0.00, -1.00, 588.9, 301.9)">g</text><text xml:space="preserve" font-family="GillSans-SemiBold,Gill Sans" font-weight="bold" font-size="55.0" fill="#525252" transform="matrix(1.00, 0.00, -0.00, -1.00, 615.8, 301.9)">u</text><text xml:space="preserve" font-family="GillSans-SemiBold,Gill Sans" font-weight="bold" font-size="55.0" fill="#525252" transform="matrix(1.00, 0.00, -0.00, -1.00, 645.5, 301.9)">m</text><text xml:space="preserve" font-family="GillSans-SemiBold,Gill Sans" font-weight="bold" font-size="55.0" fill="#525252" transform="matrix(1.00, 0.00, -0.00, -1.00, 692.1, 301.9)">i</text><text xml:space="preserve" font-family="GillSans-SemiBold,Gill Sans" font-weight="bold" font-size="55.0" fill="#525252" transform="matrix(1.00, 0.00, -0.00, -1.00, 721.0, 301.9)">(</text><text xml:space="preserve" font-family="GillSans-SemiBold,Gill Sans" font-weight="bold" font-size="55.0" fill="#525252" transform="matrix(1.00, 0.00, -0.00, -1.00, 740.7, 301.9)">5</text><text xml:space="preserve" font-family="GillSans-SemiBold,Gill Sans" font-weight="bold" font-size="55.0" fill="#525252" transform="matrix(1.00, 0.00, -0.00, -1.00, 769.7, 301.9)">5</text><text xml:space="preserve" font-family="GillSans-SemiBold,Gill Sans" font-weight="bold" font-size="55.0" fill="#525252" transform="matrix(1.00, 0.00, -0.00, -1.00, 798.7, 301.9)">1</text><text xml:space="preserve" font-family="GillSans-SemiBold,Gill Sans" font-weight="bold" font-size="55.0" fill="#525252" transform="matrix(1.00, 0.00, -0.00, -1.00, 827.8, 301.9)">5</text><text xml:space="preserve" font-family="GillSans-SemiBold,Gill Sans" font-weight="bold" font-size="55.0" fill="#525252" transform="matrix(1.00, 0.00, -0.00, -1.00, 856.8, 301.9)">)</text><text xml:space="preserve" font-family="GillSans-Light,Gill Sans" font-size="35.0" fill="#525252" transform="matrix(1.00, 0.00, -0.00, -1.00, 352.6, 204.3)">2</text><text xml:space="preserve" font-family="GillSans-Light,Gill Sans" font-size="35.0" fill="#525252" transform="matrix(1.00, 0.00, -0.00, -1.00, 370.1, 204.3)">.</text><text xml:space="preserve" font-family="GillSans-Light,Gill Sans" font-size="35.0" fill="#525252" transform="matrix(1.00, 0.00, -0.00, -1.00, 383.2, 204.3)">v</text><text xml:space="preserve" font-family="GillSans-Light,Gill Sans" font-size="35.0" fill="#525252" transform="matrix(1.00, 0.00, -0.00, -1.00, 398.1, 204.3)">i</text><text xml:space="preserve" font-family="GillSans-Light,Gill Sans" font-size="35.0" fill="#525252" transform="matrix(1.00, 0.00, -0.00, -1.00, 404.7, 204.3)">e</text><text xml:space="preserve" font-family="GillSans-Light,Gill Sans" font-size="35.0" fill="#525252" transform="matrix(1.00, 0.00, -0.00, -1.00, 421.5, 204.3)">t</text><text xml:space="preserve" font-family="GillSans-Light,Gill Sans" font-size="35.0" fill="#525252" transform="matrix(1.00, 0.00, -0.00, -1.00, 432.1, 204.3)">ā</text><text xml:space="preserve" font-family="GillSans-Light,Gill Sans" font-size="35.0" fill="#525252" transform="matrix(1.00, 0.00, -0.00, -1.00, 456.7, 204.3)">N</text><text xml:space="preserve" font-family="GillSans-Light,Gill Sans" font-size="35.0" fill="#525252" transform="matrix(1.00, 0.00, -0.00, -1.00, 483.7, 204.3)">o</text><text xml:space="preserve" font-family="GillSans-Light,Gill Sans" font-size="35.0" fill="#525252" transform="matrix(1.00, 0.00, -0.00, -1.00, 512.4, 204.3)">c</text><text xml:space="preserve" font-family="GillSans-Light,Gill Sans" font-size="35.0" fill="#525252" transform="matrix(1.00, 0.00, -0.00, -1.00, 527.0, 204.3)">o</text><text xml:space="preserve" font-family="GillSans-Light,Gill Sans" font-size="35.0" fill="#525252" transform="matrix(1.00, 0.00, -0.00, -1.00, 546.0, 204.3)">m</text><text xml:space="preserve" font-family="GillSans-Light,Gill Sans" font-size="35.0" fill="#525252" transform="matrix(1.00, 0.00, -0.00, -1.00, 572.9, 204.3)">p</text><text xml:space="preserve" font-family="GillSans-Light,Gill Sans" font-size="35.0" fill="#525252" transform="matrix(1.00, 0.00, -0.00, -1.00, 590.8, 204.3)">o</text><text xml:space="preserve" font-family="GillSans-Light,Gill Sans" font-size="35.0" fill="#525252" transform="matrix(1.00, 0.00, -0.00, -1.00, 609.8, 204.3)">n</text><text xml:space="preserve" font-family="GillSans-Light,Gill Sans" font-size="35.0" fill="#525252" transform="matrix(1.00, 0.00, -0.00, -1.00, 626.9, 204.3)">e</text><text xml:space="preserve" font-family="GillSans-Light,Gill Sans" font-size="35.0" fill="#525252" transform="matrix(1.00, 0.00, -0.00, -1.00, 643.7, 204.3)">n</text><text xml:space="preserve" font-family="GillSans-Light,Gill Sans" font-size="35.0" fill="#525252" transform="matrix(1.00, 0.00, -0.00, -1.00, 660.8, 204.3)">t</text><text xml:space="preserve" font-family="GillSans-Light,Gill Sans" font-size="25.0" fill="#525252" transform="matrix(1.00, 0.00, -0.00, -1.00, 444.5, 120.8)">2</text><text xml:space="preserve" font-family="GillSans-Light,Gill Sans" font-size="25.0" fill="#525252" transform="matrix(1.00, 0.00, -0.00, -1.00, 457.0, 120.8)">.</text><text xml:space="preserve" font-family="GillSans-Light,Gill Sans" font-size="25.0" fill="#525252" transform="matrix(1.00, 0.00, -0.00, -1.00, 466.3, 120.8)">v</text><text xml:space="preserve" font-family="GillSans-Light,Gill Sans" font-size="25.0" fill="#525252" transform="matrix(1.00, 0.00, -0.00, -1.00, 477.0, 120.8)">i</text><text xml:space="preserve" font-family="GillSans-Light,Gill Sans" font-size="25.0" fill="#525252" transform="matrix(1.00, 0.00, -0.00, -1.00, 481.7, 120.8)">e</text><text xml:space="preserve" font-family="GillSans-Light,Gill Sans" font-size="25.0" fill="#525252" transform="matrix(1.00, 0.00, -0.00, -1.00, 493.7, 120.8)">t</text><text xml:space="preserve" font-family="GillSans-Light,Gill Sans" font-size="25.0" fill="#525252" transform="matrix(1.00, 0.00, -0.00, -1.00, 501.2, 120.8)">ā</text><text xml:space="preserve" font-family="GillSans-Light,Gill Sans" font-size="25.0" fill="#525252" transform="matrix(1.00, 0.00, -0.00, -1.00, 518.8, 120.8)">O</text><text xml:space="preserve" font-family="GillSans-Light,Gill Sans" font-size="25.0" fill="#525252" transform="matrix(1.00, 0.00, -0.00, -1.00, 539.4, 120.8)">t</text><text xml:space="preserve" font-family="GillSans-Light,Gill Sans" font-size="25.0" fill="#525252" transform="matrix(1.00, 0.00, -0.00, -1.00, 547.0, 120.8)">h</text><text xml:space="preserve" font-family="GillSans-Light,Gill Sans" font-size="25.0" fill="#525252" transform="matrix(1.00, 0.00, -0.00, -1.00, 559.2, 120.8)">e</text><text xml:space="preserve" font-family="GillSans-Light,Gill Sans" font-size="25.0" fill="#525252" transform="matrix(1.00, 0.00, -0.00, -1.00, 571.2, 120.8)">r</text></g></svg>