<?xml version="1.0" encoding="UTF-8" standalone="no"?><svg xmlns="http://www.w3.org/2000/svg" xmlns:xlink="http://www.w3.org/1999/xlink" clip-rule="evenodd" stroke-miterlimit="10" viewBox="0 0 1024 768"><desc>SVG generated by Keynote</desc><defs></defs><g transform="matrix(1.00, 0.00, -0.00, -1.00, 0.0, 768.0)"><g><clipPath id="clip0x7fe382559b70"><path d="M 0.0 768.0 L 1024.0 768.0 L 1024.0 0.0 L 0.0 0.0 Z M 0.0 768.0 "></path></clipPath><g clip-path="url(#clip0x7fe382559b70)"><image xlink:href="../../BE03AB4A-F5E0-4685-80C7-20DCBC62631F/assets/574DCE55A4CF432400CBDDDE1DFDFC9B.jpeg" width="2048.00" height="1536.00" transform="matrix(0.50, 0.00, -0.00, -0.50, 0.0, 768.0)"></image></g></g><text xml:space="preserve" font-family="GillSans-Light,Gill Sans" font-size="55.0" fill="#525252" transform="matrix(1.00, 0.00, -0.00, -1.00, 322.3, 366.1)">S</text><text xml:space="preserve" font-family="GillSans-Light,Gill Sans" font-size="55.0" fill="#525252" transform="matrix(1.00, 0.00, -0.00, -1.00, 348.1, 366.1)">p</text><text xml:space="preserve" font-family="GillSans-Light,Gill Sans" font-size="55.0" fill="#525252" transform="matrix(1.00, 0.00, -0.00, -1.00, 376.1, 366.1)">ē</text><text xml:space="preserve" font-family="GillSans-Light,Gill Sans" font-size="55.0" fill="#525252" transform="matrix(1.00, 0.00, -0.00, -1.00, 402.4, 366.1)">j</text><text xml:space="preserve" font-family="GillSans-Light,Gill Sans" font-size="55.0" fill="#525252" transform="matrix(1.00, 0.00, -0.00, -1.00, 412.8, 366.1)">a</text><text xml:space="preserve" font-family="GillSans-Light,Gill Sans" font-size="55.0" fill="#525252" transform="matrix(1.00, 0.00, -0.00, -1.00, 436.2, 366.1)"> </text><text xml:space="preserve" font-family="GillSans-Light,Gill Sans" font-size="55.0" fill="#525252" transform="matrix(1.00, 0.00, -0.00, -1.00, 451.5, 366.1)">b</text><text xml:space="preserve" font-family="GillSans-Light,Gill Sans" font-size="55.0" fill="#525252" transform="matrix(1.00, 0.00, -0.00, -1.00, 479.5, 366.1)">ū</text><text xml:space="preserve" font-family="GillSans-Light,Gill Sans" font-size="55.0" fill="#525252" transform="matrix(1.00, 0.00, -0.00, -1.00, 506.5, 366.1)">t</text><text xml:space="preserve" font-family="GillSans-Light,Gill Sans" font-size="55.0" fill="#525252" transform="matrix(1.00, 0.00, -0.00, -1.00, 523.1, 366.1)"> </text><text xml:space="preserve" font-family="GillSans-Light,Gill Sans" font-size="55.0" fill="#525252" transform="matrix(1.00, 0.00, -0.00, -1.00, 538.4, 366.1)">j</text><text xml:space="preserve" font-family="GillSans-Light,Gill Sans" font-size="55.0" fill="#525252" transform="matrix(1.00, 0.00, -0.00, -1.00, 548.7, 366.1)">a</text><text xml:space="preserve" font-family="GillSans-Light,Gill Sans" font-size="55.0" fill="#525252" transform="matrix(1.00, 0.00, -0.00, -1.00, 572.2, 366.1)">u</text><text xml:space="preserve" font-family="GillSans-Light,Gill Sans" font-size="55.0" fill="#525252" transform="matrix(1.00, 0.00, -0.00, -1.00, 599.1, 366.1)">k</text><text xml:space="preserve" font-family="GillSans-Light,Gill Sans" font-size="55.0" fill="#525252" transform="matrix(1.00, 0.00, -0.00, -1.00, 622.6, 366.1)">i</text><text xml:space="preserve" font-family="GillSans-Light,Gill Sans" font-size="55.0" fill="#525252" transform="matrix(1.00, 0.00, -0.00, -1.00, 632.9, 366.1)">e</text><text xml:space="preserve" font-family="GillSans-Light,Gill Sans" font-size="55.0" fill="#525252" transform="matrix(1.00, 0.00, -0.00, -1.00, 659.3, 366.1)">m</text><g><clipPath id="clip0x7fe3824d0080"><path d="M 88.0 180.0 L 780.0 180.0 L 780.0 699.0 L 88.0 699.0 Z M 88.0 180.0 "></path></clipPath><g clip-path="url(#clip0x7fe3824d0080)"><path d="M 88.0 699.0 L 780.0 699.0 L 780.0 180.0 L 88.0 180.0 Z M 88.0 699.0 " fill="#FEFFFF" fill-opacity="0.00"></path></g></g><g><clipPath id="clip0x7fe3824d1280"><path d="M 88.0 180.0 L 780.0 180.0 L 780.0 699.0 L 88.0 699.0 Z M 88.0 180.0 "></path></clipPath><g clip-path="url(#clip0x7fe3824d1280)"><image xlink:href="../../2198CBDD-C4ED-4CEE-9D69-3F4F05B91592/assets/AFB51012C396573FC6C7A3DCE2FE3796.png" width="692.00" height="519.00" transform="matrix(1.00, 0.00, -0.00, -1.00, 88.0, 699.0)"></image></g></g><image xlink:href="../../2198CBDD-C4ED-4CEE-9D69-3F4F05B91592/assets/FE80839DC002D4D6BC614D23FD80B140.png" width="706.00" height="538.00" transform="matrix(1.00, 0.00, -0.00, 1.00, 81.0, 165.0)"></image><g><clipPath id="clip0x7fe38255b630"><path d="M 150.0 47.0 L 842.0 47.0 L 842.0 566.0 L 150.0 566.0 Z M 150.0 47.0 "></path></clipPath><g clip-path="url(#clip0x7fe38255b630)"><path d="M 150.0 566.0 L 842.0 566.0 L 842.0 47.0 L 150.0 47.0 Z M 150.0 566.0 " fill="#FEFFFF" fill-opacity="0.00"></path></g></g><g><clipPath id="clip0x7fe38255e100"><path d="M 150.0 47.0 L 842.0 47.0 L 842.0 566.0 L 150.0 566.0 Z M 150.0 47.0 "></path></clipPath><g clip-path="url(#clip0x7fe38255e100)"><image xlink:href="../../2198CBDD-C4ED-4CEE-9D69-3F4F05B91592/assets/B1C40C3470533638EC659C414F9C2113.png" width="692.00" height="519.00" transform="matrix(1.00, 0.00, -0.00, -1.00, 150.0, 566.0)"></image></g></g><image xlink:href="../../2198CBDD-C4ED-4CEE-9D69-3F4F05B91592/assets/FE80839DC002D4D6BC614D23FD80B140.png" width="706.00" height="538.00" transform="matrix(1.00, 0.00, -0.00, 1.00, 143.0, 32.0)"></image><g><clipPath id="clip0x7fe3824d4e70"><path d="M 299.0 124.0 L 991.0 124.0 L 991.0 643.0 L 299.0 643.0 Z M 299.0 124.0 "></path></clipPath><g clip-path="url(#clip0x7fe3824d4e70)"><path d="M 299.0 643.0 L 991.0 643.0 L 991.0 124.0 L 299.0 124.0 Z M 299.0 643.0 " fill="#FEFFFF" fill-opacity="0.00"></path></g></g><g><clipPath id="clip0x7fe3824d5cb0"><path d="M 299.0 124.0 L 991.0 124.0 L 991.0 643.0 L 299.0 643.0 Z M 299.0 124.0 "></path></clipPath><g clip-path="url(#clip0x7fe3824d5cb0)"><image xlink:href="../../2198CBDD-C4ED-4CEE-9D69-3F4F05B91592/assets/6C3253C2935F25E2A2E146C13F836475.png" width="692.00" height="519.00" transform="matrix(1.00, 0.00, -0.00, -1.00, 299.0, 643.0)"></image></g></g><image xlink:href="../../2198CBDD-C4ED-4CEE-9D69-3F4F05B91592/assets/FE80839DC002D4D6BC614D23FD80B140.png" width="706.00" height="538.00" transform="matrix(1.00, 0.00, -0.00, 1.00, 292.0, 109.0)"></image></g></svg>