<?xml version="1.0" encoding="UTF-8" standalone="no"?><svg xmlns="http://www.w3.org/2000/svg" xmlns:xlink="http://www.w3.org/1999/xlink" clip-rule="evenodd" stroke-miterlimit="10" viewBox="0 0 1024 768"><desc>SVG generated by Keynote</desc><defs></defs><g transform="matrix(1.00, 0.00, -0.00, -1.00, 0.0, 768.0)"><g><clipPath id="clip0x7fe384549e70"><path d="M 0.0 768.0 L 1024.0 768.0 L 1024.0 0.0 L 0.0 0.0 Z M 0.0 768.0 "></path></clipPath><g clip-path="url(#clip0x7fe384549e70)"><image xlink:href="../../BE03AB4A-F5E0-4685-80C7-20DCBC62631F/assets/574DCE55A4CF432400CBDDDE1DFDFC9B.jpeg" width="2048.00" height="1536.00" transform="matrix(0.50, 0.00, -0.00, -0.50, 0.0, 768.0)"></image></g></g><text xml:space="preserve" font-family="HelveticaNeue-Thin,Helvetica Neue" font-size="55.0" fill="#525252" transform="matrix(1.00, 0.00, -0.00, -1.00, 144.6, 534.3)">J</text><text xml:space="preserve" font-family="HelveticaNeue-Thin,Helvetica Neue" font-size="55.0" fill="#525252" transform="matrix(1.00, 0.00, -0.00, -1.00, 171.0, 534.3)"> </text><text xml:space="preserve" font-family="HelveticaNeue-Thin,Helvetica Neue" font-size="55.0" fill="#525252" transform="matrix(1.00, 0.00, -0.00, -1.00, 186.3, 534.3)">:</text><text xml:space="preserve" font-family="HelveticaNeue-Thin,Helvetica Neue" font-size="55.0" fill="#525252" transform="matrix(1.00, 0.00, -0.00, -1.00, 201.6, 534.3)"> </text><text xml:space="preserve" font-family="HelveticaNeue-Thin,Helvetica Neue" font-size="55.0" fill="#525252" transform="matrix(1.00, 0.00, -0.00, -1.00, 216.9, 534.3)">V</text><text xml:space="preserve" font-family="HelveticaNeue-Thin,Helvetica Neue" font-size="55.0" fill="#525252" transform="matrix(1.00, 0.00, -0.00, -1.00, 246.5, 534.3)">i</text><text xml:space="preserve" font-family="HelveticaNeue-Thin,Helvetica Neue" font-size="55.0" fill="#525252" transform="matrix(1.00, 0.00, -0.00, -1.00, 255.7, 534.3)">s</text><text xml:space="preserve" font-family="HelveticaNeue-Thin,Helvetica Neue" font-size="55.0" fill="#525252" transform="matrix(1.00, 0.00, -0.00, -1.00, 282.2, 534.3)">v</text><text xml:space="preserve" font-family="HelveticaNeue-Thin,Helvetica Neue" font-size="55.0" fill="#525252" transform="matrix(1.00, 0.00, -0.00, -1.00, 306.6, 534.3)">a</text><text xml:space="preserve" font-family="HelveticaNeue-Thin,Helvetica Neue" font-size="55.0" fill="#525252" transform="matrix(1.00, 0.00, -0.00, -1.00, 334.1, 534.3)">i</text><text xml:space="preserve" font-family="HelveticaNeue-Thin,Helvetica Neue" font-size="55.0" fill="#525252" transform="matrix(1.00, 0.00, -0.00, -1.00, 343.3, 534.3)">r</text><text xml:space="preserve" font-family="HelveticaNeue-Thin,Helvetica Neue" font-size="55.0" fill="#525252" transform="matrix(1.00, 0.00, -0.00, -1.00, 358.6, 534.3)">ā</text><text xml:space="preserve" font-family="HelveticaNeue-Thin,Helvetica Neue" font-size="55.0" fill="#525252" transform="matrix(1.00, 0.00, -0.00, -1.00, 386.1, 534.3)">k</text><text xml:space="preserve" font-family="HelveticaNeue-Thin,Helvetica Neue" font-size="55.0" fill="#525252" transform="matrix(1.00, 0.00, -0.00, -1.00, 411.6, 534.3)"> </text><text xml:space="preserve" font-family="HelveticaNeue-Thin,Helvetica Neue" font-size="55.0" fill="#525252" transform="matrix(1.00, 0.00, -0.00, -1.00, 426.9, 534.3)">k</text><text xml:space="preserve" font-family="HelveticaNeue-Thin,Helvetica Neue" font-size="55.0" fill="#525252" transform="matrix(1.00, 0.00, -0.00, -1.00, 452.4, 534.3)">ļ</text><text xml:space="preserve" font-family="HelveticaNeue-Thin,Helvetica Neue" font-size="55.0" fill="#525252" transform="matrix(1.00, 0.00, -0.00, -1.00, 461.6, 534.3)">ū</text><text xml:space="preserve" font-family="HelveticaNeue-Thin,Helvetica Neue" font-size="55.0" fill="#525252" transform="matrix(1.00, 0.00, -0.00, -1.00, 490.1, 534.3)">d</text><text xml:space="preserve" font-family="HelveticaNeue-Thin,Helvetica Neue" font-size="55.0" fill="#525252" transform="matrix(1.00, 0.00, -0.00, -1.00, 520.7, 534.3)">a</text><text xml:space="preserve" font-family="HelveticaNeue-Thin,Helvetica Neue" font-size="55.0" fill="#525252" transform="matrix(1.00, 0.00, -0.00, -1.00, 548.2, 534.3)">s</text><text xml:space="preserve" font-family="HelveticaNeue-Thin,Helvetica Neue" font-size="55.0" fill="#525252" transform="matrix(1.00, 0.00, -0.00, -1.00, 574.7, 534.3)"> </text><text xml:space="preserve" font-family="HelveticaNeue-Thin,Helvetica Neue" font-size="55.0" fill="#525252" transform="matrix(1.00, 0.00, -0.00, -1.00, 590.0, 534.3)">u</text><text xml:space="preserve" font-family="HelveticaNeue-Thin,Helvetica Neue" font-size="55.0" fill="#525252" transform="matrix(1.00, 0.00, -0.00, -1.00, 618.5, 534.3)">z</text><text xml:space="preserve" font-family="HelveticaNeue-Thin,Helvetica Neue" font-size="55.0" fill="#525252" transform="matrix(1.00, 0.00, -0.00, -1.00, 641.9, 534.3)">t</text><text xml:space="preserve" font-family="HelveticaNeue-Thin,Helvetica Neue" font-size="55.0" fill="#525252" transform="matrix(1.00, 0.00, -0.00, -1.00, 656.2, 534.3)">u</text><text xml:space="preserve" font-family="HelveticaNeue-Thin,Helvetica Neue" font-size="55.0" fill="#525252" transform="matrix(1.00, 0.00, -0.00, -1.00, 684.7, 534.3)">r</text><text xml:space="preserve" font-family="HelveticaNeue-Thin,Helvetica Neue" font-size="55.0" fill="#525252" transform="matrix(1.00, 0.00, -0.00, -1.00, 700.0, 534.3)">ē</text><text xml:space="preserve" font-family="HelveticaNeue-Thin,Helvetica Neue" font-size="55.0" fill="#525252" transform="matrix(1.00, 0.00, -0.00, -1.00, 728.6, 534.3)">t</text><text xml:space="preserve" font-family="HelveticaNeue-Thin,Helvetica Neue" font-size="55.0" fill="#525252" transform="matrix(1.00, 0.00, -0.00, -1.00, 742.8, 534.3)">ā</text><text xml:space="preserve" font-family="HelveticaNeue-Thin,Helvetica Neue" font-size="55.0" fill="#525252" transform="matrix(1.00, 0.00, -0.00, -1.00, 770.3, 534.3)">j</text><text xml:space="preserve" font-family="HelveticaNeue-Thin,Helvetica Neue" font-size="55.0" fill="#525252" transform="matrix(1.00, 0.00, -0.00, -1.00, 779.5, 534.3)">i</text><text xml:space="preserve" font-family="HelveticaNeue-Thin,Helvetica Neue" font-size="55.0" fill="#525252" transform="matrix(1.00, 0.00, -0.00, -1.00, 788.8, 534.3)">e</text><text xml:space="preserve" font-family="HelveticaNeue-Thin,Helvetica Neue" font-size="55.0" fill="#525252" transform="matrix(1.00, 0.00, -0.00, -1.00, 817.3, 534.3)">m</text><text xml:space="preserve" font-family="HelveticaNeue-Thin,Helvetica Neue" font-size="55.0" fill="#525252" transform="matrix(1.00, 0.00, -0.00, -1.00, 861.1, 534.3)">/</text><text xml:space="preserve" font-family="HelveticaNeue-Thin,Helvetica Neue" font-size="55.0" fill="#525252" transform="matrix(1.00, 0.00, -0.00, -1.00, 18.3, 467.3)">i</text><text xml:space="preserve" font-family="HelveticaNeue-Thin,Helvetica Neue" font-size="55.0" fill="#525252" transform="matrix(1.00, 0.00, -0.00, -1.00, 27.5, 467.3)">z</text><text xml:space="preserve" font-family="HelveticaNeue-Thin,Helvetica Neue" font-size="55.0" fill="#525252" transform="matrix(1.00, 0.00, -0.00, -1.00, 51.0, 467.3)">s</text><text xml:space="preserve" font-family="HelveticaNeue-Thin,Helvetica Neue" font-size="55.0" fill="#525252" transform="matrix(1.00, 0.00, -0.00, -1.00, 77.4, 467.3)">t</text><text xml:space="preserve" font-family="HelveticaNeue-Thin,Helvetica Neue" font-size="55.0" fill="#525252" transform="matrix(1.00, 0.00, -0.00, -1.00, 91.7, 467.3)">r</text><text xml:space="preserve" font-family="HelveticaNeue-Thin,Helvetica Neue" font-size="55.0" fill="#525252" transform="matrix(1.00, 0.00, -0.00, -1.00, 107.0, 467.3)">ā</text><text xml:space="preserve" font-family="HelveticaNeue-Thin,Helvetica Neue" font-size="55.0" fill="#525252" transform="matrix(1.00, 0.00, -0.00, -1.00, 134.5, 467.3)">d</text><text xml:space="preserve" font-family="HelveticaNeue-Thin,Helvetica Neue" font-size="55.0" fill="#525252" transform="matrix(1.00, 0.00, -0.00, -1.00, 165.0, 467.3)">ā</text><text xml:space="preserve" font-family="HelveticaNeue-Thin,Helvetica Neue" font-size="55.0" fill="#525252" transform="matrix(1.00, 0.00, -0.00, -1.00, 192.5, 467.3)">t</text><text xml:space="preserve" font-family="HelveticaNeue-Thin,Helvetica Neue" font-size="55.0" fill="#525252" transform="matrix(1.00, 0.00, -0.00, -1.00, 206.8, 467.3)">ā</text><text xml:space="preserve" font-family="HelveticaNeue-Thin,Helvetica Neue" font-size="55.0" fill="#525252" transform="matrix(1.00, 0.00, -0.00, -1.00, 234.3, 467.3)">j</text><text xml:space="preserve" font-family="HelveticaNeue-Thin,Helvetica Neue" font-size="55.0" fill="#525252" transform="matrix(1.00, 0.00, -0.00, -1.00, 243.5, 467.3)">i</text><text xml:space="preserve" font-family="HelveticaNeue-Thin,Helvetica Neue" font-size="55.0" fill="#525252" transform="matrix(1.00, 0.00, -0.00, -1.00, 252.8, 467.3)">e</text><text xml:space="preserve" font-family="HelveticaNeue-Thin,Helvetica Neue" font-size="55.0" fill="#525252" transform="matrix(1.00, 0.00, -0.00, -1.00, 281.3, 467.3)">m</text><text xml:space="preserve" font-family="HelveticaNeue-Thin,Helvetica Neue" font-size="55.0" fill="#525252" transform="matrix(1.00, 0.00, -0.00, -1.00, 325.1, 467.3)"> </text><text xml:space="preserve" font-family="HelveticaNeue-Thin,Helvetica Neue" font-size="55.0" fill="#525252" transform="matrix(1.00, 0.00, -0.00, -1.00, 340.4, 467.3)">p</text><text xml:space="preserve" font-family="HelveticaNeue-Thin,Helvetica Neue" font-size="55.0" fill="#525252" transform="matrix(1.00, 0.00, -0.00, -1.00, 371.0, 467.3)">i</text><text xml:space="preserve" font-family="HelveticaNeue-Thin,Helvetica Neue" font-size="55.0" fill="#525252" transform="matrix(1.00, 0.00, -0.00, -1.00, 380.2, 467.3)">e</text><text xml:space="preserve" font-family="HelveticaNeue-Thin,Helvetica Neue" font-size="55.0" fill="#525252" transform="matrix(1.00, 0.00, -0.00, -1.00, 408.7, 467.3)">s</text><text xml:space="preserve" font-family="HelveticaNeue-Thin,Helvetica Neue" font-size="55.0" fill="#525252" transform="matrix(1.00, 0.00, -0.00, -1.00, 435.2, 467.3)">a</text><text xml:space="preserve" font-family="HelveticaNeue-Thin,Helvetica Neue" font-size="55.0" fill="#525252" transform="matrix(1.00, 0.00, -0.00, -1.00, 462.7, 467.3)">k</text><text xml:space="preserve" font-family="HelveticaNeue-Thin,Helvetica Neue" font-size="55.0" fill="#525252" transform="matrix(1.00, 0.00, -0.00, -1.00, 488.2, 467.3)">a</text><text xml:space="preserve" font-family="HelveticaNeue-Thin,Helvetica Neue" font-size="55.0" fill="#525252" transform="matrix(1.00, 0.00, -0.00, -1.00, 515.7, 467.3)"> </text><text xml:space="preserve" font-family="HelveticaNeue-Thin,Helvetica Neue" font-size="55.0" fill="#525252" transform="matrix(1.00, 0.00, -0.00, -1.00, 530.9, 467.3)">A</text><text xml:space="preserve" font-family="HelveticaNeue-Thin,Helvetica Neue" font-size="55.0" fill="#525252" transform="matrix(1.00, 0.00, -0.00, -1.00, 563.6, 467.3)">ĳ</text><text xml:space="preserve" font-family="HelveticaNeue-Thin,Helvetica Neue" font-size="55.0" fill="#525252" transform="matrix(1.00, 0.00, -0.00, -1.00, 581.8, 467.3)">a</text><text xml:space="preserve" font-family="HelveticaNeue-Thin,Helvetica Neue" font-size="55.0" fill="#525252" transform="matrix(1.00, 0.00, -0.00, -1.00, 609.3, 467.3)">.</text><text xml:space="preserve" font-family="HelveticaNeue-Thin,Helvetica Neue" font-size="55.0" fill="#525252" transform="matrix(1.00, 0.00, -0.00, -1.00, 624.6, 467.3)"> </text><text xml:space="preserve" font-family="HelveticaNeue-Thin,Helvetica Neue" font-size="55.0" fill="#525252" transform="matrix(1.00, 0.00, -0.00, -1.00, 639.9, 467.3)">B</text><text xml:space="preserve" font-family="HelveticaNeue-Thin,Helvetica Neue" font-size="55.0" fill="#525252" transform="matrix(1.00, 0.00, -0.00, -1.00, 674.6, 467.3)">e</text><text xml:space="preserve" font-family="HelveticaNeue-Thin,Helvetica Neue" font-size="55.0" fill="#525252" transform="matrix(1.00, 0.00, -0.00, -1.00, 703.1, 467.3)">t</text><text xml:space="preserve" font-family="HelveticaNeue-Thin,Helvetica Neue" font-size="55.0" fill="#525252" transform="matrix(1.00, 0.00, -0.00, -1.00, 717.3, 467.3)"> </text><text xml:space="preserve" font-family="HelveticaNeue-Thin,Helvetica Neue" font-size="55.0" fill="#525252" transform="matrix(1.00, 0.00, -0.00, -1.00, 732.6, 467.3)">k</text><text xml:space="preserve" font-family="HelveticaNeue-Thin,Helvetica Neue" font-size="55.0" fill="#525252" transform="matrix(1.00, 0.00, -0.00, -1.00, 758.1, 467.3)">u</text><text xml:space="preserve" font-family="HelveticaNeue-Thin,Helvetica Neue" font-size="55.0" fill="#525252" transform="matrix(1.00, 0.00, -0.00, -1.00, 786.6, 467.3)">r</text><text xml:space="preserve" font-family="HelveticaNeue-Thin,Helvetica Neue" font-size="55.0" fill="#525252" transform="matrix(1.00, 0.00, -0.00, -1.00, 801.9, 467.3)">š</text><text xml:space="preserve" font-family="HelveticaNeue-Thin,Helvetica Neue" font-size="55.0" fill="#525252" transform="matrix(1.00, 0.00, -0.00, -1.00, 828.4, 467.3)"> </text><text xml:space="preserve" font-family="HelveticaNeue-Thin,Helvetica Neue" font-size="55.0" fill="#525252" transform="matrix(1.00, 0.00, -0.00, -1.00, 843.7, 467.3)">i</text><text xml:space="preserve" font-family="HelveticaNeue-Thin,Helvetica Neue" font-size="55.0" fill="#525252" transform="matrix(1.00, 0.00, -0.00, -1.00, 852.9, 467.3)">r</text><text xml:space="preserve" font-family="HelveticaNeue-Thin,Helvetica Neue" font-size="55.0" fill="#525252" transform="matrix(1.00, 0.00, -0.00, -1.00, 868.2, 467.3)"> </text><text xml:space="preserve" font-family="HelveticaNeue-Thin,Helvetica Neue" font-size="55.0" fill="#525252" transform="matrix(1.00, 0.00, -0.00, -1.00, 883.5, 467.3)">o</text><text xml:space="preserve" font-family="HelveticaNeue-Thin,Helvetica Neue" font-size="55.0" fill="#525252" transform="matrix(1.00, 0.00, -0.00, -1.00, 913.0, 467.3)">t</text><text xml:space="preserve" font-family="HelveticaNeue-Thin,Helvetica Neue" font-size="55.0" fill="#525252" transform="matrix(1.00, 0.00, -0.00, -1.00, 927.3, 467.3)">r</text><text xml:space="preserve" font-family="HelveticaNeue-Thin,Helvetica Neue" font-size="55.0" fill="#525252" transform="matrix(1.00, 0.00, -0.00, -1.00, 941.5, 467.3)">a</text><text xml:space="preserve" font-family="HelveticaNeue-Thin,Helvetica Neue" font-size="55.0" fill="#525252" transform="matrix(1.00, 0.00, -0.00, -1.00, 969.0, 467.3)">j</text><text xml:space="preserve" font-family="HelveticaNeue-Thin,Helvetica Neue" font-size="55.0" fill="#525252" transform="matrix(1.00, 0.00, -0.00, -1.00, 978.2, 467.3)">ā</text><text xml:space="preserve" font-family="HelveticaNeue-Thin,Helvetica Neue" font-size="55.0" fill="#525252" transform="matrix(1.00, 0.00, -0.00, -1.00, 1005.7, 467.3)"> </text><text xml:space="preserve" font-family="HelveticaNeue-Thin,Helvetica Neue" font-size="55.0" fill="#525252" transform="matrix(1.00, 0.00, -0.00, -1.00, 445.8, 400.3)">v</text><text xml:space="preserve" font-family="HelveticaNeue-Thin,Helvetica Neue" font-size="55.0" fill="#525252" transform="matrix(1.00, 0.00, -0.00, -1.00, 470.2, 400.3)">i</text><text xml:space="preserve" font-family="HelveticaNeue-Thin,Helvetica Neue" font-size="55.0" fill="#525252" transform="matrix(1.00, 0.00, -0.00, -1.00, 479.4, 400.3)">e</text><text xml:space="preserve" font-family="HelveticaNeue-Thin,Helvetica Neue" font-size="55.0" fill="#525252" transform="matrix(1.00, 0.00, -0.00, -1.00, 508.0, 400.3)">t</text><text xml:space="preserve" font-family="HelveticaNeue-Thin,Helvetica Neue" font-size="55.0" fill="#525252" transform="matrix(1.00, 0.00, -0.00, -1.00, 522.2, 400.3)">ā</text><text xml:space="preserve" font-family="HelveticaNeue-Thin,Helvetica Neue" font-size="55.0" fill="#525252" transform="matrix(1.00, 0.00, -0.00, -1.00, 549.7, 400.3)">?</text></g></svg>