<?xml version="1.0" encoding="UTF-8" standalone="no"?><svg xmlns="http://www.w3.org/2000/svg" xmlns:xlink="http://www.w3.org/1999/xlink" clip-rule="evenodd" stroke-miterlimit="10" viewBox="0 0 1009 121"><desc>SVG generated by Keynote</desc><defs></defs><g transform="matrix(1.00, 0.00, -0.00, -1.00, 0.0, 121.0)"><text xml:space="preserve" font-family="HelveticaNeue-Thin,Helvetica Neue" font-size="55.0" fill="#525252" transform="matrix(1.00, 0.00, -0.00, -1.00, -0.0, 78.8)">J</text><text xml:space="preserve" font-family="HelveticaNeue-Thin,Helvetica Neue" font-size="55.0" fill="#525252" transform="matrix(1.00, 0.00, -0.00, -1.00, 26.4, 78.8)"> </text><text xml:space="preserve" font-family="HelveticaNeue-Thin,Helvetica Neue" font-size="55.0" fill="#525252" transform="matrix(1.00, 0.00, -0.00, -1.00, 41.7, 78.8)">:</text><text xml:space="preserve" font-family="HelveticaNeue-Thin,Helvetica Neue" font-size="55.0" fill="#525252" transform="matrix(1.00, 0.00, -0.00, -1.00, 57.0, 78.8)"> </text><text xml:space="preserve" font-family="HelveticaNeue-Thin,Helvetica Neue" font-size="55.0" fill="#525252" transform="matrix(1.00, 0.00, -0.00, -1.00, 72.3, 78.8)">C</text><text xml:space="preserve" font-family="HelveticaNeue-Thin,Helvetica Neue" font-size="55.0" fill="#525252" transform="matrix(1.00, 0.00, -0.00, -1.00, 111.0, 78.8)">i</text><text xml:space="preserve" font-family="HelveticaNeue-Thin,Helvetica Neue" font-size="55.0" fill="#525252" transform="matrix(1.00, 0.00, -0.00, -1.00, 120.3, 78.8)">k</text><text xml:space="preserve" font-family="HelveticaNeue-Thin,Helvetica Neue" font-size="55.0" fill="#525252" transform="matrix(1.00, 0.00, -0.00, -1.00, 145.7, 78.8)"> </text><text xml:space="preserve" font-family="HelveticaNeue-Thin,Helvetica Neue" font-size="55.0" fill="#525252" transform="matrix(1.00, 0.00, -0.00, -1.00, 161.0, 78.8)">p</text><text xml:space="preserve" font-family="HelveticaNeue-Thin,Helvetica Neue" font-size="55.0" fill="#525252" transform="matrix(1.00, 0.00, -0.00, -1.00, 191.6, 78.8)">i</text><text xml:space="preserve" font-family="HelveticaNeue-Thin,Helvetica Neue" font-size="55.0" fill="#525252" transform="matrix(1.00, 0.00, -0.00, -1.00, 200.8, 78.8)">e</text><text xml:space="preserve" font-family="HelveticaNeue-Thin,Helvetica Neue" font-size="55.0" fill="#525252" transform="matrix(1.00, 0.00, -0.00, -1.00, 229.4, 78.8)">t</text><text xml:space="preserve" font-family="HelveticaNeue-Thin,Helvetica Neue" font-size="55.0" fill="#525252" transform="matrix(1.00, 0.00, -0.00, -1.00, 242.9, 78.8)">e</text><text xml:space="preserve" font-family="HelveticaNeue-Thin,Helvetica Neue" font-size="55.0" fill="#525252" transform="matrix(1.00, 0.00, -0.00, -1.00, 271.4, 78.8)">i</text><text xml:space="preserve" font-family="HelveticaNeue-Thin,Helvetica Neue" font-size="55.0" fill="#525252" transform="matrix(1.00, 0.00, -0.00, -1.00, 280.6, 78.8)">k</text><text xml:space="preserve" font-family="HelveticaNeue-Thin,Helvetica Neue" font-size="55.0" fill="#525252" transform="matrix(1.00, 0.00, -0.00, -1.00, 306.1, 78.8)">u</text><text xml:space="preserve" font-family="HelveticaNeue-Thin,Helvetica Neue" font-size="55.0" fill="#525252" transform="matrix(1.00, 0.00, -0.00, -1.00, 334.6, 78.8)">m</text><text xml:space="preserve" font-family="HelveticaNeue-Thin,Helvetica Neue" font-size="55.0" fill="#525252" transform="matrix(1.00, 0.00, -0.00, -1.00, 378.4, 78.8)">i</text><text xml:space="preserve" font-family="HelveticaNeue-Thin,Helvetica Neue" font-size="55.0" fill="#525252" transform="matrix(1.00, 0.00, -0.00, -1.00, 387.7, 78.8)"> </text><text xml:space="preserve" font-family="HelveticaNeue-Thin,Helvetica Neue" font-size="55.0" fill="#525252" transform="matrix(1.00, 0.00, -0.00, -1.00, 403.0, 78.8)">i</text><text xml:space="preserve" font-family="HelveticaNeue-Thin,Helvetica Neue" font-size="55.0" fill="#525252" transform="matrix(1.00, 0.00, -0.00, -1.00, 412.2, 78.8)">r</text><text xml:space="preserve" font-family="HelveticaNeue-Thin,Helvetica Neue" font-size="55.0" fill="#525252" transform="matrix(1.00, 0.00, -0.00, -1.00, 427.5, 78.8)"> </text><text xml:space="preserve" font-family="HelveticaNeue-Thin,Helvetica Neue" font-size="55.0" fill="#525252" transform="matrix(1.00, 0.00, -0.00, -1.00, 442.8, 78.8)">p</text><text xml:space="preserve" font-family="HelveticaNeue-Thin,Helvetica Neue" font-size="55.0" fill="#525252" transform="matrix(1.00, 0.00, -0.00, -1.00, 473.4, 78.8)">i</text><text xml:space="preserve" font-family="HelveticaNeue-Thin,Helvetica Neue" font-size="55.0" fill="#525252" transform="matrix(1.00, 0.00, -0.00, -1.00, 482.6, 78.8)">e</text><text xml:space="preserve" font-family="HelveticaNeue-Thin,Helvetica Neue" font-size="55.0" fill="#525252" transform="matrix(1.00, 0.00, -0.00, -1.00, 511.1, 78.8)">t</text><text xml:space="preserve" font-family="HelveticaNeue-Thin,Helvetica Neue" font-size="55.0" fill="#525252" transform="matrix(1.00, 0.00, -0.00, -1.00, 524.6, 78.8)">e</text><text xml:space="preserve" font-family="HelveticaNeue-Thin,Helvetica Neue" font-size="55.0" fill="#525252" transform="matrix(1.00, 0.00, -0.00, -1.00, 553.2, 78.8)">i</text><text xml:space="preserve" font-family="HelveticaNeue-Thin,Helvetica Neue" font-size="55.0" fill="#525252" transform="matrix(1.00, 0.00, -0.00, -1.00, 562.4, 78.8)">k</text><text xml:space="preserve" font-family="HelveticaNeue-Thin,Helvetica Neue" font-size="55.0" fill="#525252" transform="matrix(1.00, 0.00, -0.00, -1.00, 587.9, 78.8)">t</text><text xml:space="preserve" font-family="HelveticaNeue-Thin,Helvetica Neue" font-size="55.0" fill="#525252" transform="matrix(1.00, 0.00, -0.00, -1.00, 602.1, 78.8)">i</text><text xml:space="preserve" font-family="HelveticaNeue-Thin,Helvetica Neue" font-size="55.0" fill="#525252" transform="matrix(1.00, 0.00, -0.00, -1.00, 611.4, 78.8)"> </text><text xml:space="preserve" font-family="HelveticaNeue-Thin,Helvetica Neue" font-size="55.0" fill="#525252" transform="matrix(1.00, 0.00, -0.00, -1.00, 626.6, 78.8)">k</text><text xml:space="preserve" font-family="HelveticaNeue-Thin,Helvetica Neue" font-size="55.0" fill="#525252" transform="matrix(1.00, 0.00, -0.00, -1.00, 651.4, 78.8)">o</text><text xml:space="preserve" font-family="HelveticaNeue-Thin,Helvetica Neue" font-size="55.0" fill="#525252" transform="matrix(1.00, 0.00, -0.00, -1.00, 681.0, 78.8)">p</text><text xml:space="preserve" font-family="HelveticaNeue-Thin,Helvetica Neue" font-size="55.0" fill="#525252" transform="matrix(1.00, 0.00, -0.00, -1.00, 711.6, 78.8)">š</text><text xml:space="preserve" font-family="HelveticaNeue-Thin,Helvetica Neue" font-size="55.0" fill="#525252" transform="matrix(1.00, 0.00, -0.00, -1.00, 738.0, 78.8)"> </text><text xml:space="preserve" font-family="HelveticaNeue-Thin,Helvetica Neue" font-size="55.0" fill="#525252" transform="matrix(1.00, 0.00, -0.00, -1.00, 753.3, 78.8)">2</text><text xml:space="preserve" font-family="HelveticaNeue-Thin,Helvetica Neue" font-size="55.0" fill="#525252" transform="matrix(1.00, 0.00, -0.00, -1.00, 783.9, 78.8)">0</text><text xml:space="preserve" font-family="HelveticaNeue-Thin,Helvetica Neue" font-size="55.0" fill="#525252" transform="matrix(1.00, 0.00, -0.00, -1.00, 814.5, 78.8)">0</text><text xml:space="preserve" font-family="HelveticaNeue-Thin,Helvetica Neue" font-size="55.0" fill="#525252" transform="matrix(1.00, 0.00, -0.00, -1.00, 845.0, 78.8)">5</text><text xml:space="preserve" font-family="HelveticaNeue-Thin,Helvetica Neue" font-size="55.0" fill="#525252" transform="matrix(1.00, 0.00, -0.00, -1.00, 875.6, 78.8)">.</text><text xml:space="preserve" font-family="HelveticaNeue-Thin,Helvetica Neue" font-size="55.0" fill="#525252" transform="matrix(1.00, 0.00, -0.00, -1.00, 890.9, 78.8)">g</text><text xml:space="preserve" font-family="HelveticaNeue-Thin,Helvetica Neue" font-size="55.0" fill="#525252" transform="matrix(1.00, 0.00, -0.00, -1.00, 920.5, 78.8)">a</text><text xml:space="preserve" font-family="HelveticaNeue-Thin,Helvetica Neue" font-size="55.0" fill="#525252" transform="matrix(1.00, 0.00, -0.00, -1.00, 948.0, 78.8)">d</text><text xml:space="preserve" font-family="HelveticaNeue-Thin,Helvetica Neue" font-size="55.0" fill="#525252" transform="matrix(1.00, 0.00, -0.00, -1.00, 978.5, 78.8)">a</text><text xml:space="preserve" font-family="HelveticaNeue-Thin,Helvetica Neue" font-size="55.0" fill="#525252" transform="matrix(1.00, 0.00, -0.00, -1.00, 1006.0, 78.8)"> </text><text xml:space="preserve" font-family="HelveticaNeue-Thin,Helvetica Neue" font-size="55.0" fill="#525252" transform="matrix(1.00, 0.00, -0.00, -1.00, 209.9, 11.8)">(</text><text xml:space="preserve" font-family="HelveticaNeue-Thin,Helvetica Neue" font-size="55.0" fill="#525252" transform="matrix(1.00, 0.00, -0.00, -1.00, 223.1, 11.8)">l</text><text xml:space="preserve" font-family="HelveticaNeue-Thin,Helvetica Neue" font-size="55.0" fill="#525252" transform="matrix(1.00, 0.00, -0.00, -1.00, 232.4, 11.8)">ī</text><text xml:space="preserve" font-family="HelveticaNeue-Thin,Helvetica Neue" font-size="55.0" fill="#525252" transform="matrix(1.00, 0.00, -0.00, -1.00, 241.6, 11.8)">d</text><text xml:space="preserve" font-family="HelveticaNeue-Thin,Helvetica Neue" font-size="55.0" fill="#525252" transform="matrix(1.00, 0.00, -0.00, -1.00, 272.2, 11.8)">z</text><text xml:space="preserve" font-family="HelveticaNeue-Thin,Helvetica Neue" font-size="55.0" fill="#525252" transform="matrix(1.00, 0.00, -0.00, -1.00, 295.6, 11.8)"> </text><text xml:space="preserve" font-family="HelveticaNeue-Thin,Helvetica Neue" font-size="55.0" fill="#525252" transform="matrix(1.00, 0.00, -0.00, -1.00, 310.9, 11.8)">1</text><text xml:space="preserve" font-family="HelveticaNeue-Thin,Helvetica Neue" font-size="55.0" fill="#525252" transform="matrix(1.00, 0.00, -0.00, -1.00, 341.5, 11.8)">3</text><text xml:space="preserve" font-family="HelveticaNeue-Thin,Helvetica Neue" font-size="55.0" fill="#525252" transform="matrix(1.00, 0.00, -0.00, -1.00, 372.1, 11.8)">.</text><text xml:space="preserve" font-family="HelveticaNeue-Thin,Helvetica Neue" font-size="55.0" fill="#525252" transform="matrix(1.00, 0.00, -0.00, -1.00, 387.4, 11.8)">1</text><text xml:space="preserve" font-family="HelveticaNeue-Thin,Helvetica Neue" font-size="55.0" fill="#525252" transform="matrix(1.00, 0.00, -0.00, -1.00, 417.9, 11.8)">1</text><text xml:space="preserve" font-family="HelveticaNeue-Thin,Helvetica Neue" font-size="55.0" fill="#525252" transform="matrix(1.00, 0.00, -0.00, -1.00, 448.5, 11.8)">.</text><text xml:space="preserve" font-family="HelveticaNeue-Thin,Helvetica Neue" font-size="55.0" fill="#525252" transform="matrix(1.00, 0.00, -0.00, -1.00, 463.8, 11.8)">2</text><text xml:space="preserve" font-family="HelveticaNeue-Thin,Helvetica Neue" font-size="55.0" fill="#525252" transform="matrix(1.00, 0.00, -0.00, -1.00, 494.4, 11.8)">0</text><text xml:space="preserve" font-family="HelveticaNeue-Thin,Helvetica Neue" font-size="55.0" fill="#525252" transform="matrix(1.00, 0.00, -0.00, -1.00, 525.0, 11.8)">1</text><text xml:space="preserve" font-family="HelveticaNeue-Thin,Helvetica Neue" font-size="55.0" fill="#525252" transform="matrix(1.00, 0.00, -0.00, -1.00, 555.6, 11.8)">4</text><text xml:space="preserve" font-family="HelveticaNeue-Thin,Helvetica Neue" font-size="55.0" fill="#525252" transform="matrix(1.00, 0.00, -0.00, -1.00, 586.1, 11.8)">,</text><text xml:space="preserve" font-family="HelveticaNeue-Thin,Helvetica Neue" font-size="55.0" fill="#525252" transform="matrix(1.00, 0.00, -0.00, -1.00, 601.4, 11.8)"> </text><text xml:space="preserve" font-family="HelveticaNeue-Thin,Helvetica Neue" font-size="55.0" fill="#525252" transform="matrix(1.00, 0.00, -0.00, -1.00, 616.7, 11.8)">1</text><text xml:space="preserve" font-family="HelveticaNeue-Thin,Helvetica Neue" font-size="55.0" fill="#525252" transform="matrix(1.00, 0.00, -0.00, -1.00, 647.3, 11.8)">6</text><text xml:space="preserve" font-family="HelveticaNeue-Thin,Helvetica Neue" font-size="55.0" fill="#525252" transform="matrix(1.00, 0.00, -0.00, -1.00, 677.9, 11.8)">:</text><text xml:space="preserve" font-family="HelveticaNeue-Thin,Helvetica Neue" font-size="55.0" fill="#525252" transform="matrix(1.00, 0.00, -0.00, -1.00, 693.2, 11.8)">4</text><text xml:space="preserve" font-family="HelveticaNeue-Thin,Helvetica Neue" font-size="55.0" fill="#525252" transform="matrix(1.00, 0.00, -0.00, -1.00, 723.7, 11.8)">1</text><text xml:space="preserve" font-family="HelveticaNeue-Thin,Helvetica Neue" font-size="55.0" fill="#525252" transform="matrix(1.00, 0.00, -0.00, -1.00, 754.3, 11.8)">)</text><text xml:space="preserve" font-family="HelveticaNeue-Thin,Helvetica Neue" font-size="55.0" fill="#525252" transform="matrix(1.00, 0.00, -0.00, -1.00, 767.6, 11.8)">?</text></g></svg>