<?xml version="1.0" encoding="UTF-8" standalone="no"?><svg xmlns="http://www.w3.org/2000/svg" xmlns:xlink="http://www.w3.org/1999/xlink" clip-rule="evenodd" stroke-miterlimit="10" viewBox="0 0 1024 768"><desc>SVG generated by Keynote</desc><defs></defs><g transform="matrix(1.00, 0.00, -0.00, -1.00, 0.0, 768.0)"><g><clipPath id="clip0x7fe384295180"><path d="M 0.0 768.0 L 1024.0 768.0 L 1024.0 0.0 L 0.0 0.0 Z M 0.0 768.0 "></path></clipPath><g clip-path="url(#clip0x7fe384295180)"><image xlink:href="../../BE03AB4A-F5E0-4685-80C7-20DCBC62631F/assets/574DCE55A4CF432400CBDDDE1DFDFC9B.jpeg" width="2048.00" height="1536.00" transform="matrix(0.50, 0.00, -0.00, -0.50, 0.0, 768.0)"></image></g></g><image xlink:href="../../0D8647A6-2E4E-462F-84E8-18A5D4C95D94/assets/B81058271971FD2768E230A11853A66C.png" width="751.00" height="551.00" transform="matrix(0.31, 0.00, -0.00, -0.31, 768.0, 192.0)"></image><text xml:space="preserve" font-family="HelveticaNeue-Thin,Helvetica Neue" font-size="72.0" fill="#525252" transform="matrix(1.00, 0.00, -0.00, -1.00, 358.5, 356.9)">S</text><text xml:space="preserve" font-family="HelveticaNeue-Thin,Helvetica Neue" font-size="72.0" fill="#525252" transform="matrix(1.00, 0.00, -0.00, -1.00, 403.9, 356.9)">V</text><text xml:space="preserve" font-family="HelveticaNeue-Thin,Helvetica Neue" font-size="72.0" fill="#525252" transform="matrix(1.00, 0.00, -0.00, -1.00, 443.9, 356.9)">E</text><text xml:space="preserve" font-family="HelveticaNeue-Thin,Helvetica Neue" font-size="72.0" fill="#525252" transform="matrix(1.00, 0.00, -0.00, -1.00, 484.2, 356.9)">I</text><text xml:space="preserve" font-family="HelveticaNeue-Thin,Helvetica Neue" font-size="72.0" fill="#525252" transform="matrix(1.00, 0.00, -0.00, -1.00, 496.5, 356.9)">C</text><text xml:space="preserve" font-family="HelveticaNeue-Thin,Helvetica Neue" font-size="72.0" fill="#525252" transform="matrix(1.00, 0.00, -0.00, -1.00, 545.9, 356.9)">A</text><text xml:space="preserve" font-family="HelveticaNeue-Thin,Helvetica Neue" font-size="72.0" fill="#525252" transform="matrix(1.00, 0.00, -0.00, -1.00, 588.6, 356.9)">M</text><text xml:space="preserve" font-family="HelveticaNeue-Thin,Helvetica Neue" font-size="72.0" fill="#525252" transform="matrix(1.00, 0.00, -0.00, -1.00, 646.8, 356.9)">!</text></g></svg>