<?xml version="1.0" encoding="UTF-8" standalone="no"?><svg xmlns="http://www.w3.org/2000/svg" xmlns:xlink="http://www.w3.org/1999/xlink" clip-rule="evenodd" stroke-miterlimit="10" viewBox="0 0 1024 768"><desc>SVG generated by Keynote</desc><defs></defs><g transform="matrix(1.00, 0.00, -0.00, -1.00, 0.0, 768.0)"><g><clipPath id="clip0x7fe3a20f8fb0"><path d="M 0.0 768.0 L 1024.0 768.0 L 1024.0 0.0 L 0.0 0.0 Z M 0.0 768.0 "></path></clipPath><g clip-path="url(#clip0x7fe3a20f8fb0)"><image xlink:href="../../BE03AB4A-F5E0-4685-80C7-20DCBC62631F/assets/574DCE55A4CF432400CBDDDE1DFDFC9B.jpeg" width="2048.00" height="1536.00" transform="matrix(0.50, 0.00, -0.00, -0.50, 0.0, 768.0)"></image></g></g><text xml:space="preserve" font-family="HelveticaNeue-Thin,Helvetica Neue" font-size="36.0" fill="#525252" transform="matrix(1.00, 0.00, -0.00, -1.00, 114.6, 431.9)">A</text><text xml:space="preserve" font-family="HelveticaNeue-Thin,Helvetica Neue" font-size="36.0" fill="#525252" transform="matrix(1.00, 0.00, -0.00, -1.00, 135.9, 431.9)">n</text><text xml:space="preserve" font-family="HelveticaNeue-Thin,Helvetica Neue" font-size="36.0" fill="#525252" transform="matrix(1.00, 0.00, -0.00, -1.00, 154.6, 431.9)">d</text><text xml:space="preserve" font-family="HelveticaNeue-Thin,Helvetica Neue" font-size="36.0" fill="#525252" transform="matrix(1.00, 0.00, -0.00, -1.00, 174.6, 431.9)">r</text><text xml:space="preserve" font-family="HelveticaNeue-Thin,Helvetica Neue" font-size="36.0" fill="#525252" transform="matrix(1.00, 0.00, -0.00, -1.00, 184.6, 431.9)">i</text><text xml:space="preserve" font-family="HelveticaNeue-Thin,Helvetica Neue" font-size="36.0" fill="#525252" transform="matrix(1.00, 0.00, -0.00, -1.00, 190.7, 431.9)">s</text><text xml:space="preserve" font-family="HelveticaNeue-Thin,Helvetica Neue" font-size="20.0" fill="#525252" transform="matrix(1.00, 0.00, -0.00, -1.00, 107.0, 397.8)">#</text><text xml:space="preserve" font-family="HelveticaNeue-Thin,Helvetica Neue" font-size="20.0" fill="#525252" transform="matrix(1.00, 0.00, -0.00, -1.00, 118.1, 397.8)">s</text><text xml:space="preserve" font-family="HelveticaNeue-Thin,Helvetica Neue" font-size="20.0" fill="#525252" transform="matrix(1.00, 0.00, -0.00, -1.00, 127.7, 397.8)">p</text><text xml:space="preserve" font-family="HelveticaNeue-Thin,Helvetica Neue" font-size="20.0" fill="#525252" transform="matrix(1.00, 0.00, -0.00, -1.00, 138.8, 397.8)">o</text><text xml:space="preserve" font-family="HelveticaNeue-Thin,Helvetica Neue" font-size="20.0" fill="#525252" transform="matrix(1.00, 0.00, -0.00, -1.00, 149.6, 397.8)">t</text><text xml:space="preserve" font-family="HelveticaNeue-Thin,Helvetica Neue" font-size="20.0" fill="#525252" transform="matrix(1.00, 0.00, -0.00, -1.00, 154.8, 397.8)">i</text><text xml:space="preserve" font-family="HelveticaNeue-Thin,Helvetica Neue" font-size="20.0" fill="#525252" transform="matrix(1.00, 0.00, -0.00, -1.00, 158.1, 397.8)">f</text><text xml:space="preserve" font-family="HelveticaNeue-Thin,Helvetica Neue" font-size="20.0" fill="#525252" transform="matrix(1.00, 0.00, -0.00, -1.00, 162.9, 397.8)">y</text><text xml:space="preserve" font-family="HelveticaNeue-Thin,Helvetica Neue" font-size="20.0" fill="#525252" transform="matrix(1.00, 0.00, -0.00, -1.00, 171.8, 397.8)">_</text><text xml:space="preserve" font-family="HelveticaNeue-Thin,Helvetica Neue" font-size="20.0" fill="#525252" transform="matrix(1.00, 0.00, -0.00, -1.00, 181.8, 397.8)">t</text><text xml:space="preserve" font-family="HelveticaNeue-Thin,Helvetica Neue" font-size="20.0" fill="#525252" transform="matrix(1.00, 0.00, -0.00, -1.00, 186.7, 397.8)">e</text><text xml:space="preserve" font-family="HelveticaNeue-Thin,Helvetica Neue" font-size="20.0" fill="#525252" transform="matrix(1.00, 0.00, -0.00, -1.00, 197.1, 397.8)">v</text><text xml:space="preserve" font-family="HelveticaNeue-Thin,Helvetica Neue" font-size="20.0" fill="#525252" transform="matrix(1.00, 0.00, -0.00, -1.00, 206.0, 397.8)">s</text><g><clipPath id="clip0x7fe3830ddc70"><path d="M 73.0 490.0 L 250.0 490.0 L 250.0 710.0 L 73.0 710.0 Z M 73.0 490.0 "></path></clipPath><g clip-path="url(#clip0x7fe3830ddc70)"><path d="M 73.0 710.0 L 250.0 710.0 L 250.0 490.0 L 73.0 490.0 Z M 73.0 710.0 " fill="#FEFFFF" fill-opacity="0.00"></path></g></g><g><clipPath id="clip0x7fe3830dee50"><path d="M 73.0 490.0 L 250.0 490.0 L 250.0 710.0 L 73.0 710.0 Z M 73.0 490.0 "></path></clipPath><g clip-path="url(#clip0x7fe3830dee50)"><image xlink:href="../../939F2F0F-9AA5-4461-8BFE-C3B1A61AE447/assets/1BF58642427DDF2EFF572A26F9702603.png" width="198.00" height="246.00" transform="matrix(0.89, 0.00, -0.00, -0.89, 73.0, 710.0)"></image></g></g><image xlink:href="../../939F2F0F-9AA5-4461-8BFE-C3B1A61AE447/assets/19810D7F516E5BA1640D2CEAB2E6F7E2.png" width="191.00" height="239.00" transform="matrix(1.00, 0.00, -0.00, 1.00, 66.0, 475.0)"></image><g><clipPath id="clip0x7fe3830e1690"><path d="M 418.0 490.0 L 606.0 490.0 L 606.0 711.0 L 418.0 711.0 Z M 418.0 490.0 "></path></clipPath><g clip-path="url(#clip0x7fe3830e1690)"><path d="M 418.0 711.0 L 606.0 711.0 L 606.0 490.0 L 418.0 490.0 Z M 418.0 711.0 " fill="#FEFFFF" fill-opacity="0.00"></path><image xlink:href="../../939F2F0F-9AA5-4461-8BFE-C3B1A61AE447/assets/E486131BFCEDF23EFBF308F937BAB5A2.png" width="217.00" height="255.00" transform="matrix(0.87, 0.00, -0.00, -0.87, 418.0, 711.0)"></image></g></g><image xlink:href="../../939F2F0F-9AA5-4461-8BFE-C3B1A61AE447/assets/469498909CD9996CA96FF1DD30DABF81.png" width="202.00" height="240.00" transform="matrix(1.00, 0.00, -0.00, 1.00, 411.0, 475.0)"></image><text xml:space="preserve" font-family="HelveticaNeue-Thin,Helvetica Neue" font-size="36.0" fill="#525252" transform="matrix(1.00, 0.00, -0.00, -1.00, 473.3, 432.6)">J</text><text xml:space="preserve" font-family="HelveticaNeue-Thin,Helvetica Neue" font-size="36.0" fill="#525252" transform="matrix(1.00, 0.00, -0.00, -1.00, 490.6, 432.6)">ā</text><text xml:space="preserve" font-family="HelveticaNeue-Thin,Helvetica Neue" font-size="36.0" fill="#525252" transform="matrix(1.00, 0.00, -0.00, -1.00, 508.6, 432.6)">n</text><text xml:space="preserve" font-family="HelveticaNeue-Thin,Helvetica Neue" font-size="36.0" fill="#525252" transform="matrix(1.00, 0.00, -0.00, -1.00, 527.3, 432.6)">i</text><text xml:space="preserve" font-family="HelveticaNeue-Thin,Helvetica Neue" font-size="36.0" fill="#525252" transform="matrix(1.00, 0.00, -0.00, -1.00, 533.4, 432.6)">s</text><text xml:space="preserve" font-family="HelveticaNeue-Thin,Helvetica Neue" font-size="20.0" fill="#525252" transform="matrix(1.00, 0.00, -0.00, -1.00, 439.7, 397.8)">#</text><text xml:space="preserve" font-family="HelveticaNeue-Thin,Helvetica Neue" font-size="20.0" fill="#525252" transform="matrix(1.00, 0.00, -0.00, -1.00, 450.8, 397.8)">c</text><text xml:space="preserve" font-family="HelveticaNeue-Thin,Helvetica Neue" font-size="20.0" fill="#525252" transform="matrix(1.00, 0.00, -0.00, -1.00, 461.2, 397.8)">i</text><text xml:space="preserve" font-family="HelveticaNeue-Thin,Helvetica Neue" font-size="20.0" fill="#525252" transform="matrix(1.00, 0.00, -0.00, -1.00, 464.5, 397.8)">l</text><text xml:space="preserve" font-family="HelveticaNeue-Thin,Helvetica Neue" font-size="20.0" fill="#525252" transform="matrix(1.00, 0.00, -0.00, -1.00, 467.9, 397.8)">v</text><text xml:space="preserve" font-family="HelveticaNeue-Thin,Helvetica Neue" font-size="20.0" fill="#525252" transform="matrix(1.00, 0.00, -0.00, -1.00, 476.8, 397.8)">ē</text><text xml:space="preserve" font-family="HelveticaNeue-Thin,Helvetica Neue" font-size="20.0" fill="#525252" transform="matrix(1.00, 0.00, -0.00, -1.00, 487.1, 397.8)">k</text><text xml:space="preserve" font-family="HelveticaNeue-Thin,Helvetica Neue" font-size="20.0" fill="#525252" transform="matrix(1.00, 0.00, -0.00, -1.00, 496.4, 397.8)">s</text><text xml:space="preserve" font-family="HelveticaNeue-Thin,Helvetica Neue" font-size="20.0" fill="#525252" transform="matrix(1.00, 0.00, -0.00, -1.00, 506.0, 397.8)">_</text><text xml:space="preserve" font-family="HelveticaNeue-Thin,Helvetica Neue" font-size="20.0" fill="#525252" transform="matrix(1.00, 0.00, -0.00, -1.00, 516.0, 397.8)">s</text><text xml:space="preserve" font-family="HelveticaNeue-Thin,Helvetica Neue" font-size="20.0" fill="#525252" transform="matrix(1.00, 0.00, -0.00, -1.00, 525.6, 397.8)">k</text><text xml:space="preserve" font-family="HelveticaNeue-Thin,Helvetica Neue" font-size="20.0" fill="#525252" transform="matrix(1.00, 0.00, -0.00, -1.00, 534.7, 397.8)">e</text><text xml:space="preserve" font-family="HelveticaNeue-Thin,Helvetica Neue" font-size="20.0" fill="#525252" transform="matrix(1.00, 0.00, -0.00, -1.00, 545.0, 397.8)">n</text><text xml:space="preserve" font-family="HelveticaNeue-Thin,Helvetica Neue" font-size="20.0" fill="#525252" transform="matrix(1.00, 0.00, -0.00, -1.00, 555.4, 397.8)">e</text><text xml:space="preserve" font-family="HelveticaNeue-Thin,Helvetica Neue" font-size="20.0" fill="#525252" transform="matrix(1.00, 0.00, -0.00, -1.00, 565.8, 397.8)">r</text><text xml:space="preserve" font-family="HelveticaNeue-Thin,Helvetica Neue" font-size="20.0" fill="#525252" transform="matrix(1.00, 0.00, -0.00, -1.00, 571.4, 397.8)">i</text><text xml:space="preserve" font-family="HelveticaNeue-Thin,Helvetica Neue" font-size="20.0" fill="#525252" transform="matrix(1.00, 0.00, -0.00, -1.00, 574.7, 397.8)">s</text><g><clipPath id="clip0x7fe3830ef530"><path d="M 774.0 490.0 L 934.0 490.0 L 934.0 710.0 L 774.0 710.0 Z M 774.0 490.0 "></path></clipPath><g clip-path="url(#clip0x7fe3830ef530)"><path d="M 774.0 710.0 L 934.0 710.0 L 934.0 490.0 L 774.0 490.0 Z M 774.0 710.0 " fill="#FEFFFF" fill-opacity="0.00"></path><image xlink:href="../../939F2F0F-9AA5-4461-8BFE-C3B1A61AE447/assets/B11CDB30DEAF605C23E1851D120B00E6.png" width="179.00" height="246.00" transform="matrix(0.89, 0.00, -0.00, -0.89, 774.0, 710.0)"></image></g></g><image xlink:href="../../939F2F0F-9AA5-4461-8BFE-C3B1A61AE447/assets/EB0115809AA3298C9F9ACB35C96772B6.png" width="174.00" height="239.00" transform="matrix(1.00, 0.00, -0.00, 1.00, 767.0, 475.0)"></image><g><clipPath id="clip0x7fe3834b7080"><path d="M 75.0 125.0 L 247.0 125.0 L 247.0 345.0 L 75.0 345.0 Z M 75.0 125.0 "></path></clipPath><g clip-path="url(#clip0x7fe3834b7080)"><path d="M 75.0 345.0 L 247.0 345.0 L 247.0 125.0 L 75.0 125.0 Z M 75.0 345.0 " fill="#FEFFFF" fill-opacity="0.00"></path></g></g><g><clipPath id="clip0x7fe3834b8270"><path d="M 75.0 125.0 L 247.0 125.0 L 247.0 345.0 L 75.0 345.0 Z M 75.0 125.0 "></path></clipPath><g clip-path="url(#clip0x7fe3834b8270)"><image xlink:href="../../939F2F0F-9AA5-4461-8BFE-C3B1A61AE447/assets/F3EDEF3B67CE3BF51D5B7566FC3BBE3D.png" width="265.00" height="339.00" transform="matrix(0.65, 0.00, -0.00, -0.65, 75.0, 345.0)"></image></g></g><image xlink:href="../../939F2F0F-9AA5-4461-8BFE-C3B1A61AE447/assets/7F4D75BC884CFD9262BB274DF24AF947.png" width="186.00" height="239.00" transform="matrix(1.00, 0.00, -0.00, 1.00, 68.0, 110.0)"></image><g><clipPath id="clip0x7fe3834baaf0"><path d="M 405.0 132.0 L 619.0 132.0 L 619.0 339.0 L 405.0 339.0 Z M 405.0 132.0 "></path></clipPath><g clip-path="url(#clip0x7fe3834baaf0)"><path d="M 405.0 339.0 L 619.0 339.0 L 619.0 132.0 L 405.0 132.0 Z M 405.0 339.0 " fill="#FEFFFF" fill-opacity="0.00"></path><image xlink:href="../../939F2F0F-9AA5-4461-8BFE-C3B1A61AE447/assets/1AFC5A53FE1E7BE7F8702512F32CC649.png" width="249.00" height="241.00" transform="matrix(0.86, 0.00, -0.00, -0.86, 405.0, 339.0)"></image></g></g><image xlink:href="../../939F2F0F-9AA5-4461-8BFE-C3B1A61AE447/assets/A03A684DBF347916124F8E3ABA8877E7.png" width="228.00" height="226.00" transform="matrix(1.00, 0.00, -0.00, 1.00, 398.0, 117.0)"></image><g><clipPath id="clip0x7fe3834bdd30"><path d="M 747.0 137.0 L 961.0 137.0 L 961.0 333.0 L 747.0 333.0 Z M 747.0 137.0 "></path></clipPath><g clip-path="url(#clip0x7fe3834bdd30)"><path d="M 747.0 333.0 L 961.0 333.0 L 961.0 137.0 L 747.0 137.0 Z M 747.0 333.0 " fill="#FEFFFF" fill-opacity="0.00"></path><image xlink:href="../../939F2F0F-9AA5-4461-8BFE-C3B1A61AE447/assets/7899D5DD155B9E9B6ECD465E6C4A0109.png" width="269.00" height="247.00" transform="matrix(0.80, 0.00, -0.00, -0.79, 747.0, 333.0)"></image></g></g><image xlink:href="../../939F2F0F-9AA5-4461-8BFE-C3B1A61AE447/assets/2929D1422813BC64835F666054AA097F.png" width="228.00" height="215.00" transform="matrix(1.00, 0.00, -0.00, 1.00, 740.0, 122.0)"></image><text xml:space="preserve" font-family="HelveticaNeue-Thin,Helvetica Neue" font-size="36.0" fill="#525252" transform="matrix(1.00, 0.00, -0.00, -1.00, 798.0, 431.9)">M</text><text xml:space="preserve" font-family="HelveticaNeue-Thin,Helvetica Neue" font-size="36.0" fill="#525252" transform="matrix(1.00, 0.00, -0.00, -1.00, 827.1, 431.9)">a</text><text xml:space="preserve" font-family="HelveticaNeue-Thin,Helvetica Neue" font-size="36.0" fill="#525252" transform="matrix(1.00, 0.00, -0.00, -1.00, 845.1, 431.9)">d</text><text xml:space="preserve" font-family="HelveticaNeue-Thin,Helvetica Neue" font-size="36.0" fill="#525252" transform="matrix(1.00, 0.00, -0.00, -1.00, 865.1, 431.9)">a</text><text xml:space="preserve" font-family="HelveticaNeue-Thin,Helvetica Neue" font-size="36.0" fill="#525252" transform="matrix(1.00, 0.00, -0.00, -1.00, 883.1, 431.9)">r</text><text xml:space="preserve" font-family="HelveticaNeue-Thin,Helvetica Neue" font-size="36.0" fill="#525252" transform="matrix(1.00, 0.00, -0.00, -1.00, 893.1, 431.9)">s</text><text xml:space="preserve" font-family="HelveticaNeue-Thin,Helvetica Neue" font-size="20.0" fill="#525252" transform="matrix(1.00, 0.00, -0.00, -1.00, 742.8, 398.0)">#</text><text xml:space="preserve" font-family="HelveticaNeue-Thin,Helvetica Neue" font-size="20.0" fill="#525252" transform="matrix(1.00, 0.00, -0.00, -1.00, 753.9, 398.0)">k</text><text xml:space="preserve" font-family="HelveticaNeue-Thin,Helvetica Neue" font-size="20.0" fill="#525252" transform="matrix(1.00, 0.00, -0.00, -1.00, 763.0, 398.0)">o</text><text xml:space="preserve" font-family="HelveticaNeue-Thin,Helvetica Neue" font-size="20.0" fill="#525252" transform="matrix(1.00, 0.00, -0.00, -1.00, 773.7, 398.0)">r</text><text xml:space="preserve" font-family="HelveticaNeue-Thin,Helvetica Neue" font-size="20.0" fill="#525252" transform="matrix(1.00, 0.00, -0.00, -1.00, 779.3, 398.0)">p</text><text xml:space="preserve" font-family="HelveticaNeue-Thin,Helvetica Neue" font-size="20.0" fill="#525252" transform="matrix(1.00, 0.00, -0.00, -1.00, 790.4, 398.0)">o</text><text xml:space="preserve" font-family="HelveticaNeue-Thin,Helvetica Neue" font-size="20.0" fill="#525252" transform="matrix(1.00, 0.00, -0.00, -1.00, 801.1, 398.0)">r</text><text xml:space="preserve" font-family="HelveticaNeue-Thin,Helvetica Neue" font-size="20.0" fill="#525252" transform="matrix(1.00, 0.00, -0.00, -1.00, 806.3, 398.0)">a</text><text xml:space="preserve" font-family="HelveticaNeue-Thin,Helvetica Neue" font-size="20.0" fill="#525252" transform="matrix(1.00, 0.00, -0.00, -1.00, 816.3, 398.0)">t</text><text xml:space="preserve" font-family="HelveticaNeue-Thin,Helvetica Neue" font-size="20.0" fill="#525252" transform="matrix(1.00, 0.00, -0.00, -1.00, 821.5, 398.0)">i</text><text xml:space="preserve" font-family="HelveticaNeue-Thin,Helvetica Neue" font-size="20.0" fill="#525252" transform="matrix(1.00, 0.00, -0.00, -1.00, 824.8, 398.0)">v</text><text xml:space="preserve" font-family="HelveticaNeue-Thin,Helvetica Neue" font-size="20.0" fill="#525252" transform="matrix(1.00, 0.00, -0.00, -1.00, 833.7, 398.0)">o</text><text xml:space="preserve" font-family="HelveticaNeue-Thin,Helvetica Neue" font-size="20.0" fill="#525252" transform="matrix(1.00, 0.00, -0.00, -1.00, 844.4, 398.0)">_</text><text xml:space="preserve" font-family="HelveticaNeue-Thin,Helvetica Neue" font-size="20.0" fill="#525252" transform="matrix(1.00, 0.00, -0.00, -1.00, 854.4, 398.0)">k</text><text xml:space="preserve" font-family="HelveticaNeue-Thin,Helvetica Neue" font-size="20.0" fill="#525252" transform="matrix(1.00, 0.00, -0.00, -1.00, 863.7, 398.0)">l</text><text xml:space="preserve" font-family="HelveticaNeue-Thin,Helvetica Neue" font-size="20.0" fill="#525252" transform="matrix(1.00, 0.00, -0.00, -1.00, 867.1, 398.0)">i</text><text xml:space="preserve" font-family="HelveticaNeue-Thin,Helvetica Neue" font-size="20.0" fill="#525252" transform="matrix(1.00, 0.00, -0.00, -1.00, 870.4, 398.0)">e</text><text xml:space="preserve" font-family="HelveticaNeue-Thin,Helvetica Neue" font-size="20.0" fill="#525252" transform="matrix(1.00, 0.00, -0.00, -1.00, 880.8, 398.0)">n</text><text xml:space="preserve" font-family="HelveticaNeue-Thin,Helvetica Neue" font-size="20.0" fill="#525252" transform="matrix(1.00, 0.00, -0.00, -1.00, 891.2, 398.0)">t</text><text xml:space="preserve" font-family="HelveticaNeue-Thin,Helvetica Neue" font-size="20.0" fill="#525252" transform="matrix(1.00, 0.00, -0.00, -1.00, 896.4, 398.0)">u</text><text xml:space="preserve" font-family="HelveticaNeue-Thin,Helvetica Neue" font-size="20.0" fill="#525252" transform="matrix(1.00, 0.00, -0.00, -1.00, 906.7, 398.0)">_</text><text xml:space="preserve" font-family="HelveticaNeue-Thin,Helvetica Neue" font-size="20.0" fill="#525252" transform="matrix(1.00, 0.00, -0.00, -1.00, 916.7, 398.0)">b</text><text xml:space="preserve" font-family="HelveticaNeue-Thin,Helvetica Neue" font-size="20.0" fill="#525252" transform="matrix(1.00, 0.00, -0.00, -1.00, 927.9, 398.0)">a</text><text xml:space="preserve" font-family="HelveticaNeue-Thin,Helvetica Neue" font-size="20.0" fill="#525252" transform="matrix(1.00, 0.00, -0.00, -1.00, 937.9, 398.0)">l</text><text xml:space="preserve" font-family="HelveticaNeue-Thin,Helvetica Neue" font-size="20.0" fill="#525252" transform="matrix(1.00, 0.00, -0.00, -1.00, 941.2, 398.0)">s</text><text xml:space="preserve" font-family="HelveticaNeue-Thin,Helvetica Neue" font-size="20.0" fill="#525252" transform="matrix(1.00, 0.00, -0.00, -1.00, 950.8, 398.0)">t</text><text xml:space="preserve" font-family="HelveticaNeue-Thin,Helvetica Neue" font-size="20.0" fill="#525252" transform="matrix(1.00, 0.00, -0.00, -1.00, 956.0, 398.0)">s</text><text xml:space="preserve" font-family="HelveticaNeue-Thin,Helvetica Neue" font-size="36.0" fill="#525252" transform="matrix(1.00, 0.00, -0.00, -1.00, 121.5, 66.1)">K</text><text xml:space="preserve" font-family="HelveticaNeue-Thin,Helvetica Neue" font-size="36.0" fill="#525252" transform="matrix(1.00, 0.00, -0.00, -1.00, 143.6, 66.1)">ā</text><text xml:space="preserve" font-family="HelveticaNeue-Thin,Helvetica Neue" font-size="36.0" fill="#525252" transform="matrix(1.00, 0.00, -0.00, -1.00, 161.6, 66.1)">r</text><text xml:space="preserve" font-family="HelveticaNeue-Thin,Helvetica Neue" font-size="36.0" fill="#525252" transform="matrix(1.00, 0.00, -0.00, -1.00, 171.6, 66.1)">l</text><text xml:space="preserve" font-family="HelveticaNeue-Thin,Helvetica Neue" font-size="36.0" fill="#525252" transform="matrix(1.00, 0.00, -0.00, -1.00, 177.7, 66.1)">i</text><text xml:space="preserve" font-family="HelveticaNeue-Thin,Helvetica Neue" font-size="36.0" fill="#525252" transform="matrix(1.00, 0.00, -0.00, -1.00, 183.7, 66.1)">s</text><text xml:space="preserve" font-family="HelveticaNeue-Thin,Helvetica Neue" font-size="20.0" fill="#525252" transform="matrix(1.00, 0.00, -0.00, -1.00, 95.3, 32.0)">#</text><text xml:space="preserve" font-family="HelveticaNeue-Thin,Helvetica Neue" font-size="20.0" fill="#525252" transform="matrix(1.00, 0.00, -0.00, -1.00, 106.4, 32.0)">j</text><text xml:space="preserve" font-family="HelveticaNeue-Thin,Helvetica Neue" font-size="20.0" fill="#525252" transform="matrix(1.00, 0.00, -0.00, -1.00, 109.8, 32.0)">a</text><text xml:space="preserve" font-family="HelveticaNeue-Thin,Helvetica Neue" font-size="20.0" fill="#525252" transform="matrix(1.00, 0.00, -0.00, -1.00, 119.8, 32.0)">u</text><text xml:space="preserve" font-family="HelveticaNeue-Thin,Helvetica Neue" font-size="20.0" fill="#525252" transform="matrix(1.00, 0.00, -0.00, -1.00, 130.2, 32.0)">n</text><text xml:space="preserve" font-family="HelveticaNeue-Thin,Helvetica Neue" font-size="20.0" fill="#525252" transform="matrix(1.00, 0.00, -0.00, -1.00, 140.6, 32.0)">a</text><text xml:space="preserve" font-family="HelveticaNeue-Thin,Helvetica Neue" font-size="20.0" fill="#525252" transform="matrix(1.00, 0.00, -0.00, -1.00, 150.6, 32.0)">i</text><text xml:space="preserve" font-family="HelveticaNeue-Thin,Helvetica Neue" font-size="20.0" fill="#525252" transform="matrix(1.00, 0.00, -0.00, -1.00, 153.9, 32.0)">s</text><text xml:space="preserve" font-family="HelveticaNeue-Thin,Helvetica Neue" font-size="20.0" fill="#525252" transform="matrix(1.00, 0.00, -0.00, -1.00, 163.5, 32.0)">_</text><text xml:space="preserve" font-family="HelveticaNeue-Thin,Helvetica Neue" font-size="20.0" fill="#525252" transform="matrix(1.00, 0.00, -0.00, -1.00, 173.5, 32.0)">t</text><text xml:space="preserve" font-family="HelveticaNeue-Thin,Helvetica Neue" font-size="20.0" fill="#525252" transform="matrix(1.00, 0.00, -0.00, -1.00, 178.7, 32.0)">a</text><text xml:space="preserve" font-family="HelveticaNeue-Thin,Helvetica Neue" font-size="20.0" fill="#525252" transform="matrix(1.00, 0.00, -0.00, -1.00, 188.7, 32.0)">l</text><text xml:space="preserve" font-family="HelveticaNeue-Thin,Helvetica Neue" font-size="20.0" fill="#525252" transform="matrix(1.00, 0.00, -0.00, -1.00, 192.1, 32.0)">a</text><text xml:space="preserve" font-family="HelveticaNeue-Thin,Helvetica Neue" font-size="20.0" fill="#525252" transform="matrix(1.00, 0.00, -0.00, -1.00, 202.1, 32.0)">n</text><text xml:space="preserve" font-family="HelveticaNeue-Thin,Helvetica Neue" font-size="20.0" fill="#525252" transform="matrix(1.00, 0.00, -0.00, -1.00, 212.5, 32.0)">t</text><text xml:space="preserve" font-family="HelveticaNeue-Thin,Helvetica Neue" font-size="20.0" fill="#525252" transform="matrix(1.00, 0.00, -0.00, -1.00, 217.6, 32.0)">s</text><text xml:space="preserve" font-family="HelveticaNeue-Thin,Helvetica Neue" font-size="36.0" fill="#525252" transform="matrix(1.00, 0.00, -0.00, -1.00, 463.2, 66.1)">V</text><text xml:space="preserve" font-family="HelveticaNeue-Thin,Helvetica Neue" font-size="36.0" fill="#525252" transform="matrix(1.00, 0.00, -0.00, -1.00, 482.6, 66.1)">i</text><text xml:space="preserve" font-family="HelveticaNeue-Thin,Helvetica Neue" font-size="36.0" fill="#525252" transform="matrix(1.00, 0.00, -0.00, -1.00, 488.6, 66.1)">k</text><text xml:space="preserve" font-family="HelveticaNeue-Thin,Helvetica Neue" font-size="36.0" fill="#525252" transform="matrix(1.00, 0.00, -0.00, -1.00, 505.3, 66.1)">t</text><text xml:space="preserve" font-family="HelveticaNeue-Thin,Helvetica Neue" font-size="36.0" fill="#525252" transform="matrix(1.00, 0.00, -0.00, -1.00, 514.1, 66.1)">o</text><text xml:space="preserve" font-family="HelveticaNeue-Thin,Helvetica Neue" font-size="36.0" fill="#525252" transform="matrix(1.00, 0.00, -0.00, -1.00, 533.5, 66.1)">r</text><text xml:space="preserve" font-family="HelveticaNeue-Thin,Helvetica Neue" font-size="36.0" fill="#525252" transform="matrix(1.00, 0.00, -0.00, -1.00, 543.5, 66.1)">s</text><text xml:space="preserve" font-family="HelveticaNeue-Thin,Helvetica Neue" font-size="36.0" fill="#525252" transform="matrix(1.00, 0.00, -0.00, -1.00, 814.5, 66.1)">K</text><text xml:space="preserve" font-family="HelveticaNeue-Thin,Helvetica Neue" font-size="36.0" fill="#525252" transform="matrix(1.00, 0.00, -0.00, -1.00, 836.5, 66.1)">ā</text><text xml:space="preserve" font-family="HelveticaNeue-Thin,Helvetica Neue" font-size="36.0" fill="#525252" transform="matrix(1.00, 0.00, -0.00, -1.00, 854.5, 66.1)">r</text><text xml:space="preserve" font-family="HelveticaNeue-Thin,Helvetica Neue" font-size="36.0" fill="#525252" transform="matrix(1.00, 0.00, -0.00, -1.00, 864.6, 66.1)">l</text><text xml:space="preserve" font-family="HelveticaNeue-Thin,Helvetica Neue" font-size="36.0" fill="#525252" transform="matrix(1.00, 0.00, -0.00, -1.00, 870.6, 66.1)">i</text><text xml:space="preserve" font-family="HelveticaNeue-Thin,Helvetica Neue" font-size="36.0" fill="#525252" transform="matrix(1.00, 0.00, -0.00, -1.00, 876.7, 66.1)">s</text><text xml:space="preserve" font-family="HelveticaNeue-Thin,Helvetica Neue" font-size="20.0" fill="#525252" transform="matrix(1.00, 0.00, -0.00, -1.00, 446.0, 31.1)">#</text><text xml:space="preserve" font-family="HelveticaNeue-Thin,Helvetica Neue" font-size="20.0" fill="#525252" transform="matrix(1.00, 0.00, -0.00, -1.00, 457.2, 31.1)">j</text><text xml:space="preserve" font-family="HelveticaNeue-Thin,Helvetica Neue" font-size="20.0" fill="#525252" transform="matrix(1.00, 0.00, -0.00, -1.00, 460.5, 31.1)">a</text><text xml:space="preserve" font-family="HelveticaNeue-Thin,Helvetica Neue" font-size="20.0" fill="#525252" transform="matrix(1.00, 0.00, -0.00, -1.00, 470.5, 31.1)">u</text><text xml:space="preserve" font-family="HelveticaNeue-Thin,Helvetica Neue" font-size="20.0" fill="#525252" transform="matrix(1.00, 0.00, -0.00, -1.00, 480.9, 31.1)">n</text><text xml:space="preserve" font-family="HelveticaNeue-Thin,Helvetica Neue" font-size="20.0" fill="#525252" transform="matrix(1.00, 0.00, -0.00, -1.00, 491.3, 31.1)">a</text><text xml:space="preserve" font-family="HelveticaNeue-Thin,Helvetica Neue" font-size="20.0" fill="#525252" transform="matrix(1.00, 0.00, -0.00, -1.00, 501.3, 31.1)">i</text><text xml:space="preserve" font-family="HelveticaNeue-Thin,Helvetica Neue" font-size="20.0" fill="#525252" transform="matrix(1.00, 0.00, -0.00, -1.00, 504.6, 31.1)">s</text><text xml:space="preserve" font-family="HelveticaNeue-Thin,Helvetica Neue" font-size="20.0" fill="#525252" transform="matrix(1.00, 0.00, -0.00, -1.00, 514.2, 31.1)">_</text><text xml:space="preserve" font-family="HelveticaNeue-Thin,Helvetica Neue" font-size="20.0" fill="#525252" transform="matrix(1.00, 0.00, -0.00, -1.00, 524.2, 31.1)">t</text><text xml:space="preserve" font-family="HelveticaNeue-Thin,Helvetica Neue" font-size="20.0" fill="#525252" transform="matrix(1.00, 0.00, -0.00, -1.00, 529.4, 31.1)">a</text><text xml:space="preserve" font-family="HelveticaNeue-Thin,Helvetica Neue" font-size="20.0" fill="#525252" transform="matrix(1.00, 0.00, -0.00, -1.00, 539.4, 31.1)">l</text><text xml:space="preserve" font-family="HelveticaNeue-Thin,Helvetica Neue" font-size="20.0" fill="#525252" transform="matrix(1.00, 0.00, -0.00, -1.00, 542.8, 31.1)">a</text><text xml:space="preserve" font-family="HelveticaNeue-Thin,Helvetica Neue" font-size="20.0" fill="#525252" transform="matrix(1.00, 0.00, -0.00, -1.00, 552.8, 31.1)">n</text><text xml:space="preserve" font-family="HelveticaNeue-Thin,Helvetica Neue" font-size="20.0" fill="#525252" transform="matrix(1.00, 0.00, -0.00, -1.00, 563.2, 31.1)">t</text><text xml:space="preserve" font-family="HelveticaNeue-Thin,Helvetica Neue" font-size="20.0" fill="#525252" transform="matrix(1.00, 0.00, -0.00, -1.00, 568.4, 31.1)">s</text><text xml:space="preserve" font-family="HelveticaNeue-Thin,Helvetica Neue" font-size="20.0" fill="#525252" transform="matrix(1.00, 0.00, -0.00, -1.00, 788.3, 31.1)">#</text><text xml:space="preserve" font-family="HelveticaNeue-Thin,Helvetica Neue" font-size="20.0" fill="#525252" transform="matrix(1.00, 0.00, -0.00, -1.00, 799.4, 31.1)">j</text><text xml:space="preserve" font-family="HelveticaNeue-Thin,Helvetica Neue" font-size="20.0" fill="#525252" transform="matrix(1.00, 0.00, -0.00, -1.00, 802.7, 31.1)">a</text><text xml:space="preserve" font-family="HelveticaNeue-Thin,Helvetica Neue" font-size="20.0" fill="#525252" transform="matrix(1.00, 0.00, -0.00, -1.00, 812.7, 31.1)">u</text><text xml:space="preserve" font-family="HelveticaNeue-Thin,Helvetica Neue" font-size="20.0" fill="#525252" transform="matrix(1.00, 0.00, -0.00, -1.00, 823.1, 31.1)">n</text><text xml:space="preserve" font-family="HelveticaNeue-Thin,Helvetica Neue" font-size="20.0" fill="#525252" transform="matrix(1.00, 0.00, -0.00, -1.00, 833.5, 31.1)">a</text><text xml:space="preserve" font-family="HelveticaNeue-Thin,Helvetica Neue" font-size="20.0" fill="#525252" transform="matrix(1.00, 0.00, -0.00, -1.00, 843.5, 31.1)">i</text><text xml:space="preserve" font-family="HelveticaNeue-Thin,Helvetica Neue" font-size="20.0" fill="#525252" transform="matrix(1.00, 0.00, -0.00, -1.00, 846.9, 31.1)">s</text><text xml:space="preserve" font-family="HelveticaNeue-Thin,Helvetica Neue" font-size="20.0" fill="#525252" transform="matrix(1.00, 0.00, -0.00, -1.00, 856.5, 31.1)">_</text><text xml:space="preserve" font-family="HelveticaNeue-Thin,Helvetica Neue" font-size="20.0" fill="#525252" transform="matrix(1.00, 0.00, -0.00, -1.00, 866.5, 31.1)">t</text><text xml:space="preserve" font-family="HelveticaNeue-Thin,Helvetica Neue" font-size="20.0" fill="#525252" transform="matrix(1.00, 0.00, -0.00, -1.00, 871.7, 31.1)">a</text><text xml:space="preserve" font-family="HelveticaNeue-Thin,Helvetica Neue" font-size="20.0" fill="#525252" transform="matrix(1.00, 0.00, -0.00, -1.00, 881.7, 31.1)">l</text><text xml:space="preserve" font-family="HelveticaNeue-Thin,Helvetica Neue" font-size="20.0" fill="#525252" transform="matrix(1.00, 0.00, -0.00, -1.00, 885.0, 31.1)">a</text><text xml:space="preserve" font-family="HelveticaNeue-Thin,Helvetica Neue" font-size="20.0" fill="#525252" transform="matrix(1.00, 0.00, -0.00, -1.00, 895.0, 31.1)">n</text><text xml:space="preserve" font-family="HelveticaNeue-Thin,Helvetica Neue" font-size="20.0" fill="#525252" transform="matrix(1.00, 0.00, -0.00, -1.00, 905.4, 31.1)">t</text><text xml:space="preserve" font-family="HelveticaNeue-Thin,Helvetica Neue" font-size="20.0" fill="#525252" transform="matrix(1.00, 0.00, -0.00, -1.00, 910.6, 31.1)">s</text></g></svg>