<?xml version="1.0" encoding="UTF-8" standalone="no"?><svg xmlns="http://www.w3.org/2000/svg" xmlns:xlink="http://www.w3.org/1999/xlink" clip-rule="evenodd" stroke-miterlimit="10" viewBox="0 0 1024 768"><desc>SVG generated by Keynote</desc><defs></defs><g transform="matrix(1.00, 0.00, -0.00, -1.00, 0.0, 768.0)"><g><clipPath id="clip0x7fe3834ec040"><path d="M 0.0 768.0 L 1024.0 768.0 L 1024.0 0.0 L 0.0 0.0 Z M 0.0 768.0 "></path></clipPath><g clip-path="url(#clip0x7fe3834ec040)"><image xlink:href="../../BE03AB4A-F5E0-4685-80C7-20DCBC62631F/assets/574DCE55A4CF432400CBDDDE1DFDFC9B.jpeg" width="2048.00" height="1536.00" transform="matrix(0.50, 0.00, -0.00, -0.50, 0.0, 768.0)"></image></g></g><text xml:space="preserve" font-family="HelveticaNeue-Thin,Helvetica Neue" font-size="72.0" fill="#525252" transform="matrix(1.00, 0.00, -0.00, -1.00, 345.2, 572.8)">V</text><text xml:space="preserve" font-family="HelveticaNeue-Thin,Helvetica Neue" font-size="72.0" fill="#525252" transform="matrix(1.00, 0.00, -0.00, -1.00, 385.2, 572.8)">I</text><text xml:space="preserve" font-family="HelveticaNeue-Thin,Helvetica Neue" font-size="72.0" fill="#525252" transform="matrix(1.00, 0.00, -0.00, -1.00, 397.4, 572.8)">K</text><text xml:space="preserve" font-family="HelveticaNeue-Thin,Helvetica Neue" font-size="72.0" fill="#525252" transform="matrix(1.00, 0.00, -0.00, -1.00, 442.0, 572.8)">T</text><text xml:space="preserve" font-family="HelveticaNeue-Thin,Helvetica Neue" font-size="72.0" fill="#525252" transform="matrix(1.00, 0.00, -0.00, -1.00, 476.4, 572.8)">O</text><text xml:space="preserve" font-family="HelveticaNeue-Thin,Helvetica Neue" font-size="72.0" fill="#525252" transform="matrix(1.00, 0.00, -0.00, -1.00, 529.7, 572.8)">R</text><text xml:space="preserve" font-family="HelveticaNeue-Thin,Helvetica Neue" font-size="72.0" fill="#525252" transform="matrix(1.00, 0.00, -0.00, -1.00, 575.1, 572.8)">Ī</text><text xml:space="preserve" font-family="HelveticaNeue-Thin,Helvetica Neue" font-size="72.0" fill="#525252" transform="matrix(1.00, 0.00, -0.00, -1.00, 587.3, 572.8)">N</text><text xml:space="preserve" font-family="HelveticaNeue-Thin,Helvetica Neue" font-size="72.0" fill="#525252" transform="matrix(1.00, 0.00, -0.00, -1.00, 636.1, 572.8)">A</text><text xml:space="preserve" font-family="HelveticaNeue-UltraLight,Helvetica Neue" font-size="450.0" fill="#525252" transform="matrix(1.00, 0.00, -0.00, -1.00, 399.5, 155.9)">?</text></g></svg>