<?xml version="1.0" encoding="UTF-8" standalone="no"?><svg xmlns="http://www.w3.org/2000/svg" xmlns:xlink="http://www.w3.org/1999/xlink" clip-rule="evenodd" stroke-miterlimit="10" viewBox="0 0 1024 768"><desc>SVG generated by Keynote</desc><defs></defs><g transform="matrix(1.00, 0.00, -0.00, -1.00, 0.0, 768.0)"><g><clipPath id="clip0x7fe382469070"><path d="M 0.0 768.0 L 1024.0 768.0 L 1024.0 0.0 L 0.0 0.0 Z M 0.0 768.0 "></path></clipPath><g clip-path="url(#clip0x7fe382469070)"><image xlink:href="../../BE03AB4A-F5E0-4685-80C7-20DCBC62631F/assets/574DCE55A4CF432400CBDDDE1DFDFC9B.jpeg" width="2048.00" height="1536.00" transform="matrix(0.50, 0.00, -0.00, -0.50, 0.0, 768.0)"></image></g></g><text xml:space="preserve" font-family="GillSans-Light,Gill Sans" font-size="72.0" fill="#525252" transform="matrix(1.00, 0.00, -0.00, -1.00, 191.3, 575.6)">N</text><text xml:space="preserve" font-family="GillSans-Light,Gill Sans" font-size="72.0" fill="#525252" transform="matrix(1.00, 0.00, -0.00, -1.00, 246.8, 575.6)">O</text><text xml:space="preserve" font-family="GillSans-Light,Gill Sans" font-size="72.0" fill="#525252" transform="matrix(1.00, 0.00, -0.00, -1.00, 306.1, 575.6)">P</text><text xml:space="preserve" font-family="GillSans-Light,Gill Sans" font-size="72.0" fill="#525252" transform="matrix(1.00, 0.00, -0.00, -1.00, 342.8, 575.6)">I</text><text xml:space="preserve" font-family="GillSans-Light,Gill Sans" font-size="72.0" fill="#525252" transform="matrix(1.00, 0.00, -0.00, -1.00, 357.8, 575.6)">E</text><text xml:space="preserve" font-family="GillSans-Light,Gill Sans" font-size="72.0" fill="#525252" transform="matrix(1.00, 0.00, -0.00, -1.00, 393.1, 575.6)">T</text><text xml:space="preserve" font-family="GillSans-Light,Gill Sans" font-size="72.0" fill="#525252" transform="matrix(1.00, 0.00, -0.00, -1.00, 434.4, 575.6)">N</text><text xml:space="preserve" font-family="GillSans-Light,Gill Sans" font-size="72.0" fill="#525252" transform="matrix(1.00, 0.00, -0.00, -1.00, 489.9, 575.6)">Ā</text><text xml:space="preserve" font-family="GillSans-Light,Gill Sans" font-size="72.0" fill="#525252" transform="matrix(1.00, 0.00, -0.00, -1.00, 537.9, 575.6)"> </text><text xml:space="preserve" font-family="GillSans-Light,Gill Sans" font-size="72.0" fill="#525252" transform="matrix(1.00, 0.00, -0.00, -1.00, 557.9, 575.6)">S</text><text xml:space="preserve" font-family="GillSans-Light,Gill Sans" font-size="72.0" fill="#525252" transform="matrix(1.00, 0.00, -0.00, -1.00, 591.7, 575.6)">A</text><text xml:space="preserve" font-family="GillSans-Light,Gill Sans" font-size="72.0" fill="#525252" transform="matrix(1.00, 0.00, -0.00, -1.00, 639.7, 575.6)">D</text><text xml:space="preserve" font-family="GillSans-Light,Gill Sans" font-size="72.0" fill="#525252" transform="matrix(1.00, 0.00, -0.00, -1.00, 690.2, 575.6)">A</text><text xml:space="preserve" font-family="GillSans-Light,Gill Sans" font-size="72.0" fill="#525252" transform="matrix(1.00, 0.00, -0.00, -1.00, 738.2, 575.6)">Ļ</text><text xml:space="preserve" font-family="GillSans-Light,Gill Sans" font-size="72.0" fill="#525252" transform="matrix(1.00, 0.00, -0.00, -1.00, 772.0, 575.6)">A</text><text xml:space="preserve" font-family="GillSans-Light,Gill Sans" font-size="72.0" fill="#525252" transform="matrix(1.00, 0.00, -0.00, -1.00, 820.0, 575.6)">!</text><path d="M 55.2 259.8 L 561.2 259.8 " fill="none" stroke="#898A89" stroke-width="1.00" transform="matrix(1.00, 0.00, 0.00, -1.00, 203.8, 466.3)"></path><path d="M 55.2 182.8 L 561.2 182.8 " fill="none" stroke="#898A89" stroke-width="1.00" transform="matrix(1.00, 0.00, 0.00, -1.00, 203.8, 466.3)"></path><path d="M 55.2 104.8 L 561.2 104.8 " fill="none" stroke="#898A89" stroke-width="1.00" transform="matrix(1.00, 0.00, 0.00, -1.00, 203.8, 466.3)"></path><path d="M 55.2 27.8 L 561.2 27.8 " fill="none" stroke="#898A89" stroke-width="1.00" transform="matrix(1.00, 0.00, 0.00, -1.00, 203.8, 466.3)"></path><g><clipPath id="clip0x7fe382471f10"><path d="M 226.8 114.1 L 241.8 114.1 L 241.8 144.1 L 226.8 144.1 Z M 226.8 114.1 "></path></clipPath><g clip-path="url(#clip0x7fe382471f10)"><text xml:space="preserve" font-family="GillSans-Light,Gill Sans" font-size="24.0" fill="#525252" transform="matrix(1.00, 0.00, -0.00, -1.00, 228.3, 120.8)">0</text></g></g><g><clipPath id="clip0x7fe382473520"><path d="M 214.8 191.4 L 241.8 191.4 L 241.8 221.4 L 214.8 221.4 Z M 214.8 191.4 "></path></clipPath><g clip-path="url(#clip0x7fe382473520)"><text xml:space="preserve" font-family="GillSans-Light,Gill Sans" font-size="24.0" fill="#525252" transform="matrix(1.00, 0.00, -0.00, -1.00, 216.3, 198.1)">2</text><text xml:space="preserve" font-family="GillSans-Light,Gill Sans" font-size="24.0" fill="#525252" transform="matrix(1.00, 0.00, -0.00, -1.00, 228.3, 198.1)">5</text></g></g><g><clipPath id="clip0x7fe382474e50"><path d="M 214.8 268.7 L 241.8 268.7 L 241.8 298.7 L 214.8 298.7 Z M 214.8 268.7 "></path></clipPath><g clip-path="url(#clip0x7fe382474e50)"><text xml:space="preserve" font-family="GillSans-Light,Gill Sans" font-size="24.0" fill="#525252" transform="matrix(1.00, 0.00, -0.00, -1.00, 216.3, 275.4)">5</text><text xml:space="preserve" font-family="GillSans-Light,Gill Sans" font-size="24.0" fill="#525252" transform="matrix(1.00, 0.00, -0.00, -1.00, 228.3, 275.4)">0</text></g></g><g><clipPath id="clip0x7fe382476730"><path d="M 214.8 346.0 L 241.8 346.0 L 241.8 376.0 L 214.8 376.0 Z M 214.8 346.0 "></path></clipPath><g clip-path="url(#clip0x7fe382476730)"><text xml:space="preserve" font-family="GillSans-Light,Gill Sans" font-size="24.0" fill="#525252" transform="matrix(1.00, 0.00, -0.00, -1.00, 216.3, 352.7)">7</text><text xml:space="preserve" font-family="GillSans-Light,Gill Sans" font-size="24.0" fill="#525252" transform="matrix(1.00, 0.00, -0.00, -1.00, 228.3, 352.7)">5</text></g></g><g><clipPath id="clip0x7fe382478010"><path d="M 202.8 423.3 L 241.8 423.3 L 241.8 453.3 L 202.8 453.3 Z M 202.8 423.3 "></path></clipPath><g clip-path="url(#clip0x7fe382478010)"><text xml:space="preserve" font-family="GillSans-Light,Gill Sans" font-size="24.0" fill="#525252" transform="matrix(1.00, 0.00, -0.00, -1.00, 204.3, 430.0)">1</text><text xml:space="preserve" font-family="GillSans-Light,Gill Sans" font-size="24.0" fill="#525252" transform="matrix(1.00, 0.00, -0.00, -1.00, 216.3, 430.0)">0</text><text xml:space="preserve" font-family="GillSans-Light,Gill Sans" font-size="24.0" fill="#525252" transform="matrix(1.00, 0.00, -0.00, -1.00, 228.3, 430.0)">0</text></g></g><path d="M 55.7 336.8 L 560.7 336.8 " fill="none" stroke="#898A89" stroke-width="1.00" stroke-linecap="square" transform="matrix(1.00, 0.00, 0.00, -1.00, 203.8, 466.3)"></path><g><clipPath id="clip0x7fe38247a880"><path d="M 233.9 88.0 L 284.9 88.0 L 284.9 118.0 L 233.9 118.0 Z M 233.9 88.0 "></path></clipPath><g clip-path="url(#clip0x7fe38247a880)"><text xml:space="preserve" font-family="GillSans-Light,Gill Sans" font-size="24.0" fill="#525252" transform="matrix(1.00, 0.00, -0.00, -1.00, 235.4, 94.7)">2</text><text xml:space="preserve" font-family="GillSans-Light,Gill Sans" font-size="24.0" fill="#525252" transform="matrix(1.00, 0.00, -0.00, -1.00, 247.4, 94.7)">0</text><text xml:space="preserve" font-family="GillSans-Light,Gill Sans" font-size="24.0" fill="#525252" transform="matrix(1.00, 0.00, -0.00, -1.00, 259.4, 94.7)">1</text><text xml:space="preserve" font-family="GillSans-Light,Gill Sans" font-size="24.0" fill="#525252" transform="matrix(1.00, 0.00, -0.00, -1.00, 271.4, 94.7)">1</text></g></g><g><clipPath id="clip0x7fe38247cd30"><path d="M 402.3 88.0 L 453.3 88.0 L 453.3 118.0 L 402.3 118.0 Z M 402.3 88.0 "></path></clipPath><g clip-path="url(#clip0x7fe38247cd30)"><text xml:space="preserve" font-family="GillSans-Light,Gill Sans" font-size="24.0" fill="#525252" transform="matrix(1.00, 0.00, -0.00, -1.00, 403.8, 94.7)">2</text><text xml:space="preserve" font-family="GillSans-Light,Gill Sans" font-size="24.0" fill="#525252" transform="matrix(1.00, 0.00, -0.00, -1.00, 415.8, 94.7)">0</text><text xml:space="preserve" font-family="GillSans-Light,Gill Sans" font-size="24.0" fill="#525252" transform="matrix(1.00, 0.00, -0.00, -1.00, 427.8, 94.7)">1</text><text xml:space="preserve" font-family="GillSans-Light,Gill Sans" font-size="24.0" fill="#525252" transform="matrix(1.00, 0.00, -0.00, -1.00, 439.8, 94.7)">2</text></g></g><g><clipPath id="clip0x7fe38247f1d0"><path d="M 570.7 88.0 L 621.7 88.0 L 621.7 118.0 L 570.7 118.0 Z M 570.7 88.0 "></path></clipPath><g clip-path="url(#clip0x7fe38247f1d0)"><text xml:space="preserve" font-family="GillSans-Light,Gill Sans" font-size="24.0" fill="#525252" transform="matrix(1.00, 0.00, -0.00, -1.00, 572.2, 94.7)">2</text><text xml:space="preserve" font-family="GillSans-Light,Gill Sans" font-size="24.0" fill="#525252" transform="matrix(1.00, 0.00, -0.00, -1.00, 584.2, 94.7)">0</text><text xml:space="preserve" font-family="GillSans-Light,Gill Sans" font-size="24.0" fill="#525252" transform="matrix(1.00, 0.00, -0.00, -1.00, 596.2, 94.7)">1</text><text xml:space="preserve" font-family="GillSans-Light,Gill Sans" font-size="24.0" fill="#525252" transform="matrix(1.00, 0.00, -0.00, -1.00, 608.2, 94.7)">3</text></g></g><g><clipPath id="clip0x7fe382481670"><path d="M 739.1 88.0 L 790.1 88.0 L 790.1 118.0 L 739.1 118.0 Z M 739.1 88.0 "></path></clipPath><g clip-path="url(#clip0x7fe382481670)"><text xml:space="preserve" font-family="GillSans-Light,Gill Sans" font-size="24.0" fill="#525252" transform="matrix(1.00, 0.00, -0.00, -1.00, 740.6, 94.7)">2</text><text xml:space="preserve" font-family="GillSans-Light,Gill Sans" font-size="24.0" fill="#525252" transform="matrix(1.00, 0.00, -0.00, -1.00, 752.6, 94.7)">0</text><text xml:space="preserve" font-family="GillSans-Light,Gill Sans" font-size="24.0" fill="#525252" transform="matrix(1.00, 0.00, -0.00, -1.00, 764.6, 94.7)">1</text><text xml:space="preserve" font-family="GillSans-Light,Gill Sans" font-size="24.0" fill="#525252" transform="matrix(1.00, 0.00, -0.00, -1.00, 776.6, 94.7)">4</text></g></g><g><g><clipPath id="clip0x7fe3824850b0"><path d="M 255.8 125.5 L 768.2 125.5 L 768.2 441.9 L 255.8 441.9 Z M 255.8 125.5 "></path></clipPath><g clip-path="url(#clip0x7fe3824850b0)"><path d="M 0.0 46.4 L 168.4 83.5 L 336.8 0.0 L 505.1 37.1 " fill="none" stroke="#AA1802" stroke-width="6.00" transform="matrix(1.00, 0.00, 0.00, -1.00, 259.4, 345.6)"></path></g></g><g><clipPath id="clip0x7fe38247a1b0"><path d="M 266.4 299.2 C 266.4 295.3 263.3 292.2 259.4 292.2 C 255.6 292.2 252.4 295.3 252.4 299.2 C 252.4 303.0 255.6 306.2 259.4 306.2 C 263.3 306.2 266.4 303.0 266.4 299.2 Z M 266.4 299.2 "></path></clipPath><g clip-path="url(#clip0x7fe38247a1b0)"><g><clipPath id="clip0x7fe382486bd0"><path d="M 203.0 88.0 L 790.0 88.0 L 790.0 467.0 L 203.0 467.0 Z M 203.0 88.0 "></path></clipPath><g clip-path="url(#clip0x7fe382486bd0)"><path d="M 250.0 309.0 L 269.0 309.0 L 269.0 290.0 L 250.0 290.0 Z M 250.0 309.0 " fill="#AA1802"></path></g></g></g></g><g><clipPath id="clip0x7fe382487950"><path d="M 203.0 88.0 L 790.0 88.0 L 790.0 467.0 L 203.0 467.0 Z M 203.0 88.0 "></path></clipPath><g clip-path="url(#clip0x7fe382487950)"><path d="M 62.6 167.1 C 62.6 171.0 59.5 174.1 55.6 174.1 C 51.8 174.1 48.6 171.0 48.6 167.1 C 48.6 163.3 51.8 160.1 55.6 160.1 C 59.5 160.1 62.6 163.3 62.6 167.1 Z M 62.6 167.1 " fill="none" stroke="#AA1802" stroke-width="6.00" transform="matrix(1.00, 0.00, 0.00, -1.00, 203.8, 466.3)"></path></g></g><g><clipPath id="clip0x7fe382488d20"><path d="M 434.8 262.1 C 434.8 258.2 431.7 255.1 427.8 255.1 C 423.9 255.1 420.8 258.2 420.8 262.1 C 420.8 265.9 423.9 269.1 427.8 269.1 C 431.7 269.1 434.8 265.9 434.8 262.1 Z M 434.8 262.1 "></path></clipPath><g clip-path="url(#clip0x7fe382488d20)"><g><clipPath id="clip0x7fe382489470"><path d="M 203.0 88.0 L 790.0 88.0 L 790.0 467.0 L 203.0 467.0 Z M 203.0 88.0 "></path></clipPath><g clip-path="url(#clip0x7fe382489470)"><path d="M 418.0 272.0 L 437.0 272.0 L 437.0 253.0 L 418.0 253.0 Z M 418.0 272.0 " fill="#AA1802"></path></g></g></g></g><g><clipPath id="clip0x7fe38248a1f0"><path d="M 203.0 88.0 L 790.0 88.0 L 790.0 467.0 L 203.0 467.0 Z M 203.0 88.0 "></path></clipPath><g clip-path="url(#clip0x7fe38248a1f0)"><path d="M 231.0 204.2 C 231.0 208.1 227.9 211.2 224.0 211.2 C 220.1 211.2 217.0 208.1 217.0 204.2 C 217.0 200.4 220.1 197.2 224.0 197.2 C 227.9 197.2 231.0 200.4 231.0 204.2 Z M 231.0 204.2 " fill="none" stroke="#AA1802" stroke-width="6.00" transform="matrix(1.00, 0.00, 0.00, -1.00, 203.8, 466.3)"></path></g></g><g><clipPath id="clip0x7fe38248b690"><path d="M 603.2 345.6 C 603.2 341.7 600.1 338.6 596.2 338.6 C 592.3 338.6 589.2 341.7 589.2 345.6 C 589.2 349.4 592.3 352.6 596.2 352.6 C 600.1 352.6 603.2 349.4 603.2 345.6 Z M 603.2 345.6 "></path></clipPath><g clip-path="url(#clip0x7fe38248b690)"><g><clipPath id="clip0x7fe38248bdd0"><path d="M 203.0 88.0 L 790.0 88.0 L 790.0 467.0 L 203.0 467.0 Z M 203.0 88.0 "></path></clipPath><g clip-path="url(#clip0x7fe38248bdd0)"><path d="M 587.0 355.0 L 606.0 355.0 L 606.0 336.0 L 587.0 336.0 Z M 587.0 355.0 " fill="#AA1802"></path></g></g></g></g><g><clipPath id="clip0x7fe38248cb50"><path d="M 203.0 88.0 L 790.0 88.0 L 790.0 467.0 L 203.0 467.0 Z M 203.0 88.0 "></path></clipPath><g clip-path="url(#clip0x7fe38248cb50)"><path d="M 399.4 120.8 C 399.4 124.6 396.3 127.8 392.4 127.8 C 388.5 127.8 385.4 124.6 385.4 120.8 C 385.4 116.9 388.5 113.8 392.4 113.8 C 396.3 113.8 399.4 116.9 399.4 120.8 Z M 399.4 120.8 " fill="none" stroke="#AA1802" stroke-width="6.00" transform="matrix(1.00, 0.00, 0.00, -1.00, 203.8, 466.3)"></path></g></g><g><clipPath id="clip0x7fe38248df90"><path d="M 771.6 308.5 C 771.6 304.6 768.4 301.5 764.6 301.5 C 760.7 301.5 757.6 304.6 757.6 308.5 C 757.6 312.3 760.7 315.5 764.6 315.5 C 768.4 315.5 771.6 312.3 771.6 308.5 Z M 771.6 308.5 "></path></clipPath><g clip-path="url(#clip0x7fe38248df90)"><g><clipPath id="clip0x7fe38248e6e0"><path d="M 203.0 88.0 L 790.0 88.0 L 790.0 467.0 L 203.0 467.0 Z M 203.0 88.0 "></path></clipPath><g clip-path="url(#clip0x7fe38248e6e0)"><path d="M 755.0 318.0 L 774.0 318.0 L 774.0 299.0 L 755.0 299.0 Z M 755.0 318.0 " fill="#AA1802"></path></g></g></g></g><g><clipPath id="clip0x7fe3a23bf210"><path d="M 203.0 88.0 L 790.0 88.0 L 790.0 467.0 L 203.0 467.0 Z M 203.0 88.0 "></path></clipPath><g clip-path="url(#clip0x7fe3a23bf210)"><path d="M 567.8 157.9 C 567.8 161.7 564.6 164.9 560.8 164.9 C 556.9 164.9 553.8 161.7 553.8 157.9 C 553.8 154.0 556.9 150.9 560.8 150.9 C 564.6 150.9 567.8 154.0 567.8 157.9 Z M 567.8 157.9 " fill="none" stroke="#AA1802" stroke-width="6.00" transform="matrix(1.00, 0.00, 0.00, -1.00, 203.8, 466.3)"></path></g></g></g><g><g><clipPath id="clip0x7fe3a23d1f10"><path d="M 255.8 125.5 L 768.2 125.5 L 768.2 441.9 L 255.8 441.9 Z M 255.8 125.5 "></path></clipPath><g clip-path="url(#clip0x7fe3a23d1f10)"><path d="M 0.0 244.3 L 168.4 216.4 L 336.8 133.0 L 505.1 0.0 " fill="none" stroke="#7F8685" stroke-width="6.00" transform="matrix(1.00, 0.00, 0.00, -1.00, 259.4, 425.9)"></path></g></g><g><clipPath id="clip0x7fe3a23eab70"><path d="M 266.4 181.7 C 266.4 177.8 263.3 174.7 259.4 174.7 C 255.6 174.7 252.4 177.8 252.4 181.7 C 252.4 185.6 255.6 188.7 259.4 188.7 C 263.3 188.7 266.4 185.6 266.4 181.7 Z M 266.4 181.7 "></path></clipPath><g clip-path="url(#clip0x7fe3a23eab70)"><g><clipPath id="clip0x7fe3a23eb330"><path d="M 203.0 88.0 L 790.0 88.0 L 790.0 467.0 L 203.0 467.0 Z M 203.0 88.0 "></path></clipPath><g clip-path="url(#clip0x7fe3a23eb330)"><path d="M 250.0 191.0 L 269.0 191.0 L 269.0 172.0 L 250.0 172.0 Z M 250.0 191.0 " fill="#7F8685"></path></g></g></g></g><g><clipPath id="clip0x7fe3a23ec0d0"><path d="M 203.0 88.0 L 790.0 88.0 L 790.0 467.0 L 203.0 467.0 Z M 203.0 88.0 "></path></clipPath><g clip-path="url(#clip0x7fe3a23ec0d0)"><path d="M 62.6 284.6 C 62.6 288.5 59.5 291.6 55.6 291.6 C 51.8 291.6 48.6 288.5 48.6 284.6 C 48.6 280.8 51.8 277.6 55.6 277.6 C 59.5 277.6 62.6 280.8 62.6 284.6 Z M 62.6 284.6 " fill="none" stroke="#7F8685" stroke-width="6.00" transform="matrix(1.00, 0.00, 0.00, -1.00, 203.8, 466.3)"></path></g></g><g><clipPath id="clip0x7fe3a23ed6c0"><path d="M 434.8 209.5 C 434.8 205.6 431.7 202.5 427.8 202.5 C 423.9 202.5 420.8 205.6 420.8 209.5 C 420.8 213.4 423.9 216.5 427.8 216.5 C 431.7 216.5 434.8 213.4 434.8 209.5 Z M 434.8 209.5 "></path></clipPath><g clip-path="url(#clip0x7fe3a23ed6c0)"><g><clipPath id="clip0x7fe3a23ede10"><path d="M 203.0 88.0 L 790.0 88.0 L 790.0 467.0 L 203.0 467.0 Z M 203.0 88.0 "></path></clipPath><g clip-path="url(#clip0x7fe3a23ede10)"><path d="M 418.0 219.0 L 437.0 219.0 L 437.0 200.0 L 418.0 200.0 Z M 418.0 219.0 " fill="#7F8685"></path></g></g></g></g><g><clipPath id="clip0x7fe3a23eeb90"><path d="M 203.0 88.0 L 790.0 88.0 L 790.0 467.0 L 203.0 467.0 Z M 203.0 88.0 "></path></clipPath><g clip-path="url(#clip0x7fe3a23eeb90)"><path d="M 231.0 256.8 C 231.0 260.7 227.9 263.8 224.0 263.8 C 220.1 263.8 217.0 260.7 217.0 256.8 C 217.0 252.9 220.1 249.8 224.0 249.8 C 227.9 249.8 231.0 252.9 231.0 256.8 Z M 231.0 256.8 " fill="none" stroke="#7F8685" stroke-width="6.00" transform="matrix(1.00, 0.00, 0.00, -1.00, 203.8, 466.3)"></path></g></g><g><clipPath id="clip0x7fe3a23effc0"><path d="M 603.2 293.0 C 603.2 289.1 600.1 286.0 596.2 286.0 C 592.3 286.0 589.2 289.1 589.2 293.0 C 589.2 296.9 592.3 300.0 596.2 300.0 C 600.1 300.0 603.2 296.9 603.2 293.0 Z M 603.2 293.0 "></path></clipPath><g clip-path="url(#clip0x7fe3a23effc0)"><g><clipPath id="clip0x7fe3a23f0710"><path d="M 203.0 88.0 L 790.0 88.0 L 790.0 467.0 L 203.0 467.0 Z M 203.0 88.0 "></path></clipPath><g clip-path="url(#clip0x7fe3a23f0710)"><path d="M 587.0 302.0 L 606.0 302.0 L 606.0 283.0 L 587.0 283.0 Z M 587.0 302.0 " fill="#7F8685"></path></g></g></g></g><g><clipPath id="clip0x7fe3a23f1490"><path d="M 203.0 88.0 L 790.0 88.0 L 790.0 467.0 L 203.0 467.0 Z M 203.0 88.0 "></path></clipPath><g clip-path="url(#clip0x7fe3a23f1490)"><path d="M 399.4 173.3 C 399.4 177.2 396.3 180.3 392.4 180.3 C 388.5 180.3 385.4 177.2 385.4 173.3 C 385.4 169.5 388.5 166.3 392.4 166.3 C 396.3 166.3 399.4 169.5 399.4 173.3 Z M 399.4 173.3 " fill="none" stroke="#7F8685" stroke-width="6.00" transform="matrix(1.00, 0.00, 0.00, -1.00, 203.8, 466.3)"></path></g></g><g><clipPath id="clip0x7fe3a23f2910"><path d="M 771.6 425.9 C 771.6 422.1 768.4 418.9 764.6 418.9 C 760.7 418.9 757.6 422.1 757.6 425.9 C 757.6 429.8 760.7 432.9 764.6 432.9 C 768.4 432.9 771.6 429.8 771.6 425.9 Z M 771.6 425.9 "></path></clipPath><g clip-path="url(#clip0x7fe3a23f2910)"><g><clipPath id="clip0x7fe3a23f3060"><path d="M 203.0 88.0 L 790.0 88.0 L 790.0 467.0 L 203.0 467.0 Z M 203.0 88.0 "></path></clipPath><g clip-path="url(#clip0x7fe3a23f3060)"><path d="M 755.0 435.0 L 774.0 435.0 L 774.0 416.0 L 755.0 416.0 Z M 755.0 435.0 " fill="#7F8685"></path></g></g></g></g><g><clipPath id="clip0x7fe3a23f3db0"><path d="M 203.0 88.0 L 790.0 88.0 L 790.0 467.0 L 203.0 467.0 Z M 203.0 88.0 "></path></clipPath><g clip-path="url(#clip0x7fe3a23f3db0)"><path d="M 567.8 40.4 C 567.8 44.2 564.6 47.4 560.8 47.4 C 556.9 47.4 553.8 44.2 553.8 40.4 C 553.8 36.5 556.9 33.4 560.8 33.4 C 564.6 33.4 567.8 36.5 567.8 40.4 Z M 567.8 40.4 " fill="none" stroke="#7F8685" stroke-width="6.00" transform="matrix(1.00, 0.00, 0.00, -1.00, 203.8, 466.3)"></path></g></g></g></g></svg>