<?xml version="1.0" encoding="UTF-8" standalone="no"?><svg xmlns="http://www.w3.org/2000/svg" xmlns:xlink="http://www.w3.org/1999/xlink" clip-rule="evenodd" stroke-miterlimit="10" viewBox="0 0 1024 768"><desc>SVG generated by Keynote</desc><defs></defs><g transform="matrix(1.00, 0.00, -0.00, -1.00, 0.0, 768.0)"><g><clipPath id="clip0x7fe3a1d354a0"><path d="M 0.0 768.0 L 1024.0 768.0 L 1024.0 0.0 L 0.0 0.0 Z M 0.0 768.0 "></path></clipPath><g clip-path="url(#clip0x7fe3a1d354a0)"><image xlink:href="../../BE03AB4A-F5E0-4685-80C7-20DCBC62631F/assets/574DCE55A4CF432400CBDDDE1DFDFC9B.jpeg" width="2048.00" height="1536.00" transform="matrix(0.50, 0.00, -0.00, -0.50, 0.0, 768.0)"></image></g></g><text xml:space="preserve" font-family="HelveticaNeue-Thin,Helvetica Neue" font-size="55.0" fill="#525252" transform="matrix(1.00, 0.00, -0.00, -1.00, 269.9, 363.0)">S</text><text xml:space="preserve" font-family="HelveticaNeue-Thin,Helvetica Neue" font-size="55.0" fill="#525252" transform="matrix(1.00, 0.00, -0.00, -1.00, 304.6, 363.0)">p</text><text xml:space="preserve" font-family="HelveticaNeue-Thin,Helvetica Neue" font-size="55.0" fill="#525252" transform="matrix(1.00, 0.00, -0.00, -1.00, 335.1, 363.0)">ē</text><text xml:space="preserve" font-family="HelveticaNeue-Thin,Helvetica Neue" font-size="55.0" fill="#525252" transform="matrix(1.00, 0.00, -0.00, -1.00, 363.7, 363.0)">j</text><text xml:space="preserve" font-family="HelveticaNeue-Thin,Helvetica Neue" font-size="55.0" fill="#525252" transform="matrix(1.00, 0.00, -0.00, -1.00, 372.9, 363.0)">a</text><text xml:space="preserve" font-family="HelveticaNeue-Thin,Helvetica Neue" font-size="55.0" fill="#525252" transform="matrix(1.00, 0.00, -0.00, -1.00, 400.4, 363.0)"> </text><text xml:space="preserve" font-family="HelveticaNeue-Thin,Helvetica Neue" font-size="55.0" fill="#525252" transform="matrix(1.00, 0.00, -0.00, -1.00, 415.7, 363.0)">b</text><text xml:space="preserve" font-family="HelveticaNeue-Thin,Helvetica Neue" font-size="55.0" fill="#525252" transform="matrix(1.00, 0.00, -0.00, -1.00, 446.3, 363.0)">ū</text><text xml:space="preserve" font-family="HelveticaNeue-Thin,Helvetica Neue" font-size="55.0" fill="#525252" transform="matrix(1.00, 0.00, -0.00, -1.00, 474.8, 363.0)">t</text><text xml:space="preserve" font-family="HelveticaNeue-Thin,Helvetica Neue" font-size="55.0" fill="#525252" transform="matrix(1.00, 0.00, -0.00, -1.00, 489.1, 363.0)"> </text><text xml:space="preserve" font-family="HelveticaNeue-Thin,Helvetica Neue" font-size="55.0" fill="#525252" transform="matrix(1.00, 0.00, -0.00, -1.00, 504.4, 363.0)">d</text><text xml:space="preserve" font-family="HelveticaNeue-Thin,Helvetica Neue" font-size="55.0" fill="#525252" transform="matrix(1.00, 0.00, -0.00, -1.00, 535.0, 363.0)">u</text><text xml:space="preserve" font-family="HelveticaNeue-Thin,Helvetica Neue" font-size="55.0" fill="#525252" transform="matrix(1.00, 0.00, -0.00, -1.00, 563.5, 363.0)">s</text><text xml:space="preserve" font-family="HelveticaNeue-Thin,Helvetica Neue" font-size="55.0" fill="#525252" transform="matrix(1.00, 0.00, -0.00, -1.00, 590.0, 363.0)">m</text><text xml:space="preserve" font-family="HelveticaNeue-Thin,Helvetica Neue" font-size="55.0" fill="#525252" transform="matrix(1.00, 0.00, -0.00, -1.00, 633.7, 363.0)">ī</text><text xml:space="preserve" font-family="HelveticaNeue-Thin,Helvetica Neue" font-size="55.0" fill="#525252" transform="matrix(1.00, 0.00, -0.00, -1.00, 643.0, 363.0)">g</text><text xml:space="preserve" font-family="HelveticaNeue-Thin,Helvetica Neue" font-size="55.0" fill="#525252" transform="matrix(1.00, 0.00, -0.00, -1.00, 672.5, 363.0)">i</text><text xml:space="preserve" font-family="HelveticaNeue-Thin,Helvetica Neue" font-size="55.0" fill="#525252" transform="matrix(1.00, 0.00, -0.00, -1.00, 681.8, 363.0)">e</text><text xml:space="preserve" font-family="HelveticaNeue-Thin,Helvetica Neue" font-size="55.0" fill="#525252" transform="matrix(1.00, 0.00, -0.00, -1.00, 710.3, 363.0)">m</text><g><clipPath id="clip0x7fe3a1d27490"><path d="M 21.0 174.0 L 713.0 174.0 L 713.0 693.0 L 21.0 693.0 Z M 21.0 174.0 "></path></clipPath><g clip-path="url(#clip0x7fe3a1d27490)"><path d="M 21.0 693.0 L 713.0 693.0 L 713.0 174.0 L 21.0 174.0 Z M 21.0 693.0 " fill="#FEFFFF" fill-opacity="0.00"></path></g></g><g><clipPath id="clip0x7fe3a1d23290"><path d="M 21.0 174.0 L 713.0 174.0 L 713.0 693.0 L 21.0 693.0 Z M 21.0 174.0 "></path></clipPath><g clip-path="url(#clip0x7fe3a1d23290)"><image xlink:href="../../7000C877-9C17-4696-9212-5E0B550BF09A/assets/77EFC5E3F5D6E2B932BF52376EC72D29.png" width="692.00" height="519.00" transform="matrix(1.00, 0.00, -0.00, -1.00, 21.0, 693.0)"></image></g></g><image xlink:href="../../2198CBDD-C4ED-4CEE-9D69-3F4F05B91592/assets/FE80839DC002D4D6BC614D23FD80B140.png" width="706.00" height="538.00" transform="matrix(1.00, 0.00, -0.00, 1.00, 14.0, 159.0)"></image><g><clipPath id="clip0x7fe3a1d219b0"><path d="M 520.0 97.0 L 1004.0 97.0 L 1004.0 743.0 L 520.0 743.0 Z M 520.0 97.0 "></path></clipPath><g clip-path="url(#clip0x7fe3a1d219b0)"><path d="M 520.0 743.0 L 1004.0 743.0 L 1004.0 97.0 L 520.0 97.0 Z M 520.0 743.0 " fill="#FEFFFF" fill-opacity="0.00"></path></g></g><g><clipPath id="clip0x7fe3a1d1d3d0"><path d="M 520.0 97.0 L 1004.0 97.0 L 1004.0 743.0 L 520.0 743.0 Z M 520.0 97.0 "></path></clipPath><g clip-path="url(#clip0x7fe3a1d1d3d0)"><image xlink:href="../../7000C877-9C17-4696-9212-5E0B550BF09A/assets/5A722B954167AF009F571BCA9DE2C369.png" width="692.00" height="923.00" transform="matrix(0.70, 0.00, -0.00, -0.70, 520.0, 743.0)"></image></g></g><image xlink:href="../../7000C877-9C17-4696-9212-5E0B550BF09A/assets/B6E4BC0B333642B9D458E00B5F4C2CCA.png" width="498.00" height="665.00" transform="matrix(1.00, 0.00, -0.00, 1.00, 513.0, 82.0)"></image><g><clipPath id="clip0x7fe3a2341d70"><path d="M 330.0 22.0 L 694.0 22.0 L 694.0 668.0 L 330.0 668.0 Z M 330.0 22.0 "></path></clipPath><g clip-path="url(#clip0x7fe3a2341d70)"><path d="M 330.0 668.0 L 694.0 668.0 L 694.0 22.0 L 330.0 22.0 Z M 330.0 668.0 " fill="#FEFFFF" fill-opacity="0.00"></path></g></g><g><clipPath id="clip0x7fe3a2338870"><path d="M 330.0 22.0 L 694.0 22.0 L 694.0 668.0 L 330.0 668.0 Z M 330.0 22.0 "></path></clipPath><g clip-path="url(#clip0x7fe3a2338870)"><image xlink:href="../../7000C877-9C17-4696-9212-5E0B550BF09A/assets/BF0F614B0B731CF6E64EAA43F23BDBCB.png" width="692.00" height="1230.00" transform="matrix(0.53, 0.00, -0.00, -0.53, 330.0, 668.0)"></image></g></g><image xlink:href="../../7000C877-9C17-4696-9212-5E0B550BF09A/assets/BFECF54112441B9680913BDD1768CD55.png" width="378.00" height="665.00" transform="matrix(1.00, 0.00, -0.00, 1.00, 323.0, 7.0)"></image></g></svg>