<?xml version="1.0" encoding="UTF-8" standalone="no"?><svg xmlns="http://www.w3.org/2000/svg" xmlns:xlink="http://www.w3.org/1999/xlink" clip-rule="evenodd" stroke-miterlimit="10" viewBox="0 0 972 121"><desc>SVG generated by Keynote</desc><defs></defs><g transform="matrix(1.00, 0.00, -0.00, -1.00, 0.0, 121.0)"><text xml:space="preserve" font-family="HelveticaNeue-Thin,Helvetica Neue" font-size="55.0" fill="#525252" transform="matrix(1.00, 0.00, -0.00, -1.00, 0.5, 78.8)">J</text><text xml:space="preserve" font-family="HelveticaNeue-Thin,Helvetica Neue" font-size="55.0" fill="#525252" transform="matrix(1.00, 0.00, -0.00, -1.00, 26.9, 78.8)"> </text><text xml:space="preserve" font-family="HelveticaNeue-Thin,Helvetica Neue" font-size="55.0" fill="#525252" transform="matrix(1.00, 0.00, -0.00, -1.00, 42.2, 78.8)">:</text><text xml:space="preserve" font-family="HelveticaNeue-Thin,Helvetica Neue" font-size="55.0" fill="#525252" transform="matrix(1.00, 0.00, -0.00, -1.00, 57.5, 78.8)"> </text><text xml:space="preserve" font-family="HelveticaNeue-Thin,Helvetica Neue" font-size="55.0" fill="#525252" transform="matrix(1.00, 0.00, -0.00, -1.00, 72.8, 78.8)">N</text><text xml:space="preserve" font-family="HelveticaNeue-Thin,Helvetica Neue" font-size="55.0" fill="#525252" transform="matrix(1.00, 0.00, -0.00, -1.00, 110.1, 78.8)">o</text><text xml:space="preserve" font-family="HelveticaNeue-Thin,Helvetica Neue" font-size="55.0" fill="#525252" transform="matrix(1.00, 0.00, -0.00, -1.00, 139.6, 78.8)"> </text><text xml:space="preserve" font-family="HelveticaNeue-Thin,Helvetica Neue" font-size="55.0" fill="#525252" transform="matrix(1.00, 0.00, -0.00, -1.00, 154.9, 78.8)">2</text><text xml:space="preserve" font-family="HelveticaNeue-Thin,Helvetica Neue" font-size="55.0" fill="#525252" transform="matrix(1.00, 0.00, -0.00, -1.00, 185.5, 78.8)">0</text><text xml:space="preserve" font-family="HelveticaNeue-Thin,Helvetica Neue" font-size="55.0" fill="#525252" transform="matrix(1.00, 0.00, -0.00, -1.00, 216.1, 78.8)">0</text><text xml:space="preserve" font-family="HelveticaNeue-Thin,Helvetica Neue" font-size="55.0" fill="#525252" transform="matrix(1.00, 0.00, -0.00, -1.00, 246.7, 78.8)">5</text><text xml:space="preserve" font-family="HelveticaNeue-Thin,Helvetica Neue" font-size="55.0" fill="#525252" transform="matrix(1.00, 0.00, -0.00, -1.00, 277.2, 78.8)">.</text><text xml:space="preserve" font-family="HelveticaNeue-Thin,Helvetica Neue" font-size="55.0" fill="#525252" transform="matrix(1.00, 0.00, -0.00, -1.00, 292.5, 78.8)">g</text><text xml:space="preserve" font-family="HelveticaNeue-Thin,Helvetica Neue" font-size="55.0" fill="#525252" transform="matrix(1.00, 0.00, -0.00, -1.00, 322.1, 78.8)">a</text><text xml:space="preserve" font-family="HelveticaNeue-Thin,Helvetica Neue" font-size="55.0" fill="#525252" transform="matrix(1.00, 0.00, -0.00, -1.00, 349.6, 78.8)">d</text><text xml:space="preserve" font-family="HelveticaNeue-Thin,Helvetica Neue" font-size="55.0" fill="#525252" transform="matrix(1.00, 0.00, -0.00, -1.00, 380.1, 78.8)">a</text><text xml:space="preserve" font-family="HelveticaNeue-Thin,Helvetica Neue" font-size="55.0" fill="#525252" transform="matrix(1.00, 0.00, -0.00, -1.00, 407.6, 78.8)">,</text><text xml:space="preserve" font-family="HelveticaNeue-Thin,Helvetica Neue" font-size="55.0" fill="#525252" transform="matrix(1.00, 0.00, -0.00, -1.00, 422.9, 78.8)"> </text><text xml:space="preserve" font-family="HelveticaNeue-Thin,Helvetica Neue" font-size="55.0" fill="#525252" transform="matrix(1.00, 0.00, -0.00, -1.00, 438.2, 78.8)">k</text><text xml:space="preserve" font-family="HelveticaNeue-Thin,Helvetica Neue" font-size="55.0" fill="#525252" transform="matrix(1.00, 0.00, -0.00, -1.00, 463.7, 78.8)">u</text><text xml:space="preserve" font-family="HelveticaNeue-Thin,Helvetica Neue" font-size="55.0" fill="#525252" transform="matrix(1.00, 0.00, -0.00, -1.00, 492.2, 78.8)">r</text><text xml:space="preserve" font-family="HelveticaNeue-Thin,Helvetica Neue" font-size="55.0" fill="#525252" transform="matrix(1.00, 0.00, -0.00, -1.00, 507.5, 78.8)">š</text><text xml:space="preserve" font-family="HelveticaNeue-Thin,Helvetica Neue" font-size="55.0" fill="#525252" transform="matrix(1.00, 0.00, -0.00, -1.00, 534.0, 78.8)"> </text><text xml:space="preserve" font-family="HelveticaNeue-Thin,Helvetica Neue" font-size="55.0" fill="#525252" transform="matrix(1.00, 0.00, -0.00, -1.00, 549.3, 78.8)">v</text><text xml:space="preserve" font-family="HelveticaNeue-Thin,Helvetica Neue" font-size="55.0" fill="#525252" transform="matrix(1.00, 0.00, -0.00, -1.00, 573.7, 78.8)">i</text><text xml:space="preserve" font-family="HelveticaNeue-Thin,Helvetica Neue" font-size="55.0" fill="#525252" transform="matrix(1.00, 0.00, -0.00, -1.00, 582.9, 78.8)">s</text><text xml:space="preserve" font-family="HelveticaNeue-Thin,Helvetica Neue" font-size="55.0" fill="#525252" transform="matrix(1.00, 0.00, -0.00, -1.00, 609.4, 78.8)">v</text><text xml:space="preserve" font-family="HelveticaNeue-Thin,Helvetica Neue" font-size="55.0" fill="#525252" transform="matrix(1.00, 0.00, -0.00, -1.00, 633.8, 78.8)">a</text><text xml:space="preserve" font-family="HelveticaNeue-Thin,Helvetica Neue" font-size="55.0" fill="#525252" transform="matrix(1.00, 0.00, -0.00, -1.00, 661.3, 78.8)">i</text><text xml:space="preserve" font-family="HelveticaNeue-Thin,Helvetica Neue" font-size="55.0" fill="#525252" transform="matrix(1.00, 0.00, -0.00, -1.00, 670.5, 78.8)">r</text><text xml:space="preserve" font-family="HelveticaNeue-Thin,Helvetica Neue" font-size="55.0" fill="#525252" transform="matrix(1.00, 0.00, -0.00, -1.00, 685.8, 78.8)">ā</text><text xml:space="preserve" font-family="HelveticaNeue-Thin,Helvetica Neue" font-size="55.0" fill="#525252" transform="matrix(1.00, 0.00, -0.00, -1.00, 713.3, 78.8)">k</text><text xml:space="preserve" font-family="HelveticaNeue-Thin,Helvetica Neue" font-size="55.0" fill="#525252" transform="matrix(1.00, 0.00, -0.00, -1.00, 738.8, 78.8)"> </text><text xml:space="preserve" font-family="HelveticaNeue-Thin,Helvetica Neue" font-size="55.0" fill="#525252" transform="matrix(1.00, 0.00, -0.00, -1.00, 754.1, 78.8)">p</text><text xml:space="preserve" font-family="HelveticaNeue-Thin,Helvetica Neue" font-size="55.0" fill="#525252" transform="matrix(1.00, 0.00, -0.00, -1.00, 784.7, 78.8)">r</text><text xml:space="preserve" font-family="HelveticaNeue-Thin,Helvetica Neue" font-size="55.0" fill="#525252" transform="matrix(1.00, 0.00, -0.00, -1.00, 799.3, 78.8)">o</text><text xml:space="preserve" font-family="HelveticaNeue-Thin,Helvetica Neue" font-size="55.0" fill="#525252" transform="matrix(1.00, 0.00, -0.00, -1.00, 828.8, 78.8)">b</text><text xml:space="preserve" font-family="HelveticaNeue-Thin,Helvetica Neue" font-size="55.0" fill="#525252" transform="matrix(1.00, 0.00, -0.00, -1.00, 859.4, 78.8)">l</text><text xml:space="preserve" font-family="HelveticaNeue-Thin,Helvetica Neue" font-size="55.0" fill="#525252" transform="matrix(1.00, 0.00, -0.00, -1.00, 868.7, 78.8)">ē</text><text xml:space="preserve" font-family="HelveticaNeue-Thin,Helvetica Neue" font-size="55.0" fill="#525252" transform="matrix(1.00, 0.00, -0.00, -1.00, 897.2, 78.8)">m</text><text xml:space="preserve" font-family="HelveticaNeue-Thin,Helvetica Neue" font-size="55.0" fill="#525252" transform="matrix(1.00, 0.00, -0.00, -1.00, 941.0, 78.8)">u</text><text xml:space="preserve" font-family="HelveticaNeue-Thin,Helvetica Neue" font-size="55.0" fill="#525252" transform="matrix(1.00, 0.00, -0.00, -1.00, 969.5, 78.8)"> </text><text xml:space="preserve" font-family="HelveticaNeue-Thin,Helvetica Neue" font-size="55.0" fill="#525252" transform="matrix(1.00, 0.00, -0.00, -1.00, 369.3, 11.8)">a</text><text xml:space="preserve" font-family="HelveticaNeue-Thin,Helvetica Neue" font-size="55.0" fill="#525252" transform="matrix(1.00, 0.00, -0.00, -1.00, 396.8, 11.8)">t</text><text xml:space="preserve" font-family="HelveticaNeue-Thin,Helvetica Neue" font-size="55.0" fill="#525252" transform="matrix(1.00, 0.00, -0.00, -1.00, 411.0, 11.8)">r</text><text xml:space="preserve" font-family="HelveticaNeue-Thin,Helvetica Neue" font-size="55.0" fill="#525252" transform="matrix(1.00, 0.00, -0.00, -1.00, 426.3, 11.8)">i</text><text xml:space="preserve" font-family="HelveticaNeue-Thin,Helvetica Neue" font-size="55.0" fill="#525252" transform="matrix(1.00, 0.00, -0.00, -1.00, 435.5, 11.8)">s</text><text xml:space="preserve" font-family="HelveticaNeue-Thin,Helvetica Neue" font-size="55.0" fill="#525252" transform="matrix(1.00, 0.00, -0.00, -1.00, 462.0, 11.8)">i</text><text xml:space="preserve" font-family="HelveticaNeue-Thin,Helvetica Neue" font-size="55.0" fill="#525252" transform="matrix(1.00, 0.00, -0.00, -1.00, 471.2, 11.8)">n</text><text xml:space="preserve" font-family="HelveticaNeue-Thin,Helvetica Neue" font-size="55.0" fill="#525252" transform="matrix(1.00, 0.00, -0.00, -1.00, 499.8, 11.8)">ā</text><text xml:space="preserve" font-family="HelveticaNeue-Thin,Helvetica Neue" font-size="55.0" fill="#525252" transform="matrix(1.00, 0.00, -0.00, -1.00, 527.3, 11.8)">j</text><text xml:space="preserve" font-family="HelveticaNeue-Thin,Helvetica Neue" font-size="55.0" fill="#525252" transform="matrix(1.00, 0.00, -0.00, -1.00, 536.5, 11.8)">i</text><text xml:space="preserve" font-family="HelveticaNeue-Thin,Helvetica Neue" font-size="55.0" fill="#525252" transform="matrix(1.00, 0.00, -0.00, -1.00, 545.7, 11.8)">s</text><text xml:space="preserve" font-family="HelveticaNeue-Thin,Helvetica Neue" font-size="55.0" fill="#525252" transform="matrix(1.00, 0.00, -0.00, -1.00, 572.2, 11.8)">?</text></g></svg>