<?xml version="1.0" encoding="UTF-8" standalone="no"?><svg xmlns="http://www.w3.org/2000/svg" xmlns:xlink="http://www.w3.org/1999/xlink" clip-rule="evenodd" stroke-miterlimit="10" viewBox="0 0 1024 768"><desc>SVG generated by Keynote</desc><defs></defs><g transform="matrix(1.00, 0.00, -0.00, -1.00, 0.0, 768.0)"><g><clipPath id="clip0x7fe3831e4240"><path d="M 0.0 768.0 L 1024.0 768.0 L 1024.0 0.0 L 0.0 0.0 Z M 0.0 768.0 "></path></clipPath><g clip-path="url(#clip0x7fe3831e4240)"><image xlink:href="../../BE03AB4A-F5E0-4685-80C7-20DCBC62631F/assets/574DCE55A4CF432400CBDDDE1DFDFC9B.jpeg" width="2048.00" height="1536.00" transform="matrix(0.50, 0.00, -0.00, -0.50, 0.0, 768.0)"></image></g></g><text xml:space="preserve" font-family="HelveticaNeue-Thin,Helvetica Neue" font-size="55.0" fill="#525252" transform="matrix(1.00, 0.00, -0.00, -1.00, 118.8, 437.3)">J</text><text xml:space="preserve" font-family="HelveticaNeue-Thin,Helvetica Neue" font-size="55.0" fill="#525252" transform="matrix(1.00, 0.00, -0.00, -1.00, 145.3, 437.3)"> </text><text xml:space="preserve" font-family="HelveticaNeue-Thin,Helvetica Neue" font-size="55.0" fill="#525252" transform="matrix(1.00, 0.00, -0.00, -1.00, 160.6, 437.3)">:</text><text xml:space="preserve" font-family="HelveticaNeue-Thin,Helvetica Neue" font-size="55.0" fill="#525252" transform="matrix(1.00, 0.00, -0.00, -1.00, 175.9, 437.3)"> </text><text xml:space="preserve" font-family="HelveticaNeue-Thin,Helvetica Neue" font-size="55.0" fill="#525252" transform="matrix(1.00, 0.00, -0.00, -1.00, 191.2, 437.3)">C</text><text xml:space="preserve" font-family="HelveticaNeue-Thin,Helvetica Neue" font-size="55.0" fill="#525252" transform="matrix(1.00, 0.00, -0.00, -1.00, 229.9, 437.3)">i</text><text xml:space="preserve" font-family="HelveticaNeue-Thin,Helvetica Neue" font-size="55.0" fill="#525252" transform="matrix(1.00, 0.00, -0.00, -1.00, 239.1, 437.3)">k</text><text xml:space="preserve" font-family="HelveticaNeue-Thin,Helvetica Neue" font-size="55.0" fill="#525252" transform="matrix(1.00, 0.00, -0.00, -1.00, 264.6, 437.3)"> </text><text xml:space="preserve" font-family="HelveticaNeue-Thin,Helvetica Neue" font-size="55.0" fill="#525252" transform="matrix(1.00, 0.00, -0.00, -1.00, 279.9, 437.3)">k</text><text xml:space="preserve" font-family="HelveticaNeue-Thin,Helvetica Neue" font-size="55.0" fill="#525252" transform="matrix(1.00, 0.00, -0.00, -1.00, 304.7, 437.3)">o</text><text xml:space="preserve" font-family="HelveticaNeue-Thin,Helvetica Neue" font-size="55.0" fill="#525252" transform="matrix(1.00, 0.00, -0.00, -1.00, 334.2, 437.3)">d</text><text xml:space="preserve" font-family="HelveticaNeue-Thin,Helvetica Neue" font-size="55.0" fill="#525252" transform="matrix(1.00, 0.00, -0.00, -1.00, 364.8, 437.3)">a</text><text xml:space="preserve" font-family="HelveticaNeue-Thin,Helvetica Neue" font-size="55.0" fill="#525252" transform="matrix(1.00, 0.00, -0.00, -1.00, 392.3, 437.3)"> </text><text xml:space="preserve" font-family="HelveticaNeue-Thin,Helvetica Neue" font-size="55.0" fill="#525252" transform="matrix(1.00, 0.00, -0.00, -1.00, 407.6, 437.3)">r</text><text xml:space="preserve" font-family="HelveticaNeue-Thin,Helvetica Neue" font-size="55.0" fill="#525252" transform="matrix(1.00, 0.00, -0.00, -1.00, 422.9, 437.3)">i</text><text xml:space="preserve" font-family="HelveticaNeue-Thin,Helvetica Neue" font-size="55.0" fill="#525252" transform="matrix(1.00, 0.00, -0.00, -1.00, 432.1, 437.3)">n</text><text xml:space="preserve" font-family="HelveticaNeue-Thin,Helvetica Neue" font-size="55.0" fill="#525252" transform="matrix(1.00, 0.00, -0.00, -1.00, 460.7, 437.3)">d</text><text xml:space="preserve" font-family="HelveticaNeue-Thin,Helvetica Neue" font-size="55.0" fill="#525252" transform="matrix(1.00, 0.00, -0.00, -1.00, 491.2, 437.3)">a</text><text xml:space="preserve" font-family="HelveticaNeue-Thin,Helvetica Neue" font-size="55.0" fill="#525252" transform="matrix(1.00, 0.00, -0.00, -1.00, 518.7, 437.3)">s</text><text xml:space="preserve" font-family="HelveticaNeue-Thin,Helvetica Neue" font-size="55.0" fill="#525252" transform="matrix(1.00, 0.00, -0.00, -1.00, 545.2, 437.3)"> </text><text xml:space="preserve" font-family="HelveticaNeue-Thin,Helvetica Neue" font-size="55.0" fill="#525252" transform="matrix(1.00, 0.00, -0.00, -1.00, 560.5, 437.3)">i</text><text xml:space="preserve" font-family="HelveticaNeue-Thin,Helvetica Neue" font-size="55.0" fill="#525252" transform="matrix(1.00, 0.00, -0.00, -1.00, 569.7, 437.3)">r</text><text xml:space="preserve" font-family="HelveticaNeue-Thin,Helvetica Neue" font-size="55.0" fill="#525252" transform="matrix(1.00, 0.00, -0.00, -1.00, 585.0, 437.3)"> </text><text xml:space="preserve" font-family="HelveticaNeue-Thin,Helvetica Neue" font-size="55.0" fill="#525252" transform="matrix(1.00, 0.00, -0.00, -1.00, 600.3, 437.3)">W</text><text xml:space="preserve" font-family="HelveticaNeue-Thin,Helvetica Neue" font-size="55.0" fill="#525252" transform="matrix(1.00, 0.00, -0.00, -1.00, 647.9, 437.3)">e</text><text xml:space="preserve" font-family="HelveticaNeue-Thin,Helvetica Neue" font-size="55.0" fill="#525252" transform="matrix(1.00, 0.00, -0.00, -1.00, 676.4, 437.3)">b</text><text xml:space="preserve" font-family="HelveticaNeue-Thin,Helvetica Neue" font-size="55.0" fill="#525252" transform="matrix(1.00, 0.00, -0.00, -1.00, 707.0, 437.3)"> </text><text xml:space="preserve" font-family="HelveticaNeue-Thin,Helvetica Neue" font-size="55.0" fill="#525252" transform="matrix(1.00, 0.00, -0.00, -1.00, 722.3, 437.3)">D</text><text xml:space="preserve" font-family="HelveticaNeue-Thin,Helvetica Neue" font-size="55.0" fill="#525252" transform="matrix(1.00, 0.00, -0.00, -1.00, 759.0, 437.3)">ī</text><text xml:space="preserve" font-family="HelveticaNeue-Thin,Helvetica Neue" font-size="55.0" fill="#525252" transform="matrix(1.00, 0.00, -0.00, -1.00, 768.2, 437.3)">l</text><text xml:space="preserve" font-family="HelveticaNeue-Thin,Helvetica Neue" font-size="55.0" fill="#525252" transform="matrix(1.00, 0.00, -0.00, -1.00, 777.5, 437.3)">e</text><text xml:space="preserve" font-family="HelveticaNeue-Thin,Helvetica Neue" font-size="55.0" fill="#525252" transform="matrix(1.00, 0.00, -0.00, -1.00, 806.0, 437.3)">r</text><text xml:space="preserve" font-family="HelveticaNeue-Thin,Helvetica Neue" font-size="55.0" fill="#525252" transform="matrix(1.00, 0.00, -0.00, -1.00, 820.6, 437.3)">o</text><text xml:space="preserve" font-family="HelveticaNeue-Thin,Helvetica Neue" font-size="55.0" fill="#525252" transform="matrix(1.00, 0.00, -0.00, -1.00, 850.2, 437.3)">s</text><text xml:space="preserve" font-family="HelveticaNeue-Thin,Helvetica Neue" font-size="55.0" fill="#525252" transform="matrix(1.00, 0.00, -0.00, -1.00, 876.6, 437.3)">?</text></g></svg>